<svg width="205" height="60" viewBox="0 0 205 60" fill="none" xmlns="http://www.w3.org/2000/svg">
<rect width="205" height="60" fill="none"/>
<g id="Desktop_Ana Sayfa Redesign_Logo_V3">
<rect width="1440" height="809" transform="translate(-165 -55)" fill="none"/>
<g id="Group 799">
<rect id="Rectangle 225" x="-165" y="-15" width="1440" height="90" fill="none"/>
<g id="Logo &#196;&#176;lerisi Deniz">
<g id="Group 2636">
<path id="Vector" d="M163.194 19.5482C163.625 17.0489 164.581 14.7523 165.955 12.7394L164.15 10.9156C162.952 9.69979 162.938 7.75443 164.124 6.5656C165.309 5.36325 167.235 5.37676 168.433 6.59261L170.211 8.38937C172.218 6.95737 174.535 5.94416 177.053 5.48484V3.09367C177.053 1.37796 178.414 0 180.084 0C181.754 0 183.114 1.39147 183.114 3.09367V5.47133C185.66 5.91714 188.017 6.94386 190.05 8.38937L191.653 6.76824C192.852 5.55239 194.778 5.55239 195.963 6.74122C197.148 7.94356 197.135 9.88892 195.936 11.0913L194.293 12.7394C195.653 14.7388 196.609 17.0489 197.04 19.5482H198.926C200.623 19.5482 201.997 20.9126 201.997 22.6148C201.997 24.317 200.623 25.6815 198.926 25.6815H197.014C196.556 28.2213 195.559 30.5584 194.145 32.5848L195.586 34.0438C196.785 35.2597 196.798 37.205 195.613 38.3939C194.428 39.5962 192.502 39.5827 191.303 38.3669L189.821 36.8808C187.841 38.2588 185.552 39.2315 183.087 39.6638V41.9063C183.087 43.622 181.727 45 180.057 45C178.387 45 177.026 43.6085 177.026 41.9063V39.6503C174.602 39.2044 172.339 38.2453 170.386 36.8808L168.743 38.5425C167.545 39.7583 165.619 39.7583 164.433 38.5695C163.248 37.3672 163.262 35.4218 164.46 34.2195L166.076 32.5983C164.662 30.5719 163.652 28.2213 163.208 25.695H160.5C158.803 25.695 157.43 24.317 157.43 22.6283C157.43 20.9397 158.803 19.5617 160.5 19.5617H163.194V19.5482Z" fill="white"/>
<g id="Group">
<path id="Vector_2" fill-rule="evenodd" clip-rule="evenodd" d="M35.7707 31.1263C36.1074 24.0338 32.2689 19.6973 27.4068 19.6973C23.0565 19.6973 19.5547 23.615 19.5547 29.8834C19.5547 36.1518 23.5009 39.4616 27.7974 39.4616C30.9355 39.4616 34.6259 37.3541 35.5013 32.8014H29.0365C28.9018 33.6931 28.39 34.3685 27.7031 34.3685C26.3159 34.3685 26.1273 32.6528 26.1273 31.1263H35.7707ZM26.1138 27.2085C26.1138 25.8846 26.5987 24.7498 27.6088 24.7498C28.5651 24.7498 29.225 25.9251 29.225 27.2085H26.1138Z" fill="#004899"/>
<path id="Vector_3" fill-rule="evenodd" clip-rule="evenodd" d="M44.4627 20.1159H37.9844V39.0291H44.6243V29.8022C44.6243 28.6944 44.6243 27.1273 45.7287 27.1273C46.8332 27.1273 46.8601 28.6944 46.8601 29.8022V39.0291H53.5V27.384C53.5 23.2096 52.1667 19.6836 48.7591 19.6836C46.6177 19.6836 45.6479 21.0751 44.355 23.142H44.2068L44.4627 20.1159Z" fill="#004899"/>
<path id="Vector_4" fill-rule="evenodd" clip-rule="evenodd" d="M78.7089 21.1825V20.1152H64.6344V26.0864H67.8533L69.3618 25.8297V25.9783L63.9609 37.7586V39.042H78.3857V33.0168H74.5876L73.2272 33.2329V33.0168L74.6414 29.5178L78.7089 21.1825Z" fill="#004899"/>
<path id="Vector_5" fill-rule="evenodd" clip-rule="evenodd" d="M126.244 20.1159H119.227V39.0291H126.392V29.8022C126.392 28.6944 126.392 27.1273 127.496 27.1273C128.601 27.1273 128.628 28.6944 128.628 29.8022V39.0291H135.268V27.384C135.268 23.2096 133.934 19.6836 130.527 19.6836C128.385 19.6836 127.415 21.0751 126.122 23.142H125.974L126.244 20.1159Z" fill="#004899"/>
<path id="Vector_6" fill-rule="evenodd" clip-rule="evenodd" d="M137.227 39.0423H144.015L144.028 29.5452L147.207 39.0423H155.234L150.21 28.5185L155.126 20.1156H147.341L144.311 28.1132L143.88 27.1405V12.3477H137.227V39.0423Z" fill="#004899"/>
<path id="Vector_7" fill-rule="evenodd" clip-rule="evenodd" d="M87.9643 22.4661V18.6564H88.4491C89.4727 18.6564 90.7926 18.5078 90.7926 20.4667C90.7926 22.3175 89.6343 22.4661 88.6107 22.4661H87.9643ZM80.8125 39.0422H91.8836C95.2776 39.0422 98.9949 37.1509 98.9949 31.6255C98.9949 28.3832 97.6885 26.6135 95.1429 25.249C97.9713 23.6144 98.3754 22.2229 98.3754 19.8723C98.3754 14.3064 93.1092 12.1719 90.4963 12.1719H80.8125V39.0422ZM87.9643 28.1401H88.6646C89.796 28.1401 91.6007 28.0995 91.6007 30.3421C91.6007 32.5847 89.9307 32.6252 88.7724 32.6252H87.9777V28.1401H87.9643Z" fill="#004899"/>
<path id="Vector_8" fill-rule="evenodd" clip-rule="evenodd" d="M110.095 39.0428H117.219V20.1296H110.095L110.297 22.3721H110.135C109.152 20.5213 107.792 19.6973 106.148 19.6973C101.825 19.6973 100.195 24.8984 100.195 29.6672C100.195 34.4361 102.256 39.4616 105.96 39.4616C107.845 39.4616 108.923 38.3268 110.135 36.5436H110.297L110.095 39.0428ZM106.795 29.4916C106.795 28.1001 107.468 25.817 108.519 25.817C109.569 25.817 110.297 27.9651 110.297 29.4241C110.297 30.8831 109.96 33.4364 108.694 33.4364C107.495 33.4229 106.795 30.9912 106.795 29.4916Z" fill="#004899"/>
<path id="Vector_9" fill-rule="evenodd" clip-rule="evenodd" d="M0 39.0423H8.94306C14.6402 39.0423 18.7077 33.9898 18.7077 26.0057C18.7077 16.1303 13.7109 12.1855 7.19216 12.1855H0V39.0423ZM7.05747 18.7106H7.50193C10.0744 18.7106 11.6502 22.1825 11.6502 25.9652C11.6502 29.4912 9.84545 32.4092 7.50193 32.4092H7.05747V18.7106Z" fill="#004899"/>
<path id="Vector_10" fill-rule="evenodd" clip-rule="evenodd" d="M56.2465 18.3989H62.1726V12.5898H56.2465V18.3989ZM55.8828 39.0414H62.5228V20.1281H55.8828V39.0414Z" fill="#004899"/>
</g>
<path id="Vector_11" fill-rule="evenodd" clip-rule="evenodd" d="M170.014 21.3993C170.23 19.4809 170.97 17.7112 172.088 16.2657L175.725 19.9402C175.455 20.3996 175.267 20.8859 175.146 21.4128H170.014V21.3993ZM173.799 14.5094C175.173 13.4017 176.843 12.6451 178.661 12.3749V17.6031C178.217 17.7382 177.799 17.9273 177.422 18.1705L173.799 14.5094ZM181.112 12.3209C183.173 12.5236 185.045 13.3341 186.567 14.577L182.944 18.2245C182.405 17.8598 181.786 17.6031 181.126 17.4815V12.3209H181.112ZM188.264 16.3467C189.341 17.7922 190.069 19.535 190.271 21.4263H185.139C185.032 20.9129 184.856 20.4536 184.614 20.0213L188.264 16.3467ZM190.244 23.885C190.001 25.7763 189.247 27.519 188.129 28.9375L184.493 25.2765C184.762 24.8442 184.964 24.3713 185.085 23.8715H190.244V23.885ZM186.392 30.6803C184.91 31.8421 183.106 32.5986 181.139 32.8012V27.6406C181.705 27.519 182.244 27.3164 182.742 27.0192L186.392 30.6803ZM178.688 32.7472C176.924 32.4905 175.321 31.788 173.96 30.7478L177.61 27.0732C177.947 27.2624 178.297 27.411 178.674 27.5326V32.7472H178.688ZM172.21 29.0321C171.051 27.5866 170.27 25.8033 170.028 23.858H175.173C175.307 24.3984 175.536 24.9117 175.833 25.371L172.21 29.0321ZM164.627 24.3308H160.977C159.846 24.3308 158.93 23.5608 158.93 22.6151C158.93 21.6695 159.846 20.8994 160.977 20.8994H164.613C164.923 17.8463 166.108 15.0633 167.9 12.7802L165.435 10.2945C164.64 9.48393 164.533 8.29509 165.193 7.61962C165.852 6.94415 167.038 7.06573 167.832 7.86279L170.284 10.335C172.546 8.47072 175.348 7.22785 178.419 6.89011V3.55328C178.419 2.41848 179.159 1.48633 180.102 1.48633C181.045 1.48633 181.799 2.40497 181.799 3.55328V6.89011C184.897 7.21434 187.725 8.47072 190.015 10.3485L192.291 8.03841C193.086 7.22785 194.271 7.11977 194.931 7.79524C195.591 8.47072 195.483 9.65955 194.688 10.4701L192.385 12.7937C194.163 15.0768 195.348 17.8598 195.658 20.8994H198.662C199.793 20.8994 200.709 21.6695 200.709 22.6151C200.709 23.5608 199.793 24.3308 198.662 24.3308H195.645C195.308 27.411 194.082 30.2344 192.237 32.5175L194.473 34.7871C195.268 35.5977 195.389 36.7865 194.715 37.462C194.055 38.124 192.87 38.0159 192.076 37.2188L189.826 34.9357C187.577 36.7325 184.816 37.9213 181.799 38.2456V41.6094C181.799 42.7442 181.018 43.6764 180.089 43.6764C179.159 43.6764 178.392 42.7577 178.392 41.6094V38.232C175.415 37.8943 172.694 36.719 170.472 34.9357L168.048 37.3674C167.253 38.178 166.068 38.2861 165.408 37.6106C164.748 36.9487 164.856 35.7463 165.65 34.9357L168.048 32.5175C166.189 30.2344 164.964 27.411 164.627 24.3308Z" fill="#CE0538"/>
</g>
<g id="Group 2638">
<path id="Union" d="M192.913 50.3681C192.62 50.0752 192.145 50.0752 191.852 50.3681C191.56 50.661 191.56 51.1359 191.852 51.4288L194.809 54.3852L191.852 57.3417C191.56 57.6346 191.56 58.1094 191.852 58.4023C192.145 58.6952 192.62 58.6952 192.913 58.4023L196.4 54.9155C196.693 54.6227 196.693 54.1478 196.4 53.8549L192.913 50.3681Z" fill="#004899"/>
<g id="&#196;&#176;lerisi Deniz">
<path id="Vector_12" d="M186.353 56.2178V57.6218H180.594V56.5038L184.078 52.5388H180.685V51.1348H186.197V52.2788L182.713 56.2178H186.353Z" fill="#004899"/>
<path id="Vector_13" d="M177.471 48.4839C177.67 48.2759 177.917 48.1719 178.212 48.1719C178.507 48.1719 178.754 48.2759 178.953 48.4839C179.152 48.6832 179.252 48.9215 179.252 49.1989C179.252 49.4849 179.152 49.7232 178.953 49.9139C178.754 50.1045 178.507 50.1999 178.212 50.1999C177.909 50.1999 177.657 50.1045 177.458 49.9139C177.267 49.7232 177.172 49.4849 177.172 49.1989C177.172 48.9215 177.272 48.6832 177.471 48.4839ZM179.07 57.6229H177.354V51.1359H179.07V57.6229Z" fill="#004899"/>
<path id="Vector_14" d="M173.007 50.9395C173.787 50.9395 174.415 51.1951 174.892 51.7065C175.369 52.2091 175.607 52.8635 175.607 53.6695V57.6215H173.891V54.0335C173.891 53.5741 173.77 53.2058 173.527 52.9285C173.293 52.6511 172.977 52.5125 172.578 52.5125C171.503 52.5125 170.966 53.2578 170.966 54.7485V57.6215H169.25V51.1345H170.966V51.7195C171.486 51.1995 172.166 50.9395 173.007 50.9395Z" fill="#004899"/>
<path id="Vector_15" d="M167.948 54.2545V54.8395H163.008C163.094 55.2988 163.285 55.6671 163.58 55.9445C163.883 56.2131 164.234 56.3475 164.633 56.3475C165.369 56.3475 165.907 56.0615 166.245 55.4895L167.779 55.8145C167.501 56.4731 167.09 56.9715 166.544 57.3095C165.998 57.6475 165.361 57.8165 164.633 57.8165C163.697 57.8165 162.908 57.4958 162.267 56.8545C161.625 56.2131 161.305 55.3898 161.305 54.3845C161.305 53.3791 161.625 52.5558 162.267 51.9145C162.917 51.2645 163.714 50.9395 164.659 50.9395C165.543 50.9395 166.301 51.2515 166.934 51.8755C167.575 52.4908 167.913 53.2838 167.948 54.2545ZM164.659 52.4345C164.303 52.4345 163.97 52.5385 163.658 52.7465C163.354 52.9545 163.155 53.2491 163.06 53.6305H166.193C166.089 53.2318 165.898 52.9328 165.621 52.7335C165.343 52.5341 165.023 52.4345 164.659 52.4345Z" fill="#004899"/>
<path id="Vector_16" d="M152.406 48.9121H155.617C157.056 48.9121 158.213 49.3151 159.088 50.1211C159.964 50.9184 160.401 51.9671 160.401 53.2671C160.401 54.5671 159.964 55.6201 159.088 56.4261C158.213 57.2234 157.056 57.6221 155.617 57.6221H152.406V48.9121ZM154.174 56.0231H155.617C156.527 56.0231 157.255 55.7761 157.801 55.2821C158.347 54.7794 158.62 54.1078 158.62 53.2671C158.62 52.4264 158.347 51.7591 157.801 51.2651C157.255 50.7624 156.527 50.5111 155.617 50.5111H154.174V56.0231Z" fill="#004899"/>
<path id="Vector_17" d="M145.729 48.4839C145.928 48.2759 146.175 48.1719 146.47 48.1719C146.764 48.1719 147.011 48.2759 147.211 48.4839C147.41 48.6832 147.51 48.9215 147.51 49.1989C147.51 49.4849 147.41 49.7232 147.211 49.9139C147.011 50.1045 146.764 50.1999 146.47 50.1999C146.166 50.1999 145.915 50.1045 145.716 49.9139C145.525 49.7232 145.43 49.4849 145.43 49.1989C145.43 48.9215 145.529 48.6832 145.729 48.4839ZM147.328 57.6229H145.612V51.1359H147.328V57.6229Z" fill="#004899"/>
<path id="Vector_18" d="M138.438 55.9055L140.167 55.5545C140.245 56.1438 140.691 56.4385 141.505 56.4385C141.817 56.4385 142.065 56.3778 142.247 56.2565C142.428 56.1351 142.519 55.9791 142.519 55.7885C142.519 55.5025 142.281 55.3075 141.805 55.2035L140.479 54.9305C139.889 54.8091 139.434 54.5881 139.114 54.2675C138.802 53.9468 138.646 53.5525 138.646 53.0845C138.646 52.4518 138.884 51.9361 139.361 51.5375C139.846 51.1388 140.492 50.9395 141.298 50.9395C142.052 50.9395 142.68 51.1171 143.182 51.4725C143.694 51.8278 144.006 52.2915 144.118 52.8635L142.48 53.1885C142.446 52.9198 142.316 52.7031 142.09 52.5385C141.874 52.3738 141.592 52.2915 141.246 52.2915C140.934 52.2915 140.708 52.3565 140.569 52.4865C140.431 52.6078 140.361 52.7551 140.361 52.9285C140.361 53.2058 140.557 53.3878 140.947 53.4745L142.493 53.8125C143.048 53.9338 143.468 54.1591 143.754 54.4885C144.049 54.8091 144.197 55.1948 144.197 55.6455C144.197 56.3475 143.937 56.8848 143.417 57.2575C142.905 57.6301 142.216 57.8165 141.35 57.8165C140.578 57.8165 139.919 57.6605 139.373 57.3485C138.827 57.0278 138.515 56.5468 138.438 55.9055Z" fill="#004899"/>
<path id="Vector_19" d="M135.471 48.4839C135.67 48.2759 135.917 48.1719 136.212 48.1719C136.507 48.1719 136.754 48.2759 136.953 48.4839C137.152 48.6832 137.252 48.9215 137.252 49.1989C137.252 49.4849 137.152 49.7232 136.953 49.9139C136.754 50.1045 136.507 50.1999 136.212 50.1999C135.909 50.1999 135.657 50.1045 135.458 49.9139C135.267 49.7232 135.172 49.4849 135.172 49.1989C135.172 48.9215 135.272 48.6832 135.471 48.4839ZM137.07 57.6229H135.354V51.1359H137.07V57.6229Z" fill="#004899"/>
<path id="Vector_20" d="M133.738 51.0449C133.938 51.0449 134.089 51.0623 134.193 51.0969L134.102 52.7479H133.725C132.183 52.7479 131.411 53.6753 131.411 55.5299V57.6229H129.695V51.1359H131.411V52.3189C132.001 51.4696 132.776 51.0449 133.738 51.0449Z" fill="#004899"/>
<path id="Vector_21" d="M128.385 54.2545V54.8395H123.445C123.532 55.2988 123.723 55.6671 124.017 55.9445C124.321 56.2131 124.672 56.3475 125.07 56.3475C125.807 56.3475 126.344 56.0615 126.682 55.4895L128.216 55.8145C127.939 56.4731 127.527 56.9715 126.981 57.3095C126.435 57.6475 125.798 57.8165 125.07 57.8165C124.134 57.8165 123.346 57.4958 122.704 56.8545C122.063 56.2131 121.742 55.3898 121.742 54.3845C121.742 53.3791 122.063 52.5558 122.704 51.9145C123.354 51.2645 124.152 50.9395 125.096 50.9395C125.98 50.9395 126.739 51.2515 127.371 51.8755C128.013 52.4908 128.351 53.2838 128.385 54.2545ZM125.096 52.4345C124.741 52.4345 124.407 52.5385 124.095 52.7465C123.792 52.9545 123.593 53.2491 123.497 53.6305H126.63C126.526 53.2318 126.336 52.9328 126.058 52.7335C125.781 52.5341 125.46 52.4345 125.096 52.4345Z" fill="#004899"/>
<path id="Vector_22" d="M120.443 57.6217H118.727V48.2617H120.443V57.6217Z" fill="#004899"/>
<path id="Vector_23" d="M115.286 46.286C115.477 46.0953 115.715 46 116.001 46C116.287 46 116.525 46.0953 116.716 46.286C116.915 46.4767 117.015 46.7063 117.015 46.975C117.015 47.261 116.92 47.4993 116.729 47.69C116.538 47.872 116.296 47.963 116.001 47.963C115.706 47.963 115.464 47.872 115.273 47.69C115.091 47.4993 115 47.261 115 46.975C115 46.7063 115.095 46.4767 115.286 46.286ZM116.898 57.622H115.13V48.912H116.898V57.622Z" fill="#004899"/>
</g>
</g>
</g>
</g>
</g>
</svg>
