<?xml version="1.0" encoding="UTF-8"?>
<svg id="Layer_1" data-name="Layer 1" xmlns="http://www.w3.org/2000/svg" viewBox="0 0 803 803">
  <defs>
    <style>
      .cls-1 {
        fill: #4fc4fe;
      }

      .cls-1, .cls-2, .cls-3, .cls-4, .cls-5, .cls-6, .cls-7, .cls-8, .cls-9, .cls-10, .cls-11 {
        stroke-width: 0px;
      }

      .cls-2 {
        fill: #84d6fe;
      }

      .cls-3 {
        fill: #61cafe;
      }

      .cls-12 {
        stroke-width: 1.71px;
      }

      .cls-12, .cls-13 {
        fill: none;
        stroke: #e6eaf7;
        stroke-miterlimit: 10;
      }

      .cls-4 {
        fill: #b9e7ff;
      }

      .cls-5 {
        fill: #e6eaf7;
      }

      .cls-13 {
        stroke-width: .99px;
      }

      .cls-6 {
        fill: #72d0fe;
      }

      .cls-7 {
        fill: #a7e2fe;
      }

      .cls-8 {
        fill: #95dcfe;
      }

      .cls-9 {
        fill: #072cad;
      }

      .cls-10 {
        fill: #cdd5ef;
      }

      .cls-11 {
        fill: #fff;
      }
    </style>
  </defs>
  <path class="cls-11" d="M401.5,803c221.74,0,401.5-179.76,401.5-401.5S623.24,0,401.5,0,0,179.76,0,401.5s179.76,401.5,401.5,401.5h0Z"/>
  <path class="cls-5" d="M401.5,779.14c208.56,0,377.64-169.07,377.64-377.64S610.06,23.86,401.5,23.86,23.86,192.94,23.86,401.5s169.07,377.64,377.64,377.64h0Z"/>
  <path class="cls-4" d="M406.66,344.19V105.81c-93.68,0-177.19,43.51-231.42,111.41,62.52,49.87,125.03,99.74,187.55,149.61,14.62-7.55,29.25-15.1,43.88-22.65h0Z"/>
  <path class="cls-13" d="M406.66,344.19V105.81c-93.68,0-177.19,43.51-231.42,111.41,62.52,49.87,125.03,99.74,187.55,149.61,14.62-7.55,29.25-15.1,43.88-22.65h0Z"/>
  <path class="cls-1" d="M450.25,366.84c62.5-49.88,125.01-99.77,187.51-149.65-54.24-67.88-137.73-111.37-231.39-111.37v238.37c14.62,7.55,29.25,15.1,43.88,22.65h0Z"/>
  <path class="cls-13" d="M450.25,366.84c62.5-49.88,125.01-99.77,187.51-149.65-54.24-67.88-137.73-111.37-231.39-111.37v238.37c14.62,7.55,29.25,15.1,43.88,22.65h0Z"/>
  <path class="cls-3" d="M460.95,414.16c77.97,17.75,155.93,35.5,233.9,53.25,4.81-21.17,7.35-43.21,7.35-65.84,0-69.81-24.16-133.97-64.58-184.58-62.49,49.9-124.97,99.8-187.46,149.7,3.6,15.82,7.19,31.65,10.79,47.47h0Z"/>
  <path class="cls-13" d="M460.95,414.16c77.97,17.75,155.93,35.5,233.9,53.25,4.81-21.17,7.35-43.21,7.35-65.84,0-69.81-24.16-133.97-64.58-184.58-62.49,49.9-124.97,99.8-187.46,149.7,3.6,15.82,7.19,31.65,10.79,47.47h0Z"/>
  <path class="cls-7" d="M362.87,366.69c-62.5-49.89-124.99-99.77-187.49-149.66-40.4,50.6-64.55,114.75-64.55,184.54,0,22.65,2.55,44.7,7.36,65.89,77.96-17.77,155.93-35.54,233.89-53.3,3.59-15.82,7.19-31.65,10.79-47.47h0Z"/>
  <path class="cls-13" d="M362.87,366.69c-62.5-49.89-124.99-99.77-187.49-149.66-40.4,50.6-64.55,114.75-64.55,184.54,0,22.65,2.55,44.7,7.36,65.89,77.96-17.77,155.93-35.54,233.89-53.3,3.59-15.82,7.19-31.65,10.79-47.47h0Z"/>
  <path class="cls-6" d="M695.01,467.09c-78.05-17.77-156.09-35.53-234.14-53.3-10.08,12.72-20.15,25.44-30.23,38.16,34.7,72.07,69.4,144.14,104.1,216.21,80.08-38.65,140.11-112.28,160.27-201.06h0Z"/>
  <path class="cls-12" d="M695.01,467.09c-78.05-17.77-156.09-35.53-234.14-53.3-10.08,12.72-20.15,25.44-30.23,38.16,34.7,72.07,69.4,144.14,104.1,216.21,80.08-38.65,140.11-112.28,160.27-201.06h0Z"/>
  <path class="cls-8" d="M352.06,413.91c-77.97,17.77-155.94,35.53-233.91,53.3,20.16,88.69,80.14,162.23,160.15,200.83,34.65-72,69.3-144.01,103.96-216.01-10.07-12.71-20.14-25.41-30.2-38.12h0Z"/>
  <path class="cls-13" d="M352.06,413.91c-77.97,17.77-155.94,35.53-233.91,53.3,20.16,88.69,80.14,162.23,160.15,200.83,34.65-72,69.3-144.01,103.96-216.01-10.07-12.71-20.14-25.41-30.2-38.12h0Z"/>
  <path class="cls-2" d="M382.06,451.99c-34.66,71.99-69.32,143.98-103.98,215.97,38.85,18.73,82.41,29.23,128.43,29.23s89.62-10.51,128.48-29.25c-34.67-71.98-69.35-143.96-104.02-215.94h-48.91Z"/>
  <path class="cls-13" d="M382.06,451.99c-34.66,71.99-69.32,143.98-103.98,215.97,38.85,18.73,82.41,29.23,128.43,29.23s89.62-10.51,128.48-29.25c-34.67-71.98-69.35-143.96-104.02-215.94h-48.91Z"/>
  <path class="cls-5" d="M401.5,507.11c58.33,0,105.61-47.28,105.61-105.61s-47.29-105.61-105.61-105.61-105.61,47.28-105.61,105.61,47.28,105.61,105.61,105.61h0Z"/>
  <path class="cls-9" d="M356.69,408.47c.81,0,1.43-.62,1.43-1.41s-.62-1.4-1.43-1.4-1.44.62-1.44,1.4.63,1.41,1.44,1.41h0ZM361.18,408.47c.82,0,1.43-.62,1.43-1.41s-.61-1.4-1.43-1.4-1.43.62-1.43,1.4.64,1.41,1.43,1.41h0ZM358.93,426.78c4.79,0,7.76-3.26,7.76-8.46v-.02c0-5.19-2.98-8.45-7.76-8.45s-7.77,3.26-7.77,8.45v.02c0,5.21,2.98,8.46,7.77,8.46h0ZM358.93,424.24c-2.93,0-4.79-2.28-4.79-5.92v-.02c0-3.64,1.87-5.91,4.79-5.91s4.79,2.28,4.79,5.91v.02c0,3.61-1.83,5.92-4.79,5.92h0ZM374.15,430.7c3.48,0,5.67-1.83,5.67-4.55v-11.68h-2.82v2.04h-.07c-.68-1.38-2-2.29-3.7-2.29-3.04,0-5,2.34-5,6.14h0c0,3.76,1.94,6.07,4.96,6.07,1.72,0,3.08-.82,3.75-2.1h.06v1.73c0,1.53-1.01,2.51-2.85,2.51-1.47,0-2.44-.52-2.74-1.21l-.03-.09h-2.78l.02.1c.34,1.88,2.35,3.33,5.54,3.33h0ZM374.07,424.25c-1.82,0-2.96-1.46-2.96-3.83h0c0-2.35,1.15-3.81,2.96-3.81s2.94,1.49,2.94,3.81h0c0,2.35-1.18,3.83-2.94,3.83h0ZM387.42,426.73c3.14,0,4.91-1.86,5.29-3.71l.03-.13h-2.64l-.02.08c-.27.81-1.19,1.55-2.6,1.55-1.84,0-2.99-1.25-3.04-3.36h8.42v-.91c0-3.63-2.13-6.05-5.57-6.05s-5.65,2.5-5.65,6.28h0c0,3.83,2.18,6.23,5.78,6.23h0ZM387.32,416.43c1.5,0,2.59.95,2.79,2.86h-5.64c.23-1.85,1.35-2.86,2.85-2.86h0ZM394.75,426.5h2.82v-16.37h-2.82v16.37h0ZM405.26,426.73c3.14,0,4.91-1.86,5.29-3.71l.03-.13h-2.64l-.02.08c-.27.81-1.19,1.55-2.6,1.55-1.84,0-2.99-1.25-3.04-3.36h8.41v-.91c0-3.63-2.13-6.05-5.57-6.05s-5.65,2.5-5.65,6.28h0c0,3.83,2.18,6.23,5.79,6.23h0ZM405.16,416.43c1.5,0,2.59.95,2.79,2.86h-5.64c.23-1.85,1.35-2.86,2.85-2.86h0ZM412.51,426.5h2.82v-6.98c0-1.78.96-2.79,2.56-2.79.48,0,.91.07,1.14.16v-2.55c-.21-.06-.54-.11-.9-.11-1.38,0-2.38.87-2.76,2.33h-.06v-2.07h-2.82v12.02h0ZM421.99,412.75c.89,0,1.57-.7,1.57-1.54s-.68-1.55-1.57-1.55-1.58.69-1.58,1.55.69,1.54,1.58,1.54h0ZM420.57,426.5h2.83v-12.02h-2.83v12.02h0ZM425.79,426.5h2.82v-7.36c0-1.46.95-2.53,2.31-2.53s2.13.84,2.13,2.19v7.7h2.74v-7.43c0-1.45.93-2.46,2.29-2.46s2.15.85,2.15,2.34v7.55h2.82v-8.26c0-2.4-1.55-4.02-3.92-4.02-1.74,0-3.17.93-3.74,2.43h-.07c-.44-1.54-1.66-2.43-3.34-2.43-1.59,0-2.82.86-3.33,2.18h-.06v-1.93h-2.82v12.02h0ZM446.83,412.75c.88,0,1.56-.7,1.56-1.54s-.68-1.55-1.56-1.55-1.58.69-1.58,1.55.69,1.54,1.58,1.54h0ZM445.41,426.5h2.83v-12.02h-2.83v12.02h0ZM450.39,426.5h9.58v-2.18h-6.11v-.06l6.01-7.93v-1.86h-9.43v2.18h6.2v.06l-6.26,8.08v1.71h0Z"/>
  <path class="cls-9" d="M370.32,398.9c3.99,0,6.4-1.94,6.4-4.99h0c0-2.56-1.49-3.95-4.89-4.65l-1.77-.36c-1.97-.41-2.87-1.09-2.87-2.25h0c0-1.32,1.19-2.21,3.11-2.22,1.84,0,3.1.85,3.29,2.28l.02.14h2.8v-.19c-.18-2.8-2.52-4.68-6.09-4.68s-6.06,1.95-6.07,4.83h0c0,2.45,1.59,3.95,4.81,4.62l1.76.36c2.11.44,2.96,1.1,2.96,2.32h0c0,1.42-1.29,2.34-3.36,2.34s-3.49-.87-3.71-2.28l-.02-.14h-2.8v.17c.21,2.94,2.68,4.71,6.43,4.71h0ZM383.09,398.86c.57,0,1.07-.06,1.4-.1v-2.12c-.19.01-.41.05-.68.05-1.03,0-1.55-.38-1.55-1.55v-6.35h2.24v-2.18h-2.24v-3.05h-2.87v3.05h-1.7v2.18h1.7v6.59c0,2.47,1.19,3.49,3.71,3.49h0ZM386.42,398.62h2.82v-6.98c0-1.78.96-2.79,2.56-2.79.48,0,.91.07,1.15.16v-2.55c-.22-.06-.55-.11-.9-.11-1.38,0-2.38.87-2.76,2.32h-.06v-2.08h-2.82v12.02h0ZM397.69,398.82c1.59,0,2.93-.79,3.62-2.05h.07v1.85h2.82v-8.27c0-2.42-1.94-4-4.94-4s-4.9,1.6-5.07,3.73v.14s2.61,0,2.61,0l.02-.1c.18-.89,1-1.51,2.34-1.51,1.43,0,2.22.74,2.22,1.95v.83l-3.14.19c-2.92.18-4.57,1.46-4.57,3.6v.02c0,2.14,1.62,3.63,4.03,3.63h0ZM396.48,395.08h0c0-.97.76-1.57,2.16-1.66l2.75-.17v.91c0,1.43-1.23,2.51-2.85,2.51-1.24,0-2.05-.6-2.05-1.59h0ZM410.94,398.86c.57,0,1.07-.06,1.4-.1v-2.12c-.19.01-.41.05-.68.05-1.03,0-1.55-.38-1.55-1.55v-6.35h2.23v-2.18h-2.23v-3.05h-2.87v3.05h-1.7v2.18h1.7v6.59c0,2.47,1.19,3.49,3.71,3.49h0ZM419.32,398.86c3.14,0,4.91-1.86,5.28-3.71l.03-.12h-2.64l-.02.08c-.27.8-1.19,1.55-2.6,1.55-1.84,0-3-1.25-3.04-3.36h8.42v-.91c0-3.63-2.13-6.04-5.57-6.04s-5.65,2.49-5.65,6.28h0c0,3.83,2.18,6.23,5.78,6.23h0ZM419.22,388.56c1.5,0,2.59.95,2.79,2.86h-5.64c.23-1.85,1.35-2.86,2.85-2.86h0ZM428.04,384.87c.88,0,1.58-.7,1.58-1.54s-.69-1.55-1.58-1.55-1.58.69-1.58,1.55.7,1.54,1.58,1.54h0ZM425.36,402.62c2.73,0,4.11-1.22,4.11-3.66v-12.36h-2.82v12.32c0,1.11-.44,1.48-1.61,1.48-.14,0-.26-.01-.37-.01v2.21c.17.02.46.03.7.03h0ZM433.35,384.87c.89,0,1.57-.7,1.57-1.54s-.68-1.55-1.57-1.55-1.58.69-1.58,1.55.69,1.54,1.58,1.54h0ZM431.93,398.62h2.82v-12.02h-2.82v12.02h0ZM437.28,398.62h2.83v-4.17l.95-1,3.8,5.17h3.25l-4.96-6.85,4.76-5.17h-3.27l-4.49,4.99h-.06v-9.33h-2.83v16.37h0Z"/>
  <path class="cls-9" d="M272.02,257.72c.64,0,1.14-.5,1.14-1.13s-.5-1.13-1.14-1.13-1.15.51-1.15,1.13.51,1.13,1.15,1.13h0ZM275.82,257.72c.65,0,1.14-.5,1.14-1.13s-.49-1.13-1.14-1.13-1.14.51-1.14,1.13.5,1.13,1.14,1.13h0ZM273.92,273.94c4.17,0,6.77-2.87,6.77-7.46v-.02c0-4.57-2.6-7.45-6.77-7.45s-6.77,2.86-6.77,7.45v.02c0,4.59,2.6,7.46,6.77,7.46h0ZM273.92,271.96c-2.74,0-4.48-2.11-4.48-5.48v-.02c0-3.36,1.75-5.46,4.48-5.46s4.47,2.11,4.47,5.46v.02c0,3.33-1.7,5.48-4.47,5.48h0ZM282.56,273.7h2.16v-6.14c0-1.64.98-2.74,2.5-2.74s2.24.89,2.24,2.47v6.41h2.17v-6.82c0-2.42-1.33-3.91-3.64-3.91-1.59,0-2.67.72-3.22,1.79h-.05v-1.59h-2.16v10.53h0ZM298.24,273.91c2.53,0,4.29-1.62,4.52-3.73v-.07s-2.07,0-2.07,0v.08c-.27,1.14-1.12,1.91-2.45,1.91-1.67,0-2.78-1.35-2.78-3.65h0c0-2.26,1.09-3.66,2.77-3.66,1.41,0,2.21.87,2.44,1.9l.02.08h2.06v-.07c-.19-1.98-1.83-3.72-4.54-3.72-3,0-4.96,2.11-4.96,5.44h0c0,3.38,1.92,5.49,4.99,5.49h0ZM306.82,261.56c.65,0,1.16-.51,1.16-1.15s-.51-1.14-1.16-1.14-1.16.51-1.16,1.14.51,1.15,1.16,1.15h0ZM310.77,261.56c.66,0,1.16-.51,1.16-1.15s-.5-1.14-1.16-1.14-1.16.51-1.16,1.14.52,1.15,1.16,1.15h0ZM307.89,273.91c1.6,0,2.67-.73,3.22-1.79h.05v1.58h2.17v-10.53h-2.17v6.14c0,1.64-.98,2.73-2.5,2.73s-2.24-.88-2.24-2.47v-6.41h-2.16v6.83c0,2.42,1.32,3.91,3.63,3.91h0ZM315.55,273.7h2.16v-14.44h-2.16v14.44h0ZM322.45,261.56c.65,0,1.16-.51,1.16-1.15s-.51-1.14-1.16-1.14-1.16.51-1.16,1.14.51,1.15,1.16,1.15h0ZM326.39,261.56c.66,0,1.16-.51,1.16-1.15s-.5-1.14-1.16-1.14-1.16.51-1.16,1.14.52,1.15,1.16,1.15h0ZM323.52,273.91c1.6,0,2.67-.73,3.22-1.79h.05v1.58h2.17v-10.53h-2.17v6.14c0,1.64-.98,2.73-2.5,2.73s-2.24-.88-2.24-2.47v-6.41h-2.16v6.83c0,2.42,1.32,3.91,3.63,3.91h0ZM335.6,262.01c1.95,0,3.2-1.23,3.2-3.01v-.1h-1.46v.05c0,.91-.66,1.69-1.74,1.69s-1.74-.78-1.74-1.69v-.05h-1.46v.1c0,1.78,1.25,3.01,3.2,3.01h0ZM335.71,277.41c2.97,0,4.83-1.6,4.83-4v-10.24h-2.17v1.79h-.05c-.62-1.19-1.78-1.99-3.26-1.99-2.67,0-4.43,2.07-4.43,5.37h0c0,3.29,1.74,5.37,4.38,5.37,1.51,0,2.71-.73,3.31-1.87h.05v1.44c0,1.47-.95,2.39-2.67,2.39-1.35,0-2.26-.46-2.55-1.13l-.04-.08h-2.14v.09c.33,1.61,2.04,2.86,4.74,2.86h0ZM335.62,271.95c-1.71,0-2.78-1.36-2.78-3.56h0c0-2.18,1.07-3.56,2.78-3.56s2.75,1.39,2.75,3.55h0c0,2.18-1.1,3.57-2.75,3.57h0ZM345.19,261.56c.65,0,1.16-.51,1.16-1.15s-.51-1.14-1.16-1.14-1.16.51-1.16,1.14.51,1.15,1.16,1.15h0ZM349.13,261.56c.66,0,1.16-.51,1.16-1.15s-.5-1.14-1.16-1.14-1.16.51-1.16,1.14.52,1.15,1.16,1.15h0ZM346.26,273.91c1.6,0,2.67-.73,3.22-1.79h.05v1.58h2.17v-10.53h-2.17v6.14c0,1.64-.98,2.73-2.5,2.73s-2.24-.88-2.24-2.47v-6.41h-2.16v6.83c0,2.42,1.32,3.91,3.63,3.91h0Z"/>
  <path class="cls-9" d="M267.15,233.12c.67,0,1.2-.54,1.2-1.19s-.53-1.17-1.2-1.17-1.19.53-1.19,1.17.53,1.19,1.19,1.19h0ZM266.04,249.1h2.24v-14.44h-2.24v14.44h0ZM270.69,249.1h2.16v-6.14c0-1.64.98-2.74,2.5-2.74s2.24.89,2.24,2.47v6.41h2.17v-6.82c0-2.42-1.33-3.91-3.64-3.91-1.59,0-2.67.72-3.22,1.79h-.05v-1.59h-2.16v10.53h0ZM286.37,249.31c3.01,0,4.99-2.08,4.99-5.48v-.02c0-3.37-2-5.44-5-5.44s-4.98,2.08-4.98,5.44v.02c0,3.38,1.97,5.48,4.99,5.48h0ZM286.38,247.5c-1.69,0-2.79-1.33-2.79-3.66v-.02c0-2.3,1.11-3.63,2.77-3.63s2.79,1.33,2.79,3.63v.02c0,2.32-1.08,3.66-2.77,3.66h0ZM295.54,249.1h2.32l3.77-10.53h-2.25l-2.64,8.42h-.05l-2.64-8.42h-2.3l3.79,10.53h0ZM305.75,249.29c1.39,0,2.61-.72,3.22-1.85h.04v1.66h2.17v-7.26c0-2.11-1.63-3.47-4.2-3.47s-4.16,1.39-4.31,3.2v.11s2.03,0,2.03,0l.02-.09c.18-.84.95-1.43,2.2-1.43,1.34,0,2.09.7,2.09,1.86v.79l-2.86.17c-2.49.15-3.91,1.27-3.91,3.1v.02c0,1.89,1.41,3.18,3.51,3.18h0ZM304.42,246.06v-.02c0-.89.72-1.46,2.02-1.54l2.57-.16v.82c0,1.37-1.15,2.4-2.67,2.4-1.16,0-1.92-.58-1.92-1.5h0ZM317.22,249.31c2.48,0,4.28-1.32,4.28-3.24h0c0-1.52-.82-2.37-2.97-2.87l-1.71-.39c-1.13-.27-1.56-.71-1.56-1.36h0c0-.85.73-1.4,1.89-1.4,1.22,0,1.94.64,2.07,1.56v.07h2.04v-.12c-.12-1.79-1.62-3.18-4.11-3.18s-4.06,1.29-4.06,3.17h0c0,1.54.99,2.5,2.99,2.96l1.72.39c1.13.27,1.51.66,1.51,1.34h0c0,.86-.78,1.4-2.08,1.4s-2.05-.57-2.25-1.54l-.02-.1h-2.14v.09c.23,1.92,1.77,3.22,4.4,3.22h0ZM324.39,252.61c2.06,0,3.16-.84,3.94-3.02l3.92-11.02h-2.28l-2.65,8.57h-.07l-2.65-8.57h-2.34l3.83,10.54-.18.5c-.36,1.02-.92,1.29-1.94,1.29-.29,0-.54-.04-.71-.08v1.69c.26.05.71.1,1.13.1h0ZM337.65,249.31c3.01,0,4.99-2.08,4.99-5.48v-.02c0-3.37-2-5.44-5-5.44s-4.98,2.08-4.98,5.44v.02c0,3.38,1.97,5.48,5,5.48h0ZM337.66,247.5c-1.69,0-2.79-1.33-2.79-3.66v-.02c0-2.3,1.11-3.63,2.77-3.63s2.79,1.33,2.79,3.63v.02c0,2.32-1.08,3.66-2.77,3.66h0ZM344.31,249.1h2.16v-6.14c0-1.64.98-2.74,2.5-2.74s2.24.89,2.24,2.47v6.41h2.17v-6.82c0-2.42-1.33-3.91-3.64-3.91-1.59,0-2.67.72-3.22,1.79h-.05v-1.59h-2.16v10.53h0Z"/>
  <path class="cls-9" d="M263.26,224.5h2.24v-12.51h4.41v-1.93h-11.08v1.93h4.42v12.51h0ZM273.4,224.71c2.55,0,4.17-1.52,4.51-3.19l.02-.11h-2.05l-.03.08c-.27.79-1.12,1.45-2.4,1.45-1.72,0-2.81-1.16-2.85-3.15h7.46v-.73c0-3.16-1.81-5.29-4.76-5.29s-4.85,2.2-4.85,5.49h0c0,3.33,1.87,5.45,4.96,5.45h0ZM273.3,215.55c1.41,0,2.43.89,2.61,2.71h-5.28c.19-1.76,1.27-2.71,2.67-2.71h0ZM279.85,224.5h2.16v-3.79l.9-.89,3.57,4.68h2.51l-4.49-5.98,4.32-4.54h-2.54l-4.22,4.49h-.05v-8.41h-2.16v14.44h0ZM290.07,224.5h2.16v-6.14c0-1.64.98-2.74,2.5-2.74s2.24.89,2.24,2.47v6.41h2.17v-6.82c0-2.42-1.33-3.91-3.64-3.91-1.59,0-2.67.72-3.22,1.79h-.05v-1.59h-2.16v10.53h0ZM305.75,224.71c3.01,0,4.99-2.08,4.99-5.47v-.02c0-3.37-2-5.45-5.01-5.45s-4.98,2.08-4.98,5.45v.02c0,3.38,1.97,5.47,4.99,5.47h0ZM305.76,222.9c-1.69,0-2.79-1.33-2.79-3.66v-.02c0-2.3,1.11-3.63,2.77-3.63s2.79,1.33,2.79,3.63v.02c0,2.32-1.08,3.66-2.77,3.66h0ZM312.5,224.5h2.16v-14.44h-2.16v14.44h0ZM321.41,224.71c3.01,0,4.99-2.08,4.99-5.47v-.02c0-3.37-2-5.45-5.01-5.45s-4.98,2.08-4.98,5.45v.02c0,3.38,1.97,5.47,4.99,5.47h0ZM321.42,222.9c-1.69,0-2.79-1.33-2.79-3.66v-.02c0-2.3,1.11-3.63,2.77-3.63s2.79,1.33,2.79,3.63v.02c0,2.32-1.08,3.66-2.77,3.66h0ZM329.22,212.35c.71,0,1.26-.56,1.26-1.24s-.55-1.25-1.26-1.25-1.26.56-1.26,1.25.56,1.24,1.26,1.24h0ZM326.86,228.03c2.33,0,3.44-1.02,3.44-3.16v-10.89h-2.16v10.87c0,1.06-.4,1.4-1.47,1.4-.11,0-.21,0-.31,0v1.77c.14.01.33.02.5.02h0ZM333.71,212.35c.71,0,1.26-.56,1.26-1.24s-.55-1.25-1.26-1.25-1.26.56-1.26,1.25.56,1.24,1.26,1.24h0ZM332.63,224.5h2.16v-10.53h-2.16v10.53h0ZM344.07,224.5h2.32l3.77-10.53h-2.25l-2.64,8.42h-.05l-2.64-8.42h-2.3l3.79,10.53h0ZM355.51,224.71c2.55,0,4.17-1.52,4.51-3.19l.02-.11h-2.05l-.03.08c-.27.79-1.12,1.45-2.4,1.45-1.72,0-2.81-1.16-2.85-3.15h7.46v-.73c0-3.16-1.81-5.29-4.76-5.29s-4.86,2.2-4.86,5.49h0c0,3.33,1.87,5.45,4.97,5.45h0ZM355.41,215.55c1.41,0,2.43.89,2.61,2.71h-5.29c.19-1.76,1.27-2.71,2.67-2.71h0Z"/>
  <path class="cls-9" d="M248.39,199.91h5.09c4.3,0,6.84-2.68,6.84-7.25v-.02c0-4.54-2.55-7.18-6.84-7.18h-5.09v14.44h0ZM250.63,197.96v-10.57h2.64c3.04,0,4.75,1.87,4.75,5.26v.02c0,3.41-1.69,5.28-4.75,5.28h-2.64ZM266.69,200.12c2.55,0,4.17-1.52,4.51-3.19l.02-.11h-2.05l-.03.08c-.27.79-1.12,1.45-2.4,1.45-1.72,0-2.81-1.16-2.85-3.15h7.46v-.73c0-3.16-1.81-5.29-4.76-5.29s-4.85,2.2-4.85,5.49h0c0,3.33,1.87,5.45,4.96,5.45h0ZM266.59,190.95c1.41,0,2.43.89,2.61,2.71h-5.28c.19-1.76,1.27-2.71,2.67-2.71h0ZM277.52,188.21c1.95,0,3.2-1.23,3.2-3.01v-.1h-1.46v.05c0,.91-.66,1.69-1.74,1.69s-1.74-.78-1.74-1.69v-.05h-1.46v.1c0,1.78,1.25,3.01,3.2,3.01h0ZM277.63,203.62c2.97,0,4.83-1.6,4.83-4v-10.24h-2.17v1.79h-.05c-.62-1.19-1.78-1.99-3.26-1.99-2.67,0-4.43,2.07-4.43,5.38h0c0,3.29,1.74,5.37,4.38,5.37,1.51,0,2.71-.73,3.31-1.87h.05v1.44c0,1.47-.95,2.39-2.67,2.39-1.35,0-2.26-.46-2.55-1.13l-.04-.08h-2.14v.09c.33,1.61,2.04,2.86,4.74,2.86h0ZM277.54,198.15c-1.71,0-2.78-1.36-2.78-3.56h0c0-2.18,1.07-3.56,2.78-3.56s2.75,1.39,2.75,3.55h0c0,2.18-1.1,3.57-2.75,3.57h0ZM289.09,200.12c2.55,0,4.17-1.52,4.51-3.19l.02-.11h-2.05l-.03.08c-.27.79-1.12,1.45-2.4,1.45-1.72,0-2.81-1.16-2.85-3.15h7.46v-.73c0-3.16-1.81-5.29-4.76-5.29s-4.85,2.2-4.85,5.49h0c0,3.33,1.87,5.45,4.96,5.45h0ZM288.99,190.95c1.41,0,2.43.89,2.61,2.71h-5.28c.19-1.76,1.27-2.71,2.67-2.71h0ZM295.42,199.91h2.16v-6.28c0-1.57.86-2.48,2.25-2.48.42,0,.8.05.97.12v-2.01c-.17-.03-.44-.08-.75-.08-1.2,0-2.08.77-2.42,2h-.05v-1.8h-2.16v10.53h0ZM310.57,199.91h2.24v-5.91l5.1-8.53h-2.49l-3.68,6.38h-.07l-3.68-6.38h-2.49l5.08,8.53v5.91h0ZM320.28,200.1c1.39,0,2.61-.72,3.22-1.85h.04v1.66h2.17v-7.26c0-2.11-1.63-3.47-4.2-3.47s-4.16,1.39-4.31,3.2v.11s2.03,0,2.03,0l.02-.09c.18-.84.95-1.43,2.2-1.43,1.34,0,2.09.7,2.09,1.86v.79l-2.86.17c-2.49.15-3.91,1.27-3.91,3.1v.02c0,1.89,1.41,3.18,3.51,3.18h0ZM318.95,196.86v-.02c0-.89.72-1.46,2.02-1.54l2.57-.16v.82c0,1.37-1.15,2.4-2.67,2.4-1.16,0-1.92-.58-1.92-1.5h0ZM327.81,199.91h2.16v-6.28c0-1.57.86-2.48,2.25-2.48.42,0,.8.05.97.12v-2.01c-.17-.03-.44-.08-.75-.08-1.2,0-2.08.77-2.42,2h-.05v-1.8h-2.16v10.53h0ZM337.41,200.1c1.39,0,2.61-.72,3.22-1.85h.04v1.66h2.17v-7.26c0-2.11-1.63-3.47-4.2-3.47s-4.16,1.39-4.31,3.2v.11s2.03,0,2.03,0l.02-.09c.18-.84.95-1.43,2.2-1.43,1.34,0,2.09.7,2.09,1.86v.79l-2.86.17c-2.49.15-3.91,1.27-3.91,3.1v.02c0,1.89,1.41,3.18,3.51,3.18h0ZM336.07,196.86v-.02c0-.89.72-1.46,2.02-1.54l2.57-.16v.82c0,1.37-1.15,2.4-2.67,2.4-1.16,0-1.92-.58-1.92-1.5h0ZM348.63,200.12c.44,0,.85-.05,1.1-.09v-1.67c-.16.02-.35.04-.58.04-.91,0-1.39-.32-1.39-1.39v-5.91h1.97v-1.72h-1.97v-2.74h-2.21v2.74h-1.51v1.72h1.51v6.04c0,2.1,1,2.98,3.08,2.98h0ZM354.44,200.1c1.39,0,2.61-.72,3.22-1.85h.04v1.66h2.17v-7.26c0-2.11-1.63-3.47-4.2-3.47s-4.16,1.39-4.31,3.2v.11s2.03,0,2.03,0l.02-.09c.18-.84.95-1.43,2.2-1.43,1.34,0,2.09.7,2.09,1.86v.79l-2.86.17c-2.49.15-3.91,1.27-3.91,3.1v.02c0,1.89,1.41,3.18,3.51,3.18h0ZM353.11,196.86v-.02c0-.89.72-1.46,2.02-1.54l2.57-.16v.82c0,1.37-1.15,2.4-2.67,2.4-1.16,0-1.92-.58-1.92-1.5h0ZM361.97,199.91h2.16v-6.14c0-1.64.98-2.74,2.5-2.74s2.24.89,2.24,2.47v6.41h2.17v-6.82c0-2.42-1.33-3.91-3.64-3.91-1.59,0-2.67.72-3.22,1.79h-.05v-1.59h-2.16v10.53h0Z"/>
  <path class="cls-9" d="M164.89,405.23h2.24v-4.93h3.13c2.83,0,4.79-1.93,4.79-4.75v-.02c0-2.83-1.96-4.73-4.79-4.73h-5.38v14.44h0ZM169.71,392.68c1.95,0,3.07,1.05,3.07,2.85v.02c0,1.81-1.12,2.86-3.07,2.86h-2.57v-5.73h2.57ZM180.81,405.44c2.55,0,4.17-1.52,4.51-3.19l.02-.11h-2.05l-.03.08c-.27.79-1.12,1.45-2.4,1.45-1.72,0-2.81-1.16-2.85-3.15h7.46v-.73c0-3.16-1.81-5.28-4.76-5.28s-4.85,2.2-4.85,5.49h0c0,3.33,1.87,5.44,4.96,5.44h0ZM180.71,396.27c1.41,0,2.43.89,2.61,2.71h-5.28c.19-1.76,1.27-2.71,2.67-2.71h0ZM187.13,405.23h2.16v-6.27c0-1.57.86-2.48,2.25-2.48.42,0,.8.05.97.12v-2.01c-.17-.03-.44-.08-.75-.08-1.2,0-2.08.77-2.42,2h-.05v-1.8h-2.16v10.53h0ZM194.51,405.23h2.17v-8.81h2.1v-1.72h-2.14v-1.08c0-.93.46-1.4,1.43-1.4.27,0,.54.02.75.05v-1.6c-.29-.05-.77-.09-1.21-.09-2.14,0-3.1.96-3.1,3v1.12h-1.45v1.72h1.45v8.81h0ZM204.1,405.44c3.01,0,4.99-2.08,4.99-5.47v-.02c0-3.37-2-5.44-5-5.44s-4.99,2.08-4.99,5.44v.02c0,3.38,1.97,5.47,5,5.47h0ZM204.11,403.63c-1.69,0-2.79-1.33-2.79-3.66v-.02c0-2.3,1.11-3.63,2.77-3.63s2.79,1.33,2.79,3.63v.02c0,2.32-1.08,3.66-2.77,3.66h0ZM210.76,405.23h2.16v-6.27c0-1.57.86-2.48,2.25-2.48.42,0,.8.05.97.12v-2.01c-.17-.03-.44-.08-.75-.08-1.2,0-2.08.77-2.42,2h-.05v-1.8h-2.16v10.53h0ZM217.49,405.23h2.16v-6.51c0-1.36.91-2.37,2.19-2.37s1.99.78,1.99,2v6.88h2.12v-6.59c0-1.33.89-2.29,2.17-2.29s2.01.79,2.01,2.16v6.72h2.17v-7.24c0-2.11-1.36-3.49-3.44-3.49-1.5,0-2.74.79-3.28,2.07h-.05c-.42-1.32-1.48-2.07-2.93-2.07s-2.45.73-2.9,1.83h-.05v-1.63h-2.16v10.53h0ZM237.49,405.42c1.39,0,2.61-.72,3.22-1.85h.04v1.66h2.17v-7.26c0-2.11-1.63-3.47-4.2-3.47s-4.16,1.39-4.31,3.2v.11s2.03,0,2.03,0l.02-.09c.18-.84.95-1.43,2.2-1.43,1.34,0,2.09.7,2.09,1.86v.79l-2.86.17c-2.49.15-3.91,1.27-3.91,3.1v.02c0,1.89,1.41,3.18,3.51,3.18h0ZM236.16,402.19v-.02c0-.89.72-1.46,2.02-1.54l2.57-.16v.82c0,1.37-1.15,2.4-2.67,2.4-1.16,0-1.92-.58-1.92-1.5h0ZM245.01,405.23h2.16v-6.14c0-1.64.98-2.74,2.5-2.74s2.24.89,2.24,2.47v6.41h2.17v-6.82c0-2.42-1.33-3.91-3.64-3.91-1.59,0-2.67.72-3.22,1.79h-.05v-1.59h-2.16v10.53h0ZM260.12,405.44c2.48,0,4.28-1.32,4.28-3.24h0c0-1.52-.82-2.37-2.97-2.87l-1.71-.39c-1.13-.27-1.56-.71-1.56-1.36h0c0-.85.73-1.4,1.89-1.4,1.22,0,1.94.64,2.07,1.56v.07h2.04v-.12c-.12-1.79-1.62-3.18-4.11-3.18s-4.06,1.29-4.06,3.17h0c0,1.54.99,2.5,2.99,2.96l1.72.39c1.13.27,1.51.66,1.51,1.34h0c0,.86-.78,1.4-2.08,1.4s-2.05-.57-2.25-1.54l-.02-.1h-2.14v.09c.23,1.92,1.77,3.22,4.4,3.22h0Z"/>
  <path class="cls-9" d="M178.93,380.63h2.24v-6.05h6.21v-1.89h-6.21v-4.57h6.78v-1.93h-9.02v14.44h0ZM190.81,368.48c.71,0,1.26-.56,1.26-1.24s-.55-1.25-1.26-1.25-1.26.56-1.26,1.25.56,1.24,1.26,1.24h0ZM189.73,380.63h2.16v-10.53h-2.16v10.53h0ZM194.12,380.63h2.16v-6.14c0-1.64.98-2.74,2.5-2.74s2.24.89,2.24,2.47v6.41h2.17v-6.82c0-2.42-1.33-3.91-3.64-3.91-1.59,0-2.67.72-3.22,1.79h-.05v-1.59h-2.16v10.53h0ZM208.37,380.82c1.39,0,2.61-.72,3.22-1.85h.04v1.66h2.17v-7.26c0-2.11-1.63-3.47-4.2-3.47s-4.16,1.39-4.31,3.2v.11s2.03,0,2.03,0l.02-.09c.18-.84.95-1.43,2.2-1.43,1.34,0,2.09.7,2.09,1.86v.79l-2.86.17c-2.49.15-3.91,1.27-3.91,3.1v.02c0,1.89,1.41,3.18,3.51,3.18h0ZM207.04,377.59v-.02c0-.89.72-1.46,2.02-1.54l2.57-.16v.82c0,1.37-1.15,2.4-2.67,2.4-1.16,0-1.92-.58-1.92-1.5h0ZM215.9,380.63h2.16v-6.14c0-1.64.98-2.74,2.5-2.74s2.24.89,2.24,2.47v6.41h2.17v-6.82c0-2.42-1.33-3.91-3.64-3.91-1.59,0-2.67.72-3.22,1.79h-.05v-1.59h-2.16v10.53h0ZM231,380.84c2.48,0,4.28-1.32,4.28-3.24h0c0-1.52-.82-2.37-2.97-2.87l-1.71-.39c-1.13-.27-1.56-.71-1.56-1.36h0c0-.85.73-1.4,1.89-1.4,1.22,0,1.94.64,2.07,1.56v.07h2.04v-.12c-.12-1.79-1.62-3.18-4.11-3.18s-4.06,1.29-4.06,3.17h0c0,1.54.99,2.5,2.99,2.96l1.72.39c1.13.27,1.51.66,1.51,1.34h0c0,.86-.78,1.4-2.08,1.4s-2.05-.57-2.25-1.54l-.02-.1h-2.14v.09c.23,1.92,1.77,3.22,4.4,3.22h0ZM240.05,380.82c1.39,0,2.61-.72,3.22-1.85h.04v1.66h2.17v-7.26c0-2.11-1.63-3.47-4.2-3.47s-4.16,1.39-4.31,3.2v.11s2.03,0,2.03,0l.02-.09c.18-.84.95-1.43,2.2-1.43,1.34,0,2.09.7,2.09,1.86v.79l-2.86.17c-2.49.15-3.91,1.27-3.91,3.1v.02c0,1.89,1.41,3.18,3.51,3.18h0ZM238.72,377.59v-.02c0-.89.72-1.46,2.02-1.54l2.57-.16v.82c0,1.37-1.15,2.4-2.67,2.4-1.16,0-1.92-.58-1.92-1.5h0ZM247.66,380.63h2.16v-14.44h-2.16v14.44h0Z"/>
  <path class="cls-9" d="M161.69,356.27c3.42,0,5.51-1.67,5.51-4.3h0c0-2.24-1.28-3.45-4.26-4.08l-1.58-.33c-1.8-.39-2.62-1.05-2.62-2.13h0c0-1.27,1.14-2.12,2.93-2.13,1.71,0,2.87.81,3.07,2.15v.14h2.19v-.17c-.16-2.42-2.22-4.06-5.24-4.06s-5.22,1.69-5.23,4.15h0c0,2.15,1.37,3.45,4.2,4.05l1.57.33c1.91.42,2.7,1.05,2.7,2.21h0c0,1.36-1.22,2.23-3.15,2.23s-3.26-.83-3.46-2.16l-.02-.13h-2.18v.15c.19,2.54,2.33,4.08,5.57,4.08h0ZM171.46,343.89c.65,0,1.16-.51,1.16-1.15s-.51-1.14-1.16-1.14-1.16.51-1.16,1.14.51,1.15,1.16,1.15h0ZM175.4,343.89c.66,0,1.16-.51,1.16-1.15s-.5-1.14-1.16-1.14-1.16.51-1.16,1.14.52,1.15,1.16,1.15h0ZM172.53,356.24c1.6,0,2.67-.73,3.22-1.79h.05v1.58h2.17v-10.53h-2.17v6.15c0,1.64-.98,2.73-2.5,2.73s-2.24-.88-2.24-2.47v-6.4h-2.16v6.83c0,2.42,1.32,3.91,3.63,3.91h0ZM180.11,356.03h2.16v-6.28c0-1.57.86-2.48,2.25-2.48.42,0,.8.05.97.12v-2.01c-.17-.03-.44-.08-.75-.08-1.2,0-2.08.77-2.42,2h-.05v-1.8h-2.16v10.53h0ZM190.32,356.24c1.51,0,2.67-.76,3.3-1.99h.04v1.78h2.17v-14.44h-2.17v5.71h-.04c-.63-1.24-1.83-1.99-3.32-1.99-2.64,0-4.38,2.1-4.38,5.45h0c0,3.36,1.72,5.49,4.4,5.49h0ZM190.89,354.38c-1.71,0-2.76-1.37-2.76-3.61h0c0-2.23,1.06-3.61,2.76-3.61s2.78,1.42,2.78,3.6h0c0,2.2-1.15,3.62-2.78,3.62h0ZM200.55,343.89c.65,0,1.16-.51,1.16-1.15s-.51-1.14-1.16-1.14-1.16.51-1.16,1.14.51,1.15,1.16,1.15h0ZM204.5,343.89c.66,0,1.16-.51,1.16-1.15s-.5-1.14-1.16-1.14-1.16.51-1.16,1.14.52,1.15,1.16,1.15h0ZM201.63,356.24c1.6,0,2.67-.73,3.22-1.79h.05v1.58h2.17v-10.53h-2.17v6.15c0,1.64-.98,2.73-2.5,2.73s-2.24-.88-2.24-2.47v-6.4h-2.16v6.83c0,2.42,1.32,3.91,3.63,3.91h0ZM209.2,356.03h2.16v-6.28c0-1.57.86-2.48,2.25-2.48.42,0,.8.05.97.12v-2.01c-.17-.03-.44-.08-.75-.08-1.2,0-2.08.77-2.42,2h-.05v-1.8h-2.16v10.53h0ZM218.44,343.89c.65,0,1.16-.51,1.16-1.15s-.51-1.14-1.16-1.14-1.16.51-1.16,1.14.51,1.15,1.16,1.15h0ZM222.38,343.89c.66,0,1.16-.51,1.16-1.15s-.5-1.14-1.16-1.14-1.16.51-1.16,1.14.52,1.15,1.16,1.15h0ZM219.51,356.24c1.6,0,2.67-.73,3.22-1.79h.05v1.58h2.17v-10.53h-2.17v6.15c0,1.64-.98,2.73-2.5,2.73s-2.24-.88-2.24-2.47v-6.4h-2.16v6.83c0,2.42,1.32,3.91,3.63,3.91h0ZM227.17,356.03h2.16v-14.44h-2.16v14.44h0ZM236.05,356.24c2.55,0,4.17-1.52,4.51-3.19l.02-.11h-2.05l-.03.08c-.27.79-1.12,1.45-2.4,1.45-1.72,0-2.81-1.16-2.85-3.15h7.46v-.73c0-3.16-1.81-5.28-4.76-5.28s-4.85,2.2-4.85,5.49h0c0,3.33,1.87,5.45,4.96,5.45h0ZM235.95,347.07c1.41,0,2.43.89,2.61,2.71h-5.28c.19-1.76,1.27-2.71,2.67-2.71h0ZM247.97,356.24c2.67,0,4.4-2.12,4.4-5.47h0c0-3.36-1.74-5.46-4.38-5.46-1.49,0-2.69.75-3.32,1.99h-.05v-5.71h-2.16v14.44h2.16v-1.78h.05c.62,1.23,1.79,1.99,3.3,1.99h0ZM247.4,354.38c-1.64,0-2.79-1.42-2.79-3.61h0c0-2.19,1.16-3.61,2.79-3.61s2.76,1.38,2.76,3.6h0c0,2.25-1.06,3.62-2.76,3.62h0ZM255.21,343.88c.71,0,1.26-.56,1.26-1.24s-.55-1.25-1.26-1.25-1.26.56-1.26,1.25.56,1.24,1.26,1.24h0ZM254.13,356.03h2.16v-10.53h-2.16v10.53h0ZM258.61,356.03h2.16v-14.44h-2.16v14.44h0ZM264.16,343.88c.71,0,1.26-.56,1.26-1.24s-.55-1.25-1.26-1.25-1.26.56-1.26,1.25.56,1.24,1.26,1.24h0ZM263.08,356.03h2.16v-10.53h-2.16v10.53h0ZM267.47,356.03h2.16v-6.28c0-1.57.86-2.48,2.25-2.48.42,0,.8.05.97.12v-2.01c-.17-.03-.44-.08-.75-.08-1.2,0-2.08.77-2.42,2h-.05v-1.8h-2.16v10.53h0Z"/>
  <path class="cls-9" d="M183.42,331.67c3.91,0,6.23-2.33,6.23-6.25v-1.48h-6.01v1.83h3.79v.24c-.03,2.19-1.65,3.67-3.99,3.67-2.75,0-4.47-2.1-4.47-5.56h0c0-3.39,1.67-5.4,4.43-5.4,1.88,0,3.19.97,3.8,2.64l.03.11h2.3l-.04-.18c-.6-2.6-2.72-4.55-6.1-4.55-4.1,0-6.71,2.83-6.71,7.39h0c0,4.66,2.6,7.54,6.74,7.54h0ZM194.09,319.29c.65,0,1.16-.51,1.16-1.15s-.51-1.14-1.16-1.14-1.16.51-1.16,1.14.51,1.15,1.16,1.15h0ZM198.03,319.29c.66,0,1.16-.51,1.16-1.15s-.5-1.14-1.16-1.14-1.16.51-1.16,1.14.52,1.15,1.16,1.15h0ZM195.16,331.64c1.6,0,2.67-.73,3.22-1.79h.05v1.58h2.17v-10.53h-2.17v6.14c0,1.64-.98,2.73-2.5,2.73s-2.24-.88-2.24-2.47v-6.4h-2.16v6.83c0,2.42,1.32,3.91,3.63,3.91h0ZM207.13,336.07c1.23,0,2.25-.69,2.25-1.88v-.02c0-1.15-.72-1.75-1.8-1.83l.49-.75c2.09-.31,3.51-1.8,3.71-3.67v-.07s-2.07,0-2.07,0v.08c-.27,1.14-1.12,1.91-2.45,1.91-1.67,0-2.78-1.35-2.78-3.65h0c0-2.26,1.09-3.66,2.77-3.66,1.41,0,2.21.87,2.44,1.9l.02.08h2.06v-.07c-.19-1.98-1.83-3.72-4.54-3.72-3,0-4.96,2.11-4.96,5.44h0c0,3.16,1.68,5.22,4.4,5.47l-.64.98v.88h.43c.76,0,1.15.23,1.15.69v.02c0,.42-.45.58-.98.58-.42,0-.83-.08-1.06-.16v1.21c.31.14.91.25,1.56.25h0ZM213.41,331.43h2.16v-14.44h-2.16v14.44h0ZM220.3,319.29c.65,0,1.16-.51,1.16-1.15s-.51-1.14-1.16-1.14-1.16.51-1.16,1.14.51,1.15,1.16,1.15h0ZM224.25,319.29c.66,0,1.16-.51,1.16-1.15s-.5-1.14-1.16-1.14-1.16.51-1.16,1.14.52,1.15,1.16,1.15h0ZM221.37,331.64c1.6,0,2.67-.73,3.22-1.79h.05v1.58h2.17v-10.53h-2.17v6.14c0,1.64-.98,2.73-2.5,2.73s-2.24-.88-2.24-2.47v-6.4h-2.16v6.83c0,2.42,1.32,3.91,3.63,3.91h0ZM236,331.43h2.32l3.77-10.53h-2.25l-2.64,8.42h-.05l-2.64-8.42h-2.3l3.79,10.53h0ZM247.44,331.64c2.55,0,4.17-1.52,4.51-3.19l.02-.11h-2.05l-.03.08c-.27.79-1.12,1.45-2.4,1.45-1.72,0-2.81-1.16-2.85-3.15h7.46v-.73c0-3.16-1.81-5.29-4.76-5.29s-4.85,2.2-4.85,5.49h0c0,3.33,1.87,5.45,4.96,5.45h0ZM247.34,322.48c1.41,0,2.43.89,2.61,2.71h-5.29c.19-1.76,1.27-2.71,2.67-2.71h0Z"/>
  <path class="cls-9" d="M463.58,249.1h5.79c3.07,0,4.92-1.54,4.92-4.07v-.02c0-1.9-1.33-3.31-3.38-3.52v-.04c1.52-.22,2.67-1.63,2.67-3.15v-.02c0-2.18-1.68-3.61-4.24-3.61h-5.76v14.44h0ZM468.8,236.49c1.62,0,2.55.73,2.55,2.05v.02c0,1.45-1.07,2.25-3.05,2.25h-2.48v-4.32h2.98ZM468.76,242.55c2.14,0,3.24.8,3.24,2.35v.02c0,1.54-1.08,2.35-3.09,2.35h-3.09v-4.72h2.94ZM479.06,249.29c1.39,0,2.61-.72,3.22-1.85h.04v1.66h2.17v-7.26c0-2.11-1.63-3.47-4.2-3.47s-4.16,1.39-4.31,3.2v.11s2.03,0,2.03,0l.02-.09c.18-.84.95-1.43,2.2-1.43,1.34,0,2.09.7,2.09,1.86v.79l-2.86.17c-2.49.15-3.91,1.27-3.91,3.1v.02c0,1.89,1.41,3.18,3.51,3.18h0ZM477.73,246.06v-.02c0-.89.72-1.46,2.02-1.54l2.57-.16v.82c0,1.37-1.15,2.4-2.67,2.4-1.16,0-1.92-.58-1.92-1.5h0ZM486.59,249.1h2.16v-6.14c0-1.64.98-2.74,2.5-2.74s2.24.89,2.24,2.47v6.41h2.17v-6.82c0-2.42-1.33-3.91-3.64-3.91-1.59,0-2.67.72-3.22,1.79h-.05v-1.59h-2.16v10.53h0ZM497.87,249.1h2.16v-3.79l.9-.89,3.57,4.68h2.51l-4.49-5.98,4.32-4.54h-2.54l-4.22,4.49h-.05v-8.41h-2.16v14.44h0ZM511.16,249.29c1.39,0,2.61-.72,3.22-1.85h.04v1.66h2.17v-7.26c0-2.11-1.63-3.47-4.2-3.47s-4.16,1.39-4.31,3.2v.11s2.03,0,2.03,0l.02-.09c.18-.84.95-1.43,2.2-1.43,1.34,0,2.09.7,2.09,1.86v.79l-2.86.17c-2.49.15-3.91,1.27-3.91,3.1v.02c0,1.89,1.41,3.18,3.51,3.18h0ZM509.83,246.06v-.02c0-.89.72-1.46,2.02-1.54l2.57-.16v.82c0,1.37-1.15,2.4-2.67,2.4-1.16,0-1.92-.58-1.92-1.5h0ZM523.21,249.31c2.53,0,4.29-1.62,4.52-3.73v-.07s-2.07,0-2.07,0v.08c-.27,1.14-1.12,1.91-2.45,1.91-1.67,0-2.78-1.35-2.78-3.65h0c0-2.26,1.09-3.66,2.77-3.66,1.41,0,2.21.87,2.44,1.9l.02.08h2.06v-.07c-.19-1.98-1.83-3.72-4.54-3.72-3,0-4.96,2.11-4.96,5.44h0c0,3.38,1.92,5.5,4.99,5.5h0ZM529.37,249.1h2.16v-10.53h-2.16v10.53h0ZM533.84,249.1h2.16v-14.44h-2.16v14.44h0ZM538.32,249.1h2.16v-10.53h-2.16v10.53h0ZM542.83,249.1h2.16v-3.79l.9-.89,3.57,4.68h2.51l-4.49-5.98,4.32-4.54h-2.54l-4.22,4.49h-.05v-8.41h-2.16v14.44h0Z"/>
  <path class="cls-9" d="M440.5,224.5h9.17v-1.93h-6.93v-4.48h6.56v-1.88h-6.56v-4.21h6.93v-1.93h-9.17v14.44h0ZM455.41,224.71c.44,0,.85-.05,1.1-.09v-1.67c-.16.02-.35.04-.58.04-.91,0-1.39-.32-1.39-1.39v-5.91h1.97v-1.72h-1.97v-2.74h-2.21v2.74h-1.51v1.72h1.51v6.04c0,2.1,1,2.98,3.08,2.98h0ZM459.46,212.35c.71,0,1.26-.56,1.26-1.24s-.55-1.25-1.26-1.25-1.26.56-1.26,1.25.56,1.24,1.26,1.24h0ZM458.38,224.5h2.16v-10.53h-2.16v10.53h0ZM462.89,224.5h2.16v-3.79l.9-.89,3.57,4.68h2.51l-4.49-5.98,4.32-4.54h-2.54l-4.22,4.49h-.05v-8.41h-2.16v14.44h0ZM480.16,224.5h2.32l3.77-10.53h-2.25l-2.64,8.42h-.05l-2.64-8.42h-2.3l3.79,10.53h0ZM491.6,224.71c2.55,0,4.17-1.52,4.51-3.19l.02-.11h-2.05l-.03.08c-.27.79-1.12,1.45-2.4,1.45-1.72,0-2.81-1.16-2.85-3.15h7.46v-.73c0-3.16-1.81-5.29-4.76-5.29s-4.85,2.2-4.85,5.49h0c0,3.33,1.87,5.45,4.96,5.45h0ZM491.5,215.55c1.41,0,2.43.89,2.61,2.71h-5.28c.19-1.76,1.27-2.71,2.67-2.71h0ZM507.26,224.74c3.42,0,5.51-1.67,5.51-4.3h0c0-2.24-1.28-3.45-4.26-4.08l-1.58-.33c-1.8-.39-2.62-1.05-2.62-2.13h0c0-1.27,1.14-2.12,2.93-2.13,1.71,0,2.87.81,3.07,2.15v.14h2.19v-.17c-.16-2.42-2.22-4.06-5.24-4.06s-5.22,1.69-5.23,4.15h0c0,2.15,1.37,3.45,4.2,4.05l1.57.33c1.91.42,2.7,1.05,2.7,2.21h0c0,1.36-1.22,2.23-3.15,2.23s-3.26-.83-3.46-2.16l-.02-.13h-2.18v.15c.19,2.54,2.33,4.08,5.58,4.08h0ZM519.04,224.71c3.01,0,4.99-2.08,4.99-5.47v-.02c0-3.37-2-5.45-5-5.45s-4.99,2.08-4.99,5.45v.02c0,3.38,1.97,5.47,5,5.47h0ZM519.05,222.9c-1.69,0-2.79-1.33-2.79-3.66v-.02c0-2.3,1.11-3.63,2.77-3.63s2.79,1.33,2.79,3.63v.02c0,2.32-1.08,3.66-2.77,3.66h0ZM525.71,224.5h2.16v-6.28c0-1.57.86-2.48,2.25-2.48.42,0,.8.05.97.12v-2.01c-.17-.03-.44-.08-.75-.08-1.2,0-2.08.77-2.42,2h-.05v-1.8h-2.16v10.53h0ZM536.02,224.71c1.6,0,2.67-.73,3.22-1.79h.05v1.58h2.17v-10.53h-2.17v6.15c0,1.64-.98,2.73-2.5,2.73s-2.24-.88-2.24-2.47v-6.41h-2.16v6.83c0,2.42,1.32,3.91,3.63,3.91h0ZM543.6,224.5h2.16v-6.51c0-1.36.91-2.37,2.19-2.37s1.99.78,1.99,2v6.88h2.12v-6.59c0-1.33.89-2.29,2.17-2.29s2.01.79,2.01,2.16v6.72h2.17v-7.24c0-2.11-1.36-3.49-3.44-3.49-1.5,0-2.74.79-3.28,2.07h-.05c-.42-1.32-1.48-2.07-2.93-2.07s-2.45.73-2.9,1.83h-.05v-1.63h-2.16v10.53h0ZM560.58,224.5h2.16v-14.44h-2.16v14.44h0ZM568.55,224.71c1.6,0,2.67-.73,3.22-1.79h.05v1.58h2.17v-10.53h-2.17v6.15c0,1.64-.98,2.73-2.5,2.73s-2.24-.88-2.24-2.47v-6.41h-2.16v6.83c0,2.42,1.32,3.91,3.63,3.91h0Z"/>
  <path class="cls-9" d="M518.11,547.43h2.24v-4.82l1.47-1.7,4.77,6.53h2.77l-5.95-8.06,5.47-6.39h-2.66l-5.83,6.92h-.06v-6.92h-2.24v14.44h0ZM533.34,547.62c1.39,0,2.61-.72,3.22-1.85h.04v1.66h2.17v-7.26c0-2.11-1.63-3.47-4.2-3.47s-4.16,1.39-4.31,3.2v.11s2.03,0,2.03,0l.02-.09c.18-.84.95-1.43,2.2-1.43,1.34,0,2.09.7,2.09,1.86v.79l-2.86.17c-2.49.15-3.91,1.27-3.91,3.1v.02c0,1.89,1.41,3.18,3.51,3.18h0ZM532.01,544.38v-.02c0-.89.72-1.46,2.02-1.54l2.57-.16v.82c0,1.37-1.15,2.4-2.67,2.4-1.16,0-1.92-.58-1.92-1.5h0ZM540.95,547.43h2.16v-14.44h-2.16v14.44h0ZM545.42,547.43h2.16v-10.53h-2.16v10.53h0ZM554.34,547.64c2.53,0,4.29-1.62,4.52-3.73v-.07s-2.07,0-2.07,0v.08c-.27,1.14-1.12,1.91-2.45,1.91-1.67,0-2.78-1.35-2.78-3.65h0c0-2.26,1.09-3.66,2.77-3.66,1.41,0,2.21.87,2.44,1.9l.02.08h2.06v-.07c-.19-1.98-1.83-3.72-4.54-3.72-3,0-4.96,2.11-4.96,5.44h0c0,3.38,1.92,5.49,4.99,5.49h0ZM560.5,547.43h2.16v-10.53h-2.16v10.53h0ZM572.19,547.43h2.24v-12.51h4.41v-1.93h-11.08v1.93h4.42v12.51h0ZM580.89,547.62c1.39,0,2.61-.72,3.22-1.85h.04v1.66h2.17v-7.26c0-2.11-1.63-3.47-4.2-3.47s-4.16,1.39-4.31,3.2v.11s2.03,0,2.03,0l.02-.09c.18-.84.95-1.43,2.2-1.43,1.34,0,2.09.7,2.09,1.86v.79l-2.86.17c-2.49.15-3.91,1.27-3.91,3.1v.02c0,1.89,1.41,3.18,3.51,3.18h0ZM579.56,544.38v-.02c0-.89.72-1.46,2.02-1.54l2.57-.16v.82c0,1.37-1.15,2.4-2.67,2.4-1.16,0-1.92-.58-1.92-1.5h0ZM591.51,547.62c1.39,0,2.61-.72,3.22-1.85h.04v1.66h2.17v-7.26c0-2.11-1.63-3.47-4.2-3.47s-4.16,1.39-4.31,3.2v.11s2.03,0,2.03,0l.02-.09c.18-.84.95-1.43,2.2-1.43,1.34,0,2.09.7,2.09,1.86v.79l-2.86.17c-2.49.15-3.91,1.27-3.91,3.1v.02c0,1.89,1.41,3.18,3.51,3.18h0ZM590.17,544.38v-.02c0-.89.72-1.46,2.02-1.54l2.57-.16v.82c0,1.37-1.15,2.4-2.67,2.4-1.16,0-1.92-.58-1.92-1.5h0ZM599.11,547.43h2.16v-6.1c0-1.64.99-2.78,2.48-2.78s2.4,1.04,2.4,2.78v6.1h2.16v-6.51c0-2.54-1.48-4.22-3.73-4.22-1.57,0-2.7.71-3.26,1.93h-.05v-5.65h-2.16v14.44h0ZM610.49,547.43h2.16v-6.1c0-1.64.99-2.78,2.48-2.78s2.4,1.04,2.4,2.78v6.1h2.16v-6.51c0-2.54-1.48-4.22-3.73-4.22-1.57,0-2.7.71-3.26,1.93h-.05v-5.65h-2.16v14.44h0ZM624.31,535.29c.65,0,1.16-.51,1.16-1.15s-.51-1.14-1.16-1.14-1.16.51-1.16,1.14.51,1.15,1.16,1.15h0ZM628.25,535.29c.66,0,1.16-.51,1.16-1.15s-.5-1.14-1.16-1.14-1.16.51-1.16,1.14.52,1.15,1.16,1.15h0ZM625.38,547.64c1.6,0,2.67-.73,3.22-1.79h.05v1.58h2.17v-10.53h-2.17v6.15c0,1.64-.98,2.73-2.5,2.73s-2.24-.88-2.24-2.47v-6.4h-2.16v6.83c0,2.42,1.32,3.91,3.63,3.91h0ZM636.65,547.64c.44,0,.85-.05,1.1-.09v-1.67c-.16.02-.35.04-.58.04-.91,0-1.39-.32-1.39-1.39v-5.9h1.97v-1.72h-1.97v-2.74h-2.21v2.74h-1.51v1.72h1.51v6.04c0,2.1,1,2.98,3.08,2.98h0Z"/>
  <path class="cls-9" d="M542.28,506.85c.65,0,1.14-.5,1.14-1.13s-.49-1.13-1.14-1.13-1.14.51-1.14,1.13.5,1.13,1.14,1.13h0ZM546.08,506.85c.65,0,1.15-.5,1.15-1.13s-.5-1.13-1.15-1.13-1.14.51-1.14,1.13.51,1.13,1.14,1.13h0ZM544.19,523.07c3.63,0,5.83-2.15,5.83-5.31v-9.37h-2.23v9.19c0,2.1-1.3,3.51-3.6,3.51s-3.61-1.41-3.61-3.51v-9.19h-2.24v9.37c0,3.16,2.23,5.31,5.86,5.31h0ZM552.51,522.83h2.16v-14.44h-2.16v14.44h0ZM557.01,522.83h2.16v-3.79l.9-.89,3.57,4.68h2.51l-4.49-5.98,4.32-4.54h-2.54l-4.22,4.49h-.05v-8.41h-2.16v14.44h0ZM571.23,523.04c2.55,0,4.17-1.52,4.51-3.19l.02-.11h-2.05l-.03.08c-.27.79-1.12,1.45-2.4,1.45-1.72,0-2.81-1.16-2.85-3.15h7.46v-.73c0-3.16-1.81-5.28-4.76-5.28s-4.85,2.2-4.85,5.5h0c0,3.33,1.87,5.45,4.96,5.45h0ZM571.13,513.87c1.41,0,2.43.89,2.61,2.71h-5.28c.19-1.76,1.27-2.71,2.67-2.71h0ZM577.55,522.83h2.16v-6.51c0-1.36.91-2.37,2.19-2.37s1.99.78,1.99,2v6.88h2.12v-6.59c0-1.33.89-2.29,2.17-2.29s2.01.79,2.01,2.16v6.72h2.17v-7.24c0-2.11-1.36-3.49-3.44-3.49-1.5,0-2.74.79-3.28,2.07h-.05c-.42-1.32-1.48-2.07-2.93-2.07s-2.45.73-2.9,1.83h-.05v-1.63h-2.16v10.53h0ZM595.63,510.68c.71,0,1.26-.56,1.26-1.24s-.55-1.25-1.26-1.25-1.26.56-1.26,1.25.56,1.24,1.26,1.24h0ZM594.55,522.83h2.16v-10.53h-2.16v10.53h0ZM598.72,522.83h8.16v-1.71h-5.54v-.04l5.48-7.3v-1.48h-8.06v1.72h5.58v.04l-5.63,7.38v1.39h0ZM612.97,523.04c2.55,0,4.17-1.52,4.51-3.19l.02-.11h-2.05l-.03.08c-.27.79-1.12,1.45-2.4,1.45-1.72,0-2.81-1.16-2.85-3.15h7.46v-.73c0-3.16-1.81-5.28-4.76-5.28s-4.85,2.2-4.85,5.5h0c0,3.33,1.87,5.45,4.96,5.45h0ZM612.87,513.87c1.41,0,2.43.89,2.61,2.71h-5.29c.19-1.76,1.27-2.71,2.67-2.71h0Z"/>
  <path class="cls-9" d="M366.26,645.75h5.09c4.3,0,6.84-2.68,6.84-7.25v-.02c0-4.54-2.55-7.18-6.84-7.18h-5.09v14.44h0ZM368.5,643.8v-10.57h2.64c3.04,0,4.75,1.87,4.75,5.26v.02c0,3.41-1.69,5.29-4.75,5.29h-2.64ZM384.56,645.96c2.55,0,4.17-1.52,4.51-3.19l.02-.11h-2.05l-.03.08c-.27.79-1.12,1.45-2.4,1.45-1.72,0-2.81-1.16-2.85-3.15h7.46v-.73c0-3.16-1.81-5.29-4.76-5.29s-4.86,2.2-4.86,5.49h0c0,3.33,1.87,5.44,4.96,5.44h0ZM384.46,636.79c1.41,0,2.43.89,2.61,2.71h-5.29c.19-1.76,1.27-2.71,2.67-2.71h0ZM390.89,645.75h2.16v-6.14c0-1.64.98-2.74,2.5-2.74s2.24.89,2.24,2.47v6.41h2.17v-6.82c0-2.42-1.33-3.91-3.64-3.91-1.59,0-2.67.72-3.22,1.79h-.05v-1.59h-2.16v10.53h0ZM406.54,645.96c2.55,0,4.17-1.52,4.51-3.19l.02-.11h-2.05l-.03.08c-.27.79-1.12,1.45-2.4,1.45-1.72,0-2.81-1.16-2.85-3.15h7.46v-.73c0-3.16-1.81-5.29-4.76-5.29s-4.85,2.2-4.85,5.49h0c0,3.33,1.87,5.44,4.97,5.44h0ZM406.44,636.79c1.41,0,2.43.89,2.61,2.71h-5.29c.19-1.76,1.27-2.71,2.67-2.71h0ZM413.71,649.26c2.06,0,3.16-.84,3.94-3.02l3.92-11.02h-2.28l-2.65,8.57h-.07l-2.65-8.57h-2.34l3.83,10.54-.18.5c-.36,1.02-.92,1.29-1.94,1.29-.29,0-.54-.04-.71-.08v1.69c.26.05.71.1,1.13.1h0ZM424,633.6c.71,0,1.26-.56,1.26-1.24s-.55-1.25-1.26-1.25-1.26.56-1.26,1.25.56,1.24,1.26,1.24h0ZM422.92,645.75h2.16v-10.53h-2.16v10.53h0ZM427.31,645.75h2.16v-6.51c0-1.36.91-2.37,2.19-2.37s1.99.78,1.99,2v6.88h2.12v-6.59c0-1.33.89-2.29,2.17-2.29s2.01.79,2.01,2.16v6.72h2.17v-7.24c0-2.11-1.36-3.49-3.44-3.49-1.5,0-2.74.79-3.28,2.07h-.05c-.42-1.32-1.48-2.07-2.93-2.07s-2.45.73-2.9,1.83h-.05v-1.63h-2.16v10.53h0ZM445.39,633.6c.71,0,1.26-.56,1.26-1.24s-.55-1.25-1.26-1.25-1.26.56-1.26,1.25.56,1.24,1.26,1.24h0ZM444.31,645.75h2.16v-10.53h-2.16v10.53h0Z"/>
  <path class="cls-9" d="M374.27,621.15h2.04v-10.66h.07l4.35,10.66h1.66l4.35-10.66h.07v10.66h2.04v-14.44h-2.58l-4.68,11.53h-.06l-4.67-11.53h-2.59v14.44h0ZM393.78,609.01c.65,0,1.16-.51,1.16-1.15s-.51-1.14-1.16-1.14-1.16.51-1.16,1.14.51,1.15,1.16,1.15h0ZM397.72,609.01c.66,0,1.16-.51,1.16-1.15s-.5-1.14-1.16-1.14-1.16.51-1.16,1.14.52,1.15,1.16,1.15h0ZM394.85,621.36c1.6,0,2.67-.73,3.22-1.79h.05v1.58h2.17v-10.53h-2.17v6.15c0,1.64-.98,2.73-2.5,2.73s-2.24-.88-2.24-2.47v-6.41h-2.16v6.83c0,2.42,1.32,3.91,3.63,3.91h0ZM406.14,625.78c1.23,0,2.25-.69,2.25-1.88v-.02c0-1.15-.72-1.75-1.8-1.83l.48-.73c2.11-.22,3.58-1.46,3.58-3.2h0c0-1.52-.82-2.37-2.97-2.87l-1.71-.39c-1.13-.27-1.56-.71-1.56-1.36h0c0-.85.73-1.4,1.89-1.4,1.22,0,1.94.64,2.07,1.56v.07h2.04v-.12c-.12-1.79-1.62-3.18-4.11-3.18s-4.06,1.29-4.06,3.17h0c0,1.54.99,2.5,2.99,2.96l1.72.39c1.13.27,1.51.66,1.51,1.34h0c0,.86-.78,1.4-2.08,1.4s-2.05-.57-2.25-1.54l-.02-.1h-2.14v.09c.21,1.75,1.5,2.98,3.72,3.19l-.65.98v.88h.43c.76,0,1.15.23,1.15.69v.02c0,.42-.45.58-.99.58-.41,0-.82-.08-1.05-.16v1.21c.31.14.91.25,1.56.25h0ZM416.02,621.36c.44,0,.85-.05,1.1-.09v-1.67c-.16.02-.35.04-.58.04-.91,0-1.39-.32-1.39-1.39v-5.9h1.97v-1.72h-1.97v-2.74h-2.21v2.74h-1.51v1.72h1.51v6.03c0,2.1,1,2.98,3.08,2.98h0ZM423.15,621.36c2.55,0,4.17-1.52,4.52-3.19l.02-.11h-2.05l-.03.08c-.27.79-1.12,1.45-2.4,1.45-1.72,0-2.81-1.16-2.85-3.15h7.46v-.73c0-3.16-1.81-5.28-4.76-5.28s-4.85,2.2-4.85,5.5h0c0,3.33,1.87,5.45,4.96,5.45h0ZM423.05,612.19c1.41,0,2.43.89,2.61,2.71h-5.28c.19-1.76,1.27-2.71,2.67-2.71h0ZM429.47,621.15h2.16v-6.28c0-1.57.86-2.48,2.25-2.48.42,0,.8.05.97.12v-2.01c-.17-.03-.44-.08-.75-.08-1.2,0-2.08.77-2.42,2h-.05v-1.8h-2.16v10.53h0ZM437.37,609c.71,0,1.26-.56,1.26-1.24s-.55-1.25-1.26-1.25-1.26.56-1.26,1.25.56,1.24,1.26,1.24h0ZM436.29,621.15h2.16v-10.53h-2.16v10.53h0Z"/>
  <path class="cls-9" d="M366.35,596.55h2.24v-4.83l1.47-1.7,4.77,6.53h2.77l-5.95-8.06,5.48-6.39h-2.66l-5.83,6.92h-.06v-6.92h-2.24v14.44h0ZM382.32,596.76c1.6,0,2.67-.73,3.22-1.79h.05v1.58h2.17v-10.53h-2.17v6.15c0,1.64-.98,2.73-2.5,2.73s-2.24-.88-2.24-2.47v-6.41h-2.16v6.83c0,2.42,1.32,3.91,3.63,3.91h0ZM393.84,596.76c2.48,0,4.28-1.32,4.28-3.24h0c0-1.52-.82-2.37-2.97-2.87l-1.71-.39c-1.13-.27-1.56-.71-1.56-1.36h0c0-.85.73-1.4,1.89-1.4,1.22,0,1.94.64,2.07,1.56v.07h2.04v-.12c-.12-1.79-1.62-3.18-4.11-3.18s-4.06,1.29-4.06,3.17h0c0,1.54.99,2.5,2.99,2.96l1.72.39c1.13.27,1.51.66,1.51,1.34h0c0,.86-.78,1.4-2.08,1.4s-2.05-.57-2.25-1.54l-.02-.1h-2.14v.09c.23,1.92,1.77,3.22,4.4,3.22h0ZM403.38,596.76c1.6,0,2.67-.73,3.22-1.79h.05v1.58h2.17v-10.53h-2.17v6.15c0,1.64-.98,2.73-2.5,2.73s-2.24-.88-2.24-2.47v-6.41h-2.16v6.83c0,2.42,1.32,3.91,3.63,3.91h0ZM410.96,596.55h2.16v-6.28c0-1.57.86-2.48,2.25-2.48.42,0,.8.05.97.12v-2.01c-.17-.03-.44-.08-.75-.08-1.2,0-2.08.77-2.42,2h-.05v-1.8h-2.16v10.53h0ZM421.63,596.76c2.48,0,4.28-1.32,4.28-3.24h0c0-1.52-.82-2.37-2.97-2.87l-1.71-.39c-1.13-.27-1.56-.71-1.56-1.36h0c0-.85.73-1.4,1.89-1.4,1.22,0,1.94.64,2.07,1.56v.07h2.04v-.12c-.12-1.79-1.62-3.18-4.11-3.18s-4.06,1.29-4.06,3.17h0c0,1.54.99,2.5,2.99,2.96l1.72.39c1.13.27,1.51.66,1.51,1.34h0c0,.86-.78,1.4-2.08,1.4s-2.05-.57-2.25-1.54l-.02-.1h-2.14v.09c.23,1.92,1.77,3.22,4.4,3.22h0ZM431.16,596.76c1.6,0,2.67-.73,3.22-1.79h.05v1.58h2.17v-10.53h-2.17v6.15c0,1.64-.98,2.73-2.5,2.73s-2.24-.88-2.24-2.47v-6.41h-2.16v6.83c0,2.42,1.32,3.91,3.63,3.91h0ZM438.52,596.55h8.16v-1.71h-5.55v-.04l5.49-7.3v-1.48h-8.06v1.72h5.59v.04l-5.62,7.38v1.39h0Z"/>
  <path class="cls-9" d="M200.59,555.99h2.24v-5.92l5.1-8.53h-2.49l-3.68,6.38h-.07l-3.68-6.38h-2.49l5.08,8.53v5.92h0ZM209.81,543.84c.65,0,1.15-.51,1.15-1.15s-.5-1.14-1.15-1.14-1.17.51-1.17,1.14.52,1.15,1.17,1.15h0ZM213.74,543.84c.66,0,1.17-.51,1.17-1.15s-.51-1.14-1.17-1.14-1.15.51-1.15,1.14.51,1.15,1.15,1.15h0ZM211.77,556.2c3.01,0,4.99-2.08,4.99-5.47v-.02c0-3.37-2-5.44-5.01-5.44s-4.98,2.08-4.98,5.44v.02c0,3.38,1.97,5.47,4.99,5.47h0ZM211.78,554.38c-1.69,0-2.79-1.33-2.79-3.66v-.02c0-2.3,1.11-3.63,2.77-3.63s2.79,1.33,2.79,3.63v.02c0,2.32-1.08,3.66-2.77,3.66h0ZM218.44,555.99h2.16v-6.14c0-1.64.98-2.74,2.5-2.74s2.24.89,2.24,2.47v6.41h2.17v-6.82c0-2.42-1.33-3.91-3.64-3.91-1.59,0-2.67.72-3.22,1.79h-.05v-1.59h-2.16v10.53h0ZM234.09,556.2c2.55,0,4.17-1.52,4.51-3.19l.02-.11h-2.05l-.03.08c-.27.79-1.12,1.45-2.4,1.45-1.72,0-2.81-1.16-2.85-3.15h7.46v-.73c0-3.16-1.81-5.28-4.76-5.28s-4.85,2.2-4.85,5.49h0c0,3.33,1.87,5.45,4.96,5.45h0ZM233.99,547.03c1.41,0,2.43.89,2.61,2.71h-5.29c.19-1.76,1.27-2.71,2.67-2.71h0ZM244.11,556.2c.44,0,.85-.05,1.1-.09v-1.67c-.16.02-.35.04-.58.04-.91,0-1.39-.32-1.39-1.39v-5.91h1.97v-1.72h-1.97v-2.74h-2.21v2.74h-1.51v1.72h1.51v6.04c0,2.1,1,2.98,3.08,2.98h0ZM248.16,543.83c.71,0,1.26-.56,1.26-1.24s-.55-1.25-1.26-1.25-1.26.56-1.26,1.25.56,1.24,1.26,1.24h0ZM247.08,555.99h2.16v-10.53h-2.16v10.53h0ZM251.48,555.99h2.16v-6.51c0-1.36.91-2.37,2.19-2.37s1.99.78,1.99,2v6.88h2.12v-6.59c0-1.33.89-2.29,2.17-2.29s2.01.79,2.01,2.16v6.72h2.17v-7.24c0-2.11-1.36-3.49-3.44-3.49-1.5,0-2.74.79-3.28,2.07h-.05c-.42-1.32-1.48-2.07-2.93-2.07s-2.45.73-2.9,1.83h-.05v-1.63h-2.16v10.53h0ZM269.55,543.83c.71,0,1.26-.56,1.26-1.24s-.55-1.25-1.26-1.25-1.26.56-1.26,1.25.56,1.24,1.26,1.24h0ZM268.47,555.99h2.16v-10.53h-2.16v10.53h0Z"/>
  <path class="cls-9" d="M192.11,531.39h9.17v-1.93h-6.93v-4.48h6.55v-1.88h-6.55v-4.21h6.93v-1.93h-9.17v14.44h0ZM207.01,531.6c.44,0,.85-.05,1.1-.09v-1.67c-.16.02-.35.04-.58.04-.91,0-1.39-.32-1.39-1.39v-5.91h1.97v-1.72h-1.97v-2.74h-2.21v2.74h-1.51v1.72h1.51v6.04c0,2.1,1,2.98,3.08,2.98h0ZM210.01,531.39h2.16v-3.79l.9-.89,3.57,4.68h2.51l-4.49-5.99,4.32-4.54h-2.54l-4.22,4.49h-.05v-8.41h-2.16v14.44h0ZM221.4,519.24c.71,0,1.26-.56,1.26-1.24s-.55-1.25-1.26-1.25-1.26.56-1.26,1.25.56,1.24,1.26,1.24h0ZM220.32,531.39h2.16v-10.53h-2.16v10.53h0ZM224.72,531.39h2.16v-6.13c0-1.64.98-2.74,2.5-2.74s2.24.89,2.24,2.47v6.41h2.17v-6.82c0-2.42-1.33-3.91-3.64-3.91-1.59,0-2.67.72-3.22,1.79h-.05v-1.59h-2.16v10.53h0ZM240.29,531.39h2.24v-5.55h3.08l2.94,5.55h2.58l-3.23-5.89c1.73-.59,2.8-2.15,2.8-4.11v-.02c0-2.71-1.86-4.42-4.81-4.42h-5.61v14.44h0ZM242.53,524v-5.17h3.08c1.72,0,2.78.96,2.78,2.56v.02c0,1.64-.99,2.59-2.72,2.59h-3.14ZM253.78,519.24c.71,0,1.26-.56,1.26-1.24s-.55-1.25-1.26-1.25-1.26.56-1.26,1.25.56,1.24,1.26,1.24h0ZM252.7,531.39h2.16v-10.53h-2.16v10.53h0ZM261.04,531.6c2.48,0,4.28-1.32,4.28-3.24h0c0-1.52-.82-2.37-2.97-2.87l-1.71-.39c-1.13-.27-1.56-.71-1.56-1.36h0c0-.85.73-1.4,1.89-1.4,1.22,0,1.94.64,2.07,1.56v.07h2.04v-.12c-.12-1.79-1.62-3.18-4.11-3.18s-4.06,1.29-4.06,3.17h0c0,1.54.99,2.5,2.99,2.96l1.72.39c1.13.27,1.51.66,1.51,1.34h0c0,.86-.78,1.4-2.08,1.4s-2.05-.57-2.25-1.54l-.02-.1h-2.14v.09c.23,1.92,1.77,3.22,4.4,3.22h0ZM267.11,531.39h2.16v-3.79l.9-.89,3.57,4.68h2.51l-4.49-5.99,4.32-4.54h-2.54l-4.22,4.49h-.05v-8.41h-2.16v14.44h0Z"/>
  <path class="cls-9" d="M567.69,414.08h2.24v-4.82l1.47-1.7,4.77,6.53h2.77l-5.95-8.06,5.48-6.39h-2.66l-5.83,6.92h-.06v-6.92h-2.24v14.44h0ZM582.92,414.27c1.39,0,2.61-.72,3.22-1.85h.04v1.66h2.17v-7.26c0-2.11-1.63-3.47-4.2-3.47s-4.16,1.39-4.31,3.2v.11s2.03,0,2.03,0l.02-.09c.18-.84.95-1.43,2.2-1.43,1.34,0,2.09.7,2.09,1.86v.79l-2.86.17c-2.49.15-3.91,1.27-3.91,3.1v.02c0,1.89,1.41,3.18,3.51,3.18h0ZM581.59,411.04v-.02c0-.89.72-1.46,2.02-1.54l2.57-.16v.82c0,1.37-1.15,2.4-2.67,2.4-1.16,0-1.92-.58-1.92-1.5h0ZM591.67,417.6c2.06,0,3.16-.84,3.94-3.02l3.92-11.02h-2.28l-2.65,8.57h-.07l-2.65-8.57h-2.34l3.83,10.54-.18.5c-.36,1.02-.92,1.29-1.94,1.29-.29,0-.54-.04-.71-.08v1.69c.26.05.71.1,1.13.1h0ZM600.79,414.08h2.16v-6.14c0-1.64.98-2.74,2.5-2.74s2.24.89,2.24,2.47v6.41h2.17v-6.82c0-2.42-1.33-3.91-3.64-3.91-1.59,0-2.67.72-3.22,1.79h-.05v-1.59h-2.16v10.53h0ZM615.04,414.27c1.39,0,2.61-.72,3.22-1.85h.04v1.66h2.17v-7.26c0-2.11-1.63-3.47-4.2-3.47s-4.16,1.39-4.31,3.2v.11s2.03,0,2.03,0l.02-.09c.18-.84.95-1.43,2.2-1.43,1.34,0,2.09.7,2.09,1.86v.79l-2.86.17c-2.49.15-3.91,1.27-3.91,3.1v.02c0,1.89,1.41,3.18,3.51,3.18h0ZM613.71,411.04v-.02c0-.89.72-1.46,2.02-1.54l2.57-.16v.82c0,1.37-1.15,2.4-2.67,2.4-1.16,0-1.92-.58-1.92-1.5h0ZM627.07,402.39c1.95,0,3.2-1.23,3.2-3.01v-.1h-1.46v.05c0,.91-.66,1.69-1.74,1.69s-1.74-.78-1.74-1.69v-.05h-1.46v.1c0,1.78,1.25,3.01,3.2,3.01h0ZM627.18,417.8c2.97,0,4.83-1.6,4.83-4v-10.24h-2.17v1.79h-.05c-.62-1.19-1.78-1.99-3.26-1.99-2.67,0-4.43,2.07-4.43,5.38h0c0,3.29,1.74,5.37,4.38,5.37,1.51,0,2.71-.73,3.31-1.87h.05v1.44c0,1.47-.95,2.39-2.67,2.39-1.35,0-2.26-.46-2.55-1.13l-.04-.08h-2.14v.09c.33,1.61,2.04,2.86,4.74,2.86h0ZM627.09,412.33c-1.71,0-2.78-1.36-2.78-3.56h0c0-2.18,1.07-3.56,2.78-3.56s2.75,1.39,2.75,3.55h0c0,2.18-1.1,3.57-2.75,3.57h0ZM634.24,414.08h2.16v-10.53h-2.16v10.53h0Z"/>
  <path class="cls-9" d="M580.53,373.5c.67,0,1.2-.54,1.2-1.19s-.53-1.17-1.2-1.17-1.19.53-1.19,1.17.53,1.19,1.19,1.19h0ZM579.42,389.49h2.24v-14.44h-2.24v14.44h0ZM584.06,389.49h2.16v-6.14c0-1.64.98-2.74,2.5-2.74s2.24.89,2.24,2.47v6.41h2.17v-6.82c0-2.42-1.33-3.91-3.64-3.91-1.59,0-2.67.72-3.22,1.79h-.05v-1.59h-2.16v10.53h0ZM599.17,389.7c2.48,0,4.28-1.32,4.28-3.24h0c0-1.52-.82-2.37-2.97-2.87l-1.71-.39c-1.13-.27-1.56-.71-1.56-1.36h0c0-.85.73-1.4,1.89-1.4,1.22,0,1.94.64,2.07,1.56v.07h2.04v-.12c-.12-1.79-1.62-3.18-4.11-3.18s-4.06,1.29-4.06,3.17h0c0,1.54.99,2.5,2.99,2.96l1.72.39c1.13.27,1.51.66,1.51,1.34h0c0,.86-.78,1.4-2.08,1.4s-2.05-.57-2.25-1.54l-.02-.1h-2.14v.09c.23,1.92,1.77,3.22,4.4,3.22h0ZM608.21,389.68c1.39,0,2.61-.72,3.22-1.85h.04v1.66h2.17v-7.26c0-2.11-1.63-3.47-4.2-3.47s-4.16,1.39-4.31,3.2v.11s2.03,0,2.03,0l.02-.09c.18-.84.95-1.43,2.2-1.43,1.34,0,2.09.7,2.09,1.86v.79l-2.86.17c-2.49.15-3.91,1.27-3.91,3.1v.02c0,1.89,1.41,3.18,3.51,3.18h0ZM606.88,386.44v-.02c0-.89.72-1.46,2.02-1.54l2.57-.16v.82c0,1.37-1.15,2.4-2.67,2.4-1.16,0-1.92-.58-1.92-1.5h0ZM615.74,389.49h2.16v-6.14c0-1.64.98-2.74,2.5-2.74s2.24.89,2.24,2.47v6.41h2.17v-6.82c0-2.42-1.33-3.91-3.64-3.91-1.59,0-2.67.72-3.22,1.79h-.05v-1.59h-2.16v10.53h0Z"/>
  <path class="cls-9" d="M572.31,348.9c.65,0,1.14-.5,1.14-1.13s-.49-1.13-1.14-1.13-1.14.51-1.14,1.13.5,1.13,1.14,1.13h0ZM576.11,348.9c.65,0,1.15-.5,1.15-1.13s-.5-1.13-1.15-1.13-1.14.51-1.14,1.13.51,1.13,1.14,1.13h0ZM574.22,365.13c3.63,0,5.84-2.15,5.84-5.31v-9.37h-2.23v9.19c0,2.1-1.3,3.51-3.6,3.51s-3.61-1.41-3.61-3.51v-9.19h-2.24v9.37c0,3.16,2.23,5.31,5.86,5.31h0ZM582.46,364.89h2.16v-6.28c0-1.57.86-2.48,2.25-2.48.42,0,.8.05.97.12v-2.01c-.17-.03-.44-.08-.75-.08-1.2,0-2.08.77-2.42,2h-.05v-1.8h-2.16v10.53h0ZM593.23,365.1c2.55,0,4.17-1.52,4.51-3.19l.02-.11h-2.05l-.03.08c-.27.79-1.12,1.45-2.4,1.45-1.72,0-2.81-1.16-2.85-3.15h7.46v-.73c0-3.16-1.81-5.28-4.77-5.28s-4.85,2.2-4.85,5.49h0c0,3.33,1.87,5.44,4.97,5.44h0ZM593.13,355.93c1.41,0,2.43.89,2.61,2.71h-5.29c.19-1.76,1.27-2.71,2.67-2.71h0ZM603.25,365.1c.44,0,.85-.05,1.1-.09v-1.67c-.16.02-.35.04-.58.04-.91,0-1.39-.32-1.39-1.39v-5.9h1.97v-1.72h-1.97v-2.74h-2.21v2.74h-1.51v1.72h1.51v6.03c0,2.1,1,2.98,3.08,2.98h0ZM606.25,364.89h2.16v-3.79l.9-.89,3.57,4.68h2.51l-4.49-5.99,4.32-4.54h-2.54l-4.22,4.49h-.05v-8.41h-2.16v14.44h0ZM620.46,365.1c2.55,0,4.17-1.52,4.51-3.19l.02-.11h-2.05l-.03.08c-.27.79-1.12,1.45-2.4,1.45-1.72,0-2.81-1.16-2.85-3.15h7.46v-.73c0-3.16-1.81-5.28-4.76-5.28s-4.85,2.2-4.85,5.49h0c0,3.33,1.87,5.44,4.96,5.44h0ZM620.36,355.93c1.41,0,2.43.89,2.61,2.71h-5.28c.19-1.76,1.27-2.71,2.67-2.71h0ZM626.79,364.89h2.16v-6.14c0-1.64.98-2.74,2.5-2.74s2.24.89,2.24,2.47v6.41h2.17v-6.82c0-2.42-1.33-3.91-3.64-3.91-1.59,0-2.67.72-3.22,1.79h-.05v-1.59h-2.16v10.53h0Z"/>
  <path class="cls-9" d="M565.58,340.29h2.04v-10.66h.07l4.35,10.66h1.66l4.35-10.66h.07v10.66h2.04v-14.44h-2.58l-4.68,11.53h-.06l-4.67-11.53h-2.59v14.44h0ZM586.15,340.5c1.6,0,2.67-.73,3.22-1.79h.05v1.58h2.17v-10.53h-2.17v6.15c0,1.64-.98,2.73-2.5,2.73s-2.24-.88-2.24-2.47v-6.41h-2.16v6.83c0,2.42,1.32,3.91,3.63,3.91h0ZM597.42,340.5c.44,0,.85-.05,1.1-.09v-1.67c-.16.02-.35.04-.58.04-.91,0-1.39-.32-1.39-1.39v-5.91h1.97v-1.72h-1.97v-2.74h-2.21v2.74h-1.51v1.72h1.51v6.04c0,2.1,1,2.98,3.08,2.98h0ZM600.39,340.29h2.16v-14.44h-2.16v14.44h0ZM608.35,340.5c1.6,0,2.67-.73,3.22-1.79h.05v1.58h2.17v-10.53h-2.17v6.15c0,1.64-.98,2.73-2.5,2.73s-2.24-.88-2.24-2.47v-6.41h-2.16v6.83c0,2.42,1.32,3.91,3.63,3.91h0ZM622.98,340.29h2.32l3.77-10.53h-2.25l-2.64,8.42h-.05l-2.64-8.42h-2.3l3.79,10.53h0ZM634.42,340.5c2.55,0,4.17-1.52,4.51-3.19l.02-.11h-2.05l-.03.08c-.27.79-1.12,1.45-2.4,1.45-1.72,0-2.81-1.16-2.85-3.15h7.46v-.73c0-3.16-1.81-5.29-4.76-5.29s-4.86,2.2-4.86,5.5h0c0,3.33,1.87,5.44,4.97,5.44h0ZM634.32,331.33c1.41,0,2.43.89,2.61,2.71h-5.28c.19-1.76,1.27-2.71,2.67-2.71h0Z"/>
  <path class="cls-10" d="M122.42,504.18c-3.64-10.54-11.06-15.23-19.23-12.4h-.03c-7.02,2.44-9.49,7.72-8.29,17.89l.65,5.49c.77,6.45-.64,10.05-4.4,11.35h-.03c-4.44,1.55-8.77-1.46-10.93-7.61-2.02-5.84-.6-10.73,3.85-13.05l.42-.22-1.99-5.75-.47.2c-7.36,3.12-10.29,11.49-7.17,20.5,3.28,9.48,10.9,14.35,18.47,11.77h.03c6.74-2.34,9.33-7.96,8.2-17.64l-.65-5.49c-.78-6.81.57-10.24,4.62-11.64h.03c4.76-1.66,9.2,1.49,11.5,8.13,2.31,6.67,1.01,12.12-3.39,14.4l-.43.22,1.99,5.75.44-.19c7.69-3.3,10.24-11.73,6.8-21.69h0ZM70.91,476.11c-.36-1.86-2.14-3.02-4-2.66-1.86.36-3.03,2.11-2.66,3.97.36,1.86,2.12,3.06,3.97,2.7,1.86-.36,3.05-2.15,2.69-4.01h0ZM68.49,463.78c-.37-1.89-2.15-3.05-4.01-2.69-1.86.37-3.03,2.11-2.66,4,.36,1.82,2.11,3.03,3.97,2.66,1.86-.37,3.05-2.15,2.7-3.97h0ZM110.99,464.21c-1.03-5.24-4.07-8.29-7.65-9.51l-.03-.13,4.91-.96-1.13-5.77-34.47,6.77,1.13,5.77,20.29-3.99c5.87-1.15,10.44,1.63,11.51,7.07,1.04,5.3-1.53,8.53-7.13,9.63l-21.35,4.19,1.13,5.77,22.37-4.39c7.86-1.54,11.9-6.88,10.42-14.44h0ZM105.52,434.73l-.47-5.86-21.62,1.74c-5.32.43-8.72-2.28-9.09-6.83-.11-1.41-.05-2.67.09-3.16l-5.69.46c-.03.48-.13,1.37-.05,2.38.32,3.94,3.12,6.77,7.25,7.62v.14s-5.92.48-5.92.48l.47,5.86,35.02-2.81h0ZM104.58,396.44c.17-5.03-2.24-9.03-6.25-11.36v-.13s5.95.2,5.95.2l.19-5.87-48.72-1.61-.19,5.87,19.48.64v.13c-4.13,2.06-6.76,6.06-6.93,11.03-.29,8.81,6.63,15.06,17.71,15.42h.03c11.07.37,18.43-5.34,18.72-14.32h0ZM99.41,395.12c-.21,6.21-5.3,9.9-13.36,9.63h-.03c-8-.27-12.87-4.28-12.67-10.49.2-5.91,5.5-9.99,13.33-9.73h.03c7.87.26,12.89,4.65,12.7,10.59h0ZM66.74,350.48c.34-1.86-.88-3.6-2.74-3.94s-3.59.85-3.93,2.71c-.34,1.86.84,3.62,2.71,3.97,1.86.34,3.63-.88,3.97-2.74h0ZM69.01,338.12c.35-1.89-.88-3.63-2.74-3.97-1.86-.34-3.59.85-3.94,2.75-.34,1.83.85,3.59,2.71,3.93,1.86.34,3.63-.88,3.97-2.71h0ZM108.39,354.12c.97-5.25-.75-9.21-3.63-11.66l.02-.13,4.92.91,1.06-5.78-34.55-6.35-1.06,5.78,20.33,3.74c5.88,1.08,9.12,5.35,8.11,10.8-.98,5.32-4.55,7.37-10.17,6.34l-21.4-3.93-1.06,5.78,22.43,4.12c7.87,1.45,13.6-2.03,14.99-9.61h0ZM113.96,324.66l1.69-5.63-20.77-6.24c-5.11-1.54-7.3-5.3-5.98-9.66.41-1.36.93-2.51,1.23-2.91l-5.47-1.64c-.2.43-.61,1.23-.91,2.2-1.14,3.79.45,7.43,3.99,9.73l-.04.13-5.69-1.71-1.69,5.63,33.65,10.11h0ZM87.4,275.12c.76-1.73-.04-3.7-1.77-4.46-1.73-.76-3.69,0-4.45,1.74-.76,1.73,0,3.72,1.73,4.48,1.73.76,3.73-.03,4.49-1.76h0ZM92.44,263.61c.77-1.76-.02-3.73-1.76-4.49-1.73-.76-3.69,0-4.46,1.77-.74,1.7,0,3.69,1.74,4.45,1.73.76,3.74-.03,4.48-1.73h0ZM127.11,288.18c2.14-4.89,1.38-9.13-.87-12.18l.05-.12,4.58,2,2.36-5.38-32.18-14.09-2.36,5.39,18.94,8.29c5.48,2.4,7.65,7.29,5.43,12.37-2.17,4.95-6.12,6.14-11.35,3.85l-19.93-8.72-2.36,5.38,20.89,9.14c7.33,3.21,13.7,1.13,16.79-5.93h0ZM139.46,260.54l2.86-5.14-42.58-23.72-2.86,5.14,42.58,23.72h0ZM157.63,232.09c4.43-6.26,3.99-13.6-.09-17.89l-.24-.25-3.34,4.72.19.26c1.87,2.56,1.88,6.42-.7,10.06-3.61,5.1-9.36,5.92-15.34,1.85l14.61-20.66-1.77-1.25c-8.6-6.09-17.8-5.43-23.34,2.4-5.54,7.83-3.04,17.22,5.85,23.5l.03.02c9.02,6.38,18.29,5.49,24.13-2.75h0ZM131.86,214.36c2.97-4.19,7.77-5.43,13.67-1.96l-11.1,15.69c-4.98-4.31-5.52-9.57-2.57-13.74h0ZM185.09,197.9c6.11-6.59,4.89-15.82-3.24-23.35l-.02-.02c-8.13-7.53-17.44-7.96-23.44-1.49-3.37,3.64-4.32,8.34-2.83,12.71l-.09.1-14.3-13.24-3.99,4.31,35.76,33.12,3.99-4.31-4.36-4.04.09-.1c4.49,1.17,9.01.01,12.43-3.68h0ZM180.49,195.21c-4.04,4.36-10.7,3.95-16.48-1.4l-.02-.02c-5.75-5.32-6.65-11.96-2.63-16.3,4.22-4.56,10.51-3.99,16.38,1.45l.02.02c5.92,5.49,6.95,11.68,2.73,16.25h0ZM178.89,145.72c1.56-1.35,1.69-3.67.36-5.2-1.35-1.55-3.64-1.72-5.19-.36-1.53,1.33-1.71,3.64-.36,5.19,1.33,1.53,3.66,1.69,5.19.36h0ZM203.61,178.65l4.44-3.86-23.05-26.52-4.44,3.86,23.05,26.52h0ZM218.67,165.9l4.7-3.52-29.22-39.02-4.71,3.52,29.22,39.02h0ZM214.46,118.3c1.72-1.13,2.17-3.41,1.05-5.1-1.13-1.72-3.38-2.19-5.1-1.05-1.69,1.11-2.19,3.38-1.05,5.1,1.11,1.69,3.41,2.17,5.1,1.05h0ZM234.57,154.24l4.91-3.23-19.3-29.35-4.91,3.23,19.3,29.35h0ZM250.89,143.71l5.14-2.86-10.54-18.95c-2.6-4.66-1.54-8.88,2.44-11.1,1.24-.69,2.42-1.15,2.91-1.23l-2.78-4.99c-.45.17-1.29.45-2.18.94-3.45,1.92-4.86,5.64-3.92,9.76l-.12.07-2.89-5.19-5.14,2.86,17.08,30.7h0ZM274.85,130.93l5.36-2.4-19.91-44.49-5.36,2.4,19.91,44.49h0ZM281.28,83.54c1.93-.72,2.87-2.84,2.16-4.74-.72-1.93-2.81-2.88-4.74-2.16-1.9.71-2.88,2.81-2.16,4.74.71,1.9,2.84,2.87,4.74,2.16h0ZM292.93,123.04l5.51-2.06-12.31-32.9-5.5,2.06,12.31,32.9h0ZM311.53,115.89l5.68-1.5-3.37-12.81,2.37-3.87,16.78,12.53,6.6-1.74-20.27-15.31,10.88-18.54-6.89,1.81-10.95,18.91-.13.03-7.41-28.16-5.68,1.5,12.4,47.14h0ZM475.94,110.87c13.41,3.33,24.1-4.01,27.83-19.03l.02-.07c3.72-14.98-2.34-26.48-15.72-29.79-13.41-3.33-24.17,3.99-27.89,18.98l-.02.07c-3.72,15.02,2.34,26.51,15.78,29.84h0ZM477.29,105.43c-9.71-2.41-13.98-11.26-11.1-22.9l.02-.07c2.89-11.64,10.83-17.43,20.5-15.03,9.64,2.39,13.92,11.25,11.04,22.85l-.02.07c-2.86,11.54-10.71,17.5-20.45,15.08h0ZM521.24,125.68c4.61,2.02,9.22,1.27,12.87-1.6l.12.05-2.38,5.45,5.39,2.36,19.54-44.66-5.38-2.36-7.82,17.86-.12-.05c-.39-4.59-3.13-8.52-7.68-10.51-8.08-3.53-16.44.58-20.88,10.73v.03c-4.46,10.15-1.88,19.1,6.35,22.7h0ZM524.37,121.38c-5.69-2.49-7.23-8.59-3.99-15.98v-.03c3.22-7.33,8.76-10.37,14.45-7.88,5.41,2.37,7.24,8.81,4.1,15.99v.03c-3.17,7.21-9.11,10.25-14.56,7.87h0ZM557.68,143.99c3.99,2.48,8.91,2.55,12.69.37l.11.07-3.01,4.85,4.99,3.1,12.82-20.63c3.71-5.97,1.66-12.53-5.4-16.92-7.03-4.37-13.77-3.07-17.25,1.57l-.22.3,4.82,3,.22-.22c2.23-2.31,5.78-2.65,9.63-.26,4.16,2.59,5.17,6.28,2.9,9.92l-1.55,2.5-8.85-4.83c-7.11-3.86-13.05-3.14-16.2,1.94l-.04.06c-3.37,5.42-1.61,11.49,4.33,15.18h0ZM558.45,131.99l.04-.06c1.73-2.78,5.13-3.14,9.26-.89l8.28,4.47-1.51,2.44c-2.69,4.33-8.32,5.33-13.03,2.4-3.59-2.23-4.82-5.5-3.03-8.37h0ZM583.65,159.96l4.54,3.73,8.4-10.24,4.53-.35-.31,20.94,5.27,4.33.52-25.4,21.4-2.06-5.51-4.52-21.74,2.21-.1-.09,18.47-22.51-4.54-3.73-30.92,37.68h0ZM625.57,196.32l3.95,5.02,14.01-4.76,12.14,15.42-7.91,12.51,3.95,5.02,27.1-44.38-3.72-4.72-49.52,15.9h0ZM671.18,187.24l.08.11-12.65,20.02-9.86-12.53,22.43-7.6h0ZM657.28,238.47l3.11,4.99,41.38-25.77-3.11-4.99-41.37,25.77h0ZM671.57,264.36c2.08,4.21,6.22,6.88,10.58,7.02l.06.12-5.12,2.52,2.6,5.27,21.78-10.74c6.3-3.11,8.03-9.76,4.35-17.21-3.66-7.42-10.07-9.88-15.47-7.77l-.35.13,2.51,5.09.3-.07c3.12-.78,6.31.8,8.31,4.86,2.17,4.39,1.07,8.06-2.78,9.96l-2.64,1.3-4.97-8.77c-4-7.03-9.42-9.55-14.78-6.91l-.06.03c-5.73,2.82-7.44,8.9-4.34,15.17h0ZM678.57,254.58l.06-.03c2.94-1.45,6.01.05,8.33,4.14l4.67,8.17-2.58,1.27c-4.58,2.26-9.88.13-12.33-4.84-1.87-3.79-1.18-7.21,1.85-8.71h0ZM685,291.21l1.85,5.58,19.62-6.51c5.67-1.88,10.57.3,12.31,5.56,1.7,5.13-.44,8.65-5.86,10.45l-20.65,6.85,1.85,5.58,21.64-7.18c7.6-2.52,10.94-8.33,8.51-15.64-1.68-5.07-5.08-7.71-8.79-8.47l-.04-.13,4.75-1.58-1.85-5.58-33.34,11.06h0ZM697.35,331.64l1.28,5.74,47.58-10.6-1.28-5.74-47.58,10.6h0ZM702.25,360.81c.55,4.66,3.57,8.56,7.63,10.15l.02.13-5.67.67.69,5.84,24.12-2.86c6.98-.83,10.83-6.52,9.85-14.77-.97-8.22-6.2-12.67-11.99-12.49h-.37s.67,5.65.67,5.65l.31.03c3.2.3,5.68,2.86,6.21,7.36.58,4.86-1.68,7.96-5.94,8.46l-2.92.35-1.75-9.93c-1.42-7.96-5.69-12.15-11.63-11.45h-.07c-6.34.76-9.98,5.92-9.16,12.86h0ZM712.12,353.92h.07c3.25-.39,5.65,2.04,6.47,6.67l1.68,9.26-2.85.34c-5.07.6-9.36-3.18-10.01-8.68-.5-4.19,1.29-7.2,4.65-7.59h0ZM705.76,390.59l.03,5.88,21.69-.1c5.34-.03,8.53,2.93,8.55,7.49,0,1.42-.16,2.67-.32,3.14l5.71-.03c.07-.47.23-1.35.23-2.36-.02-3.95-2.6-6.98-6.66-8.15v-.13l5.94-.03-.03-5.88-35.13.16h0ZM705.45,417.81l-.34,5.87,35.07,2.03.34-5.87-35.07-2.04h0Z"/>
  <path class="cls-9" d="M477.89,71.98c.52.11,1.01-.22,1.12-.73.11-.51-.21-1-.73-1.11-.5-.11-1,.21-1.11.72-.11.51.22,1.01.72,1.12h0ZM473.35,89.68l1.5.32,3.39-15.89-1.5-.32-3.39,15.89h0ZM478.86,90.84l1.44.36,1.11-4.4,1.56-.86,3.14,6.72,1.7.43-3.58-7.78,6.33-3.61-1.79-.45-6.92,3.95h-.04s2.45-9.76,2.45-9.76l-1.44-.36-3.96,15.76h0ZM490.37,93.78l1.43.4,4.34-15.66-1.43-.4-4.34,15.66h0ZM500.17,82.18c.52.15,1.06-.15,1.22-.68.15-.53-.15-1.06-.67-1.21-.53-.15-1.07.14-1.23.67s.15,1.07.68,1.23h0ZM495.59,95.25l1.44.42,3.26-11.25-1.44-.42-3.26,11.25h0ZM500.72,96.7l1.41.46,2.25-6.83c.63-1.9,2.24-2.83,3.87-2.29,1.52.5,2.2,1.89,1.67,3.48l-2.44,7.41,1.42.47,2.31-7.01c.59-1.79,2.14-2.67,3.79-2.13,1.61.53,2.23,1.89,1.66,3.62l-2.4,7.28,1.41.46,2.51-7.6c.74-2.26-.2-4.18-2.38-4.9-1.69-.56-3.28,0-4.27,1.2h-.03c.05-1.56-.82-2.89-2.44-3.42-1.56-.52-2.98-.01-3.85,1.07h-.04s.63-1.93.63-1.93l-1.41-.47-3.67,11.12h0ZM524.78,105.2l9.07,3.74.53-1.29-7.65-3.16,2.38-5.77,7.27,3,.52-1.27-7.27-3,2.23-5.4,7.65,3.16.53-1.29-9.07-3.74-6.2,15.02h0ZM536.14,114.25c1.81.86,3.07.43,4.66-1.13l9.64-9.44-1.43-.67-7.58,7.73-.04-.02,1.15-10.76-1.45-.68-1.04,12.54-.58.56c-1.08,1.07-1.88,1.17-3.07.61-.17-.08-.34-.18-.46-.27l-.52,1.11c.18.12.45.29.71.41h0ZM547.9,115.48l1.33.67,7.28-14.53-1.33-.67-7.28,14.53h0ZM556.74,120.25c2.24,1.19,4.57.79,5.87-.79l.07-.09-1.3-.69-.07.08c-.94.94-2.4,1.15-3.92.34-2.04-1.09-2.61-3.19-1.34-5.68l7.76,4.13.28-.52c1.65-3.09,1.01-6.08-1.76-7.56-2.76-1.47-5.73-.31-7.45,2.93h0c-1.74,3.28-1.04,6.29,1.86,7.84h0ZM561.7,110.65c1.77.94,2.4,2.82,1.35,5.16l-6.42-3.42c1.33-2.11,3.31-2.68,5.07-1.74h0ZM564.01,123.89l1.28.76,3.69-6.18c1.03-1.72,2.8-2.27,4.28-1.39,1.37.82,1.73,2.32.87,3.76l-4,6.7,1.29.77,3.78-6.33c.97-1.61,2.67-2.14,4.16-1.25,1.46.87,1.77,2.33.83,3.9l-3.93,6.58,1.28.76,4.11-6.87c1.22-2.04.72-4.12-1.25-5.3-1.53-.91-3.2-.72-4.43.24l-.03-.02c.39-1.5-.17-2.99-1.64-3.87-1.41-.84-2.91-.66-3.99.2l-.04-.02,1.03-1.73-1.28-.76-6.01,10.05h0ZM588.81,122.91c.45.29,1.06.16,1.36-.3.3-.46.17-1.06-.29-1.35-.46-.3-1.06-.18-1.36.28-.3.46-.17,1.07.29,1.37h0ZM580.65,134.09l1.26.82,6.38-9.82-1.26-.82-6.38,9.82h0ZM638.96,182.6l3.52,3.92c3.25,3.62,7.36,3.74,11.19.32l.02-.02c3.82-3.43,4.14-7.53.9-11.15l-3.52-3.92-12.1,10.84h0ZM641.02,182.81l10.02-8.98,2.43,2.72c2.67,2.98,2.37,6.24-.85,9.12l-.02.02c-3.2,2.87-6.48,2.82-9.15-.16l-2.44-2.72h0ZM660.91,186.55c.35.41.97.46,1.39.1.42-.36.46-.97.11-1.38-.36-.42-.97-.48-1.39-.12-.42.36-.47.98-.11,1.4h0ZM649.9,194.94l.97,1.14,8.92-7.59-.97-1.14-8.92,7.59h0ZM664.62,190.98c.35.43.97.49,1.39.15.43-.35.48-.96.14-1.39-.34-.42-.95-.5-1.38-.15-.43.35-.49.97-.15,1.39h0ZM649.14,200.12c1.46,1.8,2.9,1.98,4.66.56l9.64-7.8-.93-1.16-9.67,7.82c-1.09.89-1.82.78-2.7-.31l-.19-.24-1.03.83c.07.1.14.19.22.29h0ZM668.15,195.36c.33.42.95.5,1.39.16.43-.34.5-.95.16-1.38-.34-.43-.95-.51-1.38-.17-.43.34-.51.96-.16,1.39h0ZM656.82,203.33l.93,1.18,9.2-7.25-.93-1.18-9.2,7.25h0ZM662.06,210.42c.22.29.49.56.67.72l.96-.74c-.12-.12-.29-.29-.46-.5-.66-.87-.65-1.57.38-2.36l6.1-4.68,1.41,1.84.99-.76-1.41-1.84,2.51-1.93-.93-1.22-2.51,1.93-1.05-1.37-.99.76,1.05,1.37-6.12,4.7c-1.63,1.25-1.77,2.55-.6,4.08h0ZM666.41,216.35c1,1.41,2.68,2.12,4.19,1.84l.03.04-1.74,1.24.86,1.21,6.54-4.64c1.96-1.39,2.22-3.63.67-5.82-1.53-2.16-3.67-2.68-5.44-1.7l-.12.07.83,1.17.1-.05c1.23-.57,2.54-.13,3.53,1.25,1.05,1.49.84,2.95-.54,3.93l-.83.59-2.29-2.85c-1.7-2.09-3.56-2.62-5.18-1.47h-.02c-1.69,1.21-1.91,3.3-.57,5.18h0ZM667.86,212.42h.02c1.05-.76,2.29-.38,3.45,1.05l2.2,2.69-1.06.75c-1.53,1.08-3.63.6-4.82-1.07-.92-1.3-.84-2.68.21-3.42h0ZM671.84,223.78l.83,1.23,13.49-9.06-.83-1.23-13.49,9.06h0ZM674.83,228.29l.81,1.24,13.6-8.89-.81-1.24-13.6,8.89h0ZM680,236.9c1.31,2.17,3.51,3.03,5.44,2.34l.11-.04-.76-1.26-.1.03c-1.29.33-2.65-.25-3.53-1.73-1.19-1.98-.6-4.08,1.77-5.56l4.53,7.54.5-.3c3-1.8,3.99-4.7,2.38-7.38-1.61-2.68-4.76-3.21-7.9-1.32h0c-3.17,1.91-4.12,4.86-2.43,7.68h0ZM689.19,231.22c1.03,1.72.61,3.66-1.5,5.12l-3.75-6.23c2.23-1.13,4.22-.59,5.24,1.12h0ZM681.78,249.5c.58,1.04,1.69,1.64,2.78,1.04h.02c1.04-.59,1.19-1.62.65-2.72l1.14.04c1.26,1.91,3.21,2.67,4.83,1.77h.01c1.44-.8,1.81-2.02,1.18-4.33l-.49-1.75c-.42-1.53-.2-2.37.62-2.82h0c1.05-.58,2.28-.05,3.04,1.34.79,1.43.51,2.77-.59,3.59l-.06.05.69,1.25.1-.07c1.67-1.14,2.17-3.24.97-5.43-1.18-2.14-3.22-2.98-4.93-2.04h0c-1.42.79-1.76,2.18-1.16,4.37l.48,1.75c.43,1.55.22,2.31-.67,2.8h0c-1.08.6-2.33,0-3.18-1.54-.85-1.55-.61-2.93.46-3.79l.08-.07-.72-1.3-.08.06c-1.58,1.12-2.06,3.08-1.09,5.21l-1.37-.07-.68.38.21.38c.47.85.46,1.47-.1,1.78h-.02c-.52.3-1.04-.08-1.36-.65-.25-.45-.39-.97-.41-1.28l-.86.47c0,.37.19,1,.51,1.58h0ZM690.01,253.89l.65,1.34,6.47-3.15c1.8-.88,3.59-.37,4.34,1.18.7,1.44.18,2.89-1.33,3.63l-7.01,3.42.66,1.35,6.63-3.23c1.69-.82,3.41-.33,4.17,1.22.74,1.53.21,2.92-1.43,3.72l-6.89,3.36.65,1.34,7.2-3.51c2.13-1.04,2.85-3.06,1.85-5.12-.78-1.6-2.29-2.35-3.84-2.22l-.02-.03c1.14-1.05,1.49-2.59.74-4.13-.72-1.48-2.07-2.14-3.45-2.01l-.02-.04,1.81-.88-.65-1.34-10.53,5.13h0ZM700.09,275.82c1,2.33,3.07,3.48,5.07,3.06l.11-.02-.58-1.36-.1.02c-1.32.15-2.59-.61-3.27-2.19-.91-2.12-.04-4.12,2.51-5.26l3.46,8.09.54-.23c3.22-1.38,4.6-4.11,3.37-6.99s-4.27-3.83-7.65-2.39h-.01c-3.41,1.46-4.75,4.25-3.45,7.27h0ZM709.98,271.44c.79,1.84.1,3.7-2.18,4.86l-2.86-6.69c2.36-.81,4.26,0,5.04,1.82h0ZM700.12,283.46l.41,1.01,5.43-.6-.59-1.47-5.25,1.06h0ZM724.51,287.33c.18.5.72.75,1.21.57.49-.17.74-.71.56-1.2-.17-.48-.71-.74-1.2-.57-.49.17-.75.72-.58,1.2h0ZM707.07,292.75l.51,1.44,15.3-5.46-.52-1.44-15.3,5.46h0ZM708.93,297.92l.46,1.41,6.59-2.17c2.08-.68,3.89.15,4.53,2.09.62,1.89-.14,3.28-2.2,3.96l-6.89,2.27.46,1.41,7.12-2.35c2.61-.86,3.71-2.83,2.9-5.29-.59-1.8-1.89-2.76-3.27-2.92l-.02-.04,1.89-.62-.46-1.41-11.12,3.66h0ZM714.05,315.02c.85,3.07,3.68,4.52,7.27,3.53h.02c3.59-1,5.25-3.7,4.41-6.76-.85-3.07-3.67-4.53-7.25-3.54h-.02c-3.58.99-5.27,3.68-4.43,6.77h0ZM715.34,314.68c-.6-2.23.69-4.15,3.55-4.94h.02c2.84-.79,4.95.2,5.56,2.41.61,2.2-.68,4.15-3.53,4.93h-.02c-2.85.79-4.97-.2-5.58-2.4h0ZM717.17,325.96l.37,1.55,12.4,1.53-.36-1.51-10.69-1.13v-.03s9.04-5.8,9.04-5.8l-.36-1.53-10.39,6.94h0ZM719.55,337.47c.34,1.7,1.58,3.03,3.07,3.38v.04s-2.09.42-2.09.42l.29,1.46,7.86-1.56c2.35-.47,3.51-2.41,2.98-5.04-.52-2.59-2.25-3.95-4.28-3.78l-.14.02.28,1.41h.11c1.35-.02,2.38.92,2.71,2.58.36,1.79-.44,3.04-2.1,3.37l-.99.2-.93-3.53c-.7-2.6-2.18-3.85-4.13-3.46h-.02c-2.03.41-3.08,2.23-2.63,4.49h0ZM722.48,334.48h.02c1.26-.26,2.24.59,2.71,2.37l.91,3.36-1.27.25c-1.83.37-3.56-.93-3.96-2.94-.31-1.56.33-2.79,1.59-3.04h0ZM721.94,350.37c.41,2.54,2.1,4.14,4.06,3.83h.01c1.62-.26,2.38-1.29,2.57-3.68l.13-1.81c.12-1.58.61-2.3,1.53-2.45h.01c1.18-.19,2.16.72,2.41,2.29.26,1.61-.45,2.78-1.77,3.18l-.08.02.23,1.41.12-.03c1.96-.51,3.14-2.32,2.74-4.79-.39-2.41-2.03-3.89-3.95-3.58h-.01c-1.6.26-2.39,1.46-2.56,3.72l-.14,1.81c-.12,1.6-.57,2.25-1.57,2.41h-.01c-1.21.2-2.19-.79-2.47-2.53-.28-1.75.41-2.96,1.71-3.41l.1-.04-.24-1.47-.1.03c-2.01.55-3.14,2.46-2.71,5.08h0ZM719.51,359.1c.25,1.99,1.28,2.82,3.45,3.34l13.13,3.09-.2-1.56-10.59-2.26v-.04s9.7-4.79,9.7-4.79l-.2-1.59-11.15,5.83-.78-.19c-1.48-.34-1.99-.96-2.16-2.27-.02-.19-.02-.38-.02-.53l-1.22.15c0,.22,0,.53.03.82h0ZM724.92,374c.28,3.17,2.8,5.11,6.52,4.78h.02c3.71-.33,5.83-2.69,5.55-5.85-.28-3.17-2.79-5.11-6.49-4.78h-.02c-3.7.33-5.85,2.67-5.58,5.85h0ZM726.24,373.89c-.19-2.3,1.43-3.96,4.39-4.22h.02c2.94-.26,4.83,1.1,5.03,3.37.2,2.28-1.41,3.96-4.36,4.22h-.02c-2.95.26-4.86-1.1-5.06-3.37h0ZM725.85,382.42l.06,1.48,6.93-.28c2.18-.09,3.7,1.21,3.78,3.25.08,1.99-1.03,3.12-3.21,3.21l-7.25.29.06,1.49,7.49-.3c2.75-.11,4.35-1.71,4.24-4.3-.08-1.89-1.06-3.17-2.35-3.7v-.04s1.99-.08,1.99-.08l-.06-1.49-11.7.47h0ZM726.38,404.65v1.59s11.67,4.43,11.67,4.43v-1.55s-10.11-3.65-10.11-3.65v-.03l10.17-3.48v-1.58s-11.73,4.27-11.73,4.27h0ZM725.82,417.58c-.11,2.53,1.26,4.46,3.25,4.95l.11.03.06-1.47-.1-.03c-1.25-.44-2.07-1.67-1.99-3.39.1-2.31,1.75-3.73,4.54-3.66l-.38,8.79.58.02c3.5.15,5.92-1.72,6.06-4.84.13-3.13-2.19-5.3-5.86-5.46h-.01c-3.7-.16-6.12,1.77-6.26,5.06h0ZM736.63,417.91c-.09,2-1.51,3.38-4.07,3.44l.31-7.27c2.48.29,3.84,1.83,3.76,3.82h0ZM724.28,436.94c-.41,3.55,1.12,6.01,3.88,6.33h.01c2.38.28,3.82-.92,4.94-4.14l.61-1.72c.78-2.28,1.82-3.23,3.32-3.05h.02c1.73.2,2.73,1.91,2.46,4.24-.26,2.28-1.6,3.7-3.52,3.72h-.15s-.18,1.53-.18,1.53h.16c2.67.12,4.74-1.93,5.1-5.04.37-3.2-1.18-5.7-3.74-6.01h-.01c-2.29-.27-3.81.99-4.88,4.04l-.6,1.72c-.84,2.42-1.84,3.32-3.43,3.14h-.01c-1.87-.22-2.88-1.99-2.58-4.52.29-2.55,1.68-4.14,3.56-4.15h.16s.18-1.52.18-1.52h-.16c-2.75-.12-4.75,2.01-5.15,5.43h0ZM736.99,448.8c-.07.54.3,1.03.85,1.11.55.08,1.03-.3,1.11-.84.08-.55-.29-1.04-.83-1.12-.55-.08-1.04.3-1.12.85h0ZM723.4,446.15l-.21,1.48,11.6,1.62.21-1.48-11.6-1.62h0ZM721.52,456.94c-.51,2.9,1.51,5.3,5.12,5.93h.01c3.6.64,6.32-.93,6.82-3.82.32-1.81-.44-3.47-1.92-4.41v-.03s6.88,1.21,6.88,1.21l.26-1.48-16-2.82-.26,1.48,2.44.43v.03c-1.75.38-3.03,1.65-3.35,3.47h0ZM722.88,456.89c.38-2.17,2.54-3.37,5.32-2.88h.01c2.77.49,4.38,2.38,4,4.53-.39,2.22-2.47,3.32-5.3,2.83h-.01c-2.85-.5-4.42-2.26-4.03-4.47h0ZM719.09,469.53c-.53,2.48.5,4.61,2.38,5.42l.1.05.31-1.44-.09-.04c-1.16-.64-1.76-1.99-1.4-3.67.48-2.26,2.35-3.39,5.09-2.85l-1.84,8.6.57.12c3.42.73,6.13-.71,6.78-3.77.65-3.06-1.28-5.59-4.87-6.36h0c-3.62-.78-6.33.73-7.02,3.95h0ZM729.69,471.65c-.42,1.96-2.05,3.09-4.59,2.72l1.52-7.11c2.4.7,3.48,2.45,3.07,4.4h0ZM717.52,477.5l-.36,1.44,7.03,1.77c1.92.48,2.89,1.82,2.48,3.43-.12.49-.3.88-.42,1.04l1.41.35c.1-.16.26-.48.36-.86.35-1.38-.26-2.6-1.55-3.35v-.04s2.05.51,2.05.51l.36-1.44-11.36-2.85h0ZM711.75,497.48c-1.27,4.01.53,7.27,4.69,8.58l1.3.41,1.98-6.27-1.29-.41-1.52,4.81-.34-.11c-3-.95-4.4-3.59-3.46-6.59,1.05-3.33,4.31-4.62,8.44-3.32h.01c4.05,1.28,5.87,4.15,4.8,7.51-.74,2.35-2.51,3.67-5.03,3.68h-.12s-.48,1.53-.48,1.53h.19c3.12.21,5.73-1.39,6.81-4.78,1.33-4.22-.86-7.9-5.7-9.43h-.01c-4.93-1.56-8.95.17-10.28,4.37h0ZM720.91,514.56c-.18.48.06,1,.54,1.17.49.18,1-.06,1.17-.54.17-.47-.05-.99-.54-1.17-.47-.18-1,.07-1.17.54h0ZM719.52,518.32c-.18.47.06,1,.54,1.17.49.18,1-.06,1.17-.54.17-.46-.05-.99-.54-1.17-.47-.18-1,.07-1.17.54h0ZM707.29,511.01c-.66,1.77-.23,3.32.74,4.32v.03s-1.88-.69-1.88-.69l-.52,1.4,10.98,4.07.52-1.4-6.5-2.41c-2.05-.76-2.95-2.53-2.24-4.46.69-1.86,2.15-2.47,4.19-1.71l6.8,2.52.52-1.4-7.03-2.61c-2.58-.96-4.67-.09-5.58,2.34h0ZM703.09,522.57l-.61,1.47,9.17,8.48.59-1.44-8.02-7.17v-.03s10.75.58,10.75.58l.6-1.46-12.49-.44h0ZM697.79,534.38c-1.05,2.3-.51,4.61,1.15,5.81l.09.07.61-1.34-.08-.06c-1-.88-1.29-2.32-.58-3.89.96-2.1,3.02-2.8,5.58-1.69l-3.65,8,.53.24c3.19,1.45,6.14.63,7.43-2.22,1.3-2.85-.04-5.74-3.38-7.26h-.01c-3.37-1.54-6.34-.66-7.7,2.34h0ZM707.69,538.74c-.83,1.82-2.67,2.57-5.07,1.66l3.02-6.62c2.19,1.2,2.87,3.14,2.05,4.96h0ZM694.58,541.84l-.67,1.33,6.2,3.11c1.95.98,2.65,2.85,1.74,4.67-.89,1.78-2.41,2.23-4.36,1.25l-6.48-3.25-.67,1.33,6.7,3.36c2.46,1.23,4.63.61,5.79-1.71.85-1.69.6-3.29-.26-4.38l.02-.04,1.78.89.67-1.33-10.47-5.25h0ZM688.57,553.6l-.71,1.3,14.25,7.81.71-1.3-14.25-7.81h0ZM697.63,565.81c-.27.47-.1,1.07.38,1.34.48.27,1.07.1,1.34-.37.27-.48.11-1.07-.37-1.35-.48-.27-1.08-.1-1.35.38h0ZM685.96,558.36l-.74,1.3,10.2,5.76.74-1.3-10.2-5.76h0ZM683.27,563.13l-.76,1.28,3.9,2.33.37,1.74-7.34,1.07-.9,1.51,8.48-1.19,1.63,7.1.95-1.59-1.79-7.76.02-.04,8.63,5.16.76-1.28-13.95-8.34h0ZM633.14,628.34l-7.05,6.82.97,1,5.95-5.75,4.34,4.48-5.65,5.46.95.99,5.65-5.46,4.06,4.2-5.95,5.75.97,1,7.05-6.82-11.3-11.68h0ZM620.77,639.75c-.27.24-.52.54-.66.73l.82.89c.11-.13.26-.32.46-.5.8-.74,1.51-.79,2.38.16l5.2,5.66-1.71,1.57.85.92,1.71-1.57,2.14,2.33,1.13-1.04-2.14-2.33,1.27-1.17-.85-.92-1.27,1.17-5.22-5.68c-1.39-1.51-2.7-1.54-4.12-.24h0ZM626.2,653.69c-.41.35-.45.97-.09,1.39.36.41.97.45,1.38.09.42-.36.47-.97.1-1.39-.36-.42-.98-.46-1.4-.09h0ZM617.67,642.78l-1.13.99,7.7,8.82,1.13-.98-7.7-8.82h0ZM613.54,646.38l-1.14.95,2.9,3.49-.23,1.77-7.28-1.44-1.35,1.12,8.39,1.7-.82,7.24,1.42-1.18.9-7.91.04-.03,6.42,7.74,1.14-.95-10.38-12.5h0ZM597.17,659.38l-1.27.95,3.53,11.98,1.24-.93-3.22-10.26.03-.02,8.92,5.99,1.26-.94-10.5-6.77h0ZM586.51,666.72c-2.08,1.44-2.8,3.7-1.99,5.58l.05.1,1.21-.84-.04-.1c-.41-1.26.08-2.66,1.5-3.63,1.9-1.31,4.03-.86,5.66,1.42l-7.24,5,.33.48c1.99,2.88,4.94,3.69,7.52,1.91,2.58-1.78,2.91-4.95.82-7.97h0c-2.1-3.06-5.11-3.82-7.81-1.95h0ZM592.76,675.54c-1.65,1.14-3.61.84-5.2-1.17l5.99-4.13c1.27,2.15.85,4.17-.79,5.3h0ZM567.78,673.01c-1.02.61-1.58,1.75-.93,2.82v.02c.63,1.02,1.67,1.13,2.74.56v1.08c-2.64,1.83-3.46,4.36-2.11,6.6h0c1.24,2.07,3.06,2.48,6.3,1.4l1.73-.57c2.28-.77,3.67-.52,4.44.77v.02c.91,1.5.16,3.33-1.85,4.53-1.97,1.18-3.91.99-5.1-.52l-.08-.12-1.32.79.09.13c1.54,2.19,4.43,2.58,7.11.97,2.76-1.66,3.8-4.41,2.48-6.63h0c-1.19-1.99-3.11-2.42-6.17-1.41l-1.73.58c-2.43.81-3.76.57-4.58-.81h0c-.97-1.62-.18-3.5,2-4.81,2.2-1.32,4.3-1.19,5.46.29l.09.13,1.32-.79-.09-.13c-1.52-2.15-4.23-2.51-7.05-.99l.02-1.31-.4-.67-.39.23c-.82.49-1.44.51-1.77-.04v-.02c-.32-.51.03-1.04.6-1.38.44-.27.95-.43,1.26-.46l-.51-.84c-.37.01-.99.23-1.56.57h0ZM558.21,683.97c-2.23,1.19-3.2,3.36-2.61,5.32l.03.11,1.3-.7-.03-.1c-.26-1.3.38-2.63,1.9-3.44,2.04-1.09,4.1-.39,5.46,2.05l-7.75,4.15.28.52c1.65,3.09,4.49,4.22,7.25,2.75,2.76-1.48,3.45-4.59,1.71-7.83h0c-1.75-3.28-4.64-4.37-7.54-2.82h0ZM563.43,693.43c-1.77.94-3.68.42-5.04-1.75l6.41-3.43c1.02,2.28.38,4.24-1.38,5.18h0ZM550.57,688.19l-1.33.67,4.7,9.34-2.24,1.13.56,1.12,2.25-1.13.73,1.46c.58,1.16.29,1.95-.73,2.46-.27.14-.54.25-.78.32l.55,1.1c.25-.08.64-.22,1.02-.41,1.75-.88,2.22-2.22,1.27-4.11l-.74-1.48,1.46-.73-.56-1.12-1.46.73-4.7-9.34h0ZM543.66,691.58l-1.34.63,4.47,9.46-2.27,1.07.53,1.13,2.28-1.08.7,1.48c.55,1.17.24,1.95-.79,2.44-.28.13-.55.24-.79.3l.52,1.11c.25-.07.65-.21,1.03-.39,1.77-.84,2.28-2.16,1.38-4.08l-.71-1.5,1.48-.7-.53-1.13-1.48.7-4.47-9.46h0ZM534.71,695.44c-1.59.68-2.64,2.17-2.68,3.7l-.04.02-.84-1.97-1.37.58,3.15,7.37c.94,2.2,3.08,2.93,5.54,1.88,2.43-1.04,3.4-3.02,2.81-4.96l-.04-.13-1.33.57.02.11c.29,1.32-.41,2.51-1.97,3.18-1.68.72-3.06.2-3.73-1.36l-.4-.93,3.27-1.64c2.4-1.22,3.32-2.93,2.53-4.76v-.02c-.82-1.9-2.82-2.56-4.94-1.65h0ZM538.25,697.69v.02c.51,1.18-.11,2.32-1.76,3.14l-3.1,1.58-.51-1.19c-.73-1.72.18-3.68,2.06-4.48,1.46-.62,2.79-.25,3.3.93h0ZM525.84,699.38l-1.38.55,3.87,9.72-2.33.93.46,1.16,2.34-.94.6,1.52c.48,1.2.12,1.96-.94,2.39-.28.11-.56.2-.81.25l.46,1.14c.26-.05.66-.17,1.05-.32,1.82-.73,2.41-2.01,1.63-3.98l-.61-1.54,1.52-.61-.46-1.16-1.52.61-3.87-9.72h0ZM509.18,705.55l-1.45.5,2.28,6.65-2.53,10.62,1.67-.57,2.04-8.85.06-.02,7.04,5.74,1.67-.57-8.51-6.83-2.28-6.65h0ZM502.91,722.06c-.48.14-.75.64-.61,1.13.14.5.64.76,1.12.63.49-.14.78-.63.63-1.13-.14-.49-.65-.76-1.14-.62h0ZM499.07,723.17c-.5.14-.77.64-.63,1.13.14.5.64.76,1.14.62.48-.14.77-.63.62-1.13-.14-.49-.65-.76-1.13-.62h0ZM497.1,709.15c-3.06.88-4.48,3.73-3.44,7.31v.02c1.04,3.58,3.76,5.21,6.81,4.33,3.06-.89,4.48-3.72,3.45-7.29v-.02c-1.04-3.57-3.74-5.23-6.82-4.35h0ZM497.46,710.42c2.22-.63,4.16.64,4.98,3.49v.02c.83,2.83-.14,4.95-2.34,5.59-2.2.63-4.15-.63-4.98-3.47v-.02c-.83-2.85.14-4.98,2.33-5.61h0ZM489.01,711.67l-1.44.36,1.68,6.73c.53,2.12-.44,3.87-2.41,4.36-1.93.48-3.26-.38-3.79-2.49l-1.76-7.03-1.44.36,1.82,7.28c.67,2.66,2.56,3.91,5.07,3.28,1.84-.46,2.89-1.68,3.15-3.05h.04s.48,1.92.48,1.92l1.44-.36-2.84-11.36h0ZM471.59,715.53c-2.48.52-4.01,2.33-3.99,4.38v.11s1.44-.31,1.44-.31v-.1c.11-1.32,1.1-2.42,2.79-2.78,2.26-.48,4.05.77,4.67,3.49l-8.6,1.82.12.57c.72,3.43,3.14,5.31,6.2,4.66,3.06-.65,4.59-3.44,3.83-7.04h0c-.77-3.64-3.24-5.49-6.46-4.81h0ZM473.96,726.08c-1.96.41-3.65-.62-4.35-3.09l7.12-1.51c.34,2.47-.82,4.18-2.77,4.59h0ZM460.19,717.68c-.35.06-.72.17-.95.26l.21,1.2c.16-.05.39-.12.66-.17,1.08-.19,1.7.15,1.92,1.43l1.32,7.58-2.28.4.21,1.23,2.29-.4.54,3.12,1.51-.26-.54-3.12,1.7-.3-.21-1.23-1.7.3-1.32-7.6c-.35-2.02-1.44-2.76-3.34-2.42h0ZM457.25,732.37c-.54.08-.9.58-.82,1.12.08.55.58.9,1.11.83.55-.08.92-.57.84-1.12-.08-.54-.58-.91-1.13-.83h0ZM455.95,718.58l-1.48.22,1.73,11.58,1.48-.22-1.73-11.58h0ZM446.3,714.88c-1.18.15-2.15.96-1.99,2.2v.02c.15,1.18,1.06,1.71,2.28,1.61l-.46,1.04c-2.25.46-3.67,1.99-3.44,3.83h0c.2,1.64,1.2,2.44,3.58,2.71l1.81.2c1.58.18,2.28.69,2.39,1.62h0c.15,1.2-.8,2.14-2.38,2.34-1.62.2-2.76-.55-3.12-1.88l-.02-.08-1.42.18.03.12c.44,1.98,2.21,3.22,4.69,2.91,2.42-.3,3.96-1.89,3.72-3.82h0c-.2-1.62-1.37-2.45-3.63-2.7l-1.81-.2c-1.6-.18-2.23-.65-2.35-1.66h0c-.15-1.23.87-2.17,2.62-2.39s2.95.52,3.35,1.83l.03.1,1.48-.18-.02-.1c-.45-1.88-2.09-3.05-4.44-2.94l.57-1.25-.1-.77-.44.05c-.96.12-1.53-.11-1.61-.75v-.02c-.08-.59.47-.93,1.12-1.01.51-.06,1.04,0,1.34.09l-.12-.97c-.35-.14-1-.19-1.66-.11h0ZM439.69,734.58c-.54.05-.93.53-.88,1.08s.54.93,1.07.88c.55-.06.94-.53.89-1.07-.06-.55-.54-.94-1.09-.89h0ZM439.06,720.75l-1.49.15,1.17,11.65,1.49-.15-1.17-11.65h0ZM433.76,721.4l-1.48.08.38,7.19c.11,2-1.06,3.45-2.78,3.54-1.6.08-2.73-.96-2.82-2.64l-.41-7.79-1.5.08.39,7.37c.1,1.88-1.02,3.27-2.76,3.36-1.7.09-2.77-.95-2.86-2.77l-.4-7.66-1.48.08.42,7.99c.12,2.37,1.7,3.82,3.99,3.7,1.78-.09,3.06-1.19,3.55-2.67h.03c.52,1.46,1.8,2.38,3.51,2.3,1.64-.09,2.79-1.07,3.2-2.39h.04s.1,2.01.1,2.01l1.49-.08-.61-11.7h0ZM339.91,715.39l-1.51-.32-3.1,14.52-5.25-1.12-.29,1.37,12,2.56.29-1.36-5.24-1.12,3.1-14.52h0ZM328.6,712.56c-3.09-.78-5.75.97-6.66,4.58v.02c-.91,3.61.62,6.39,3.7,7.16,3.09.78,5.75-.96,6.65-4.56v-.02c.91-3.6-.59-6.4-3.69-7.19h0ZM328.27,713.84c2.24.57,3.27,2.65,2.55,5.53v.02c-.72,2.86-2.63,4.2-4.85,3.65-2.22-.56-3.27-2.63-2.55-5.51v-.02c.73-2.87,2.64-4.23,4.85-3.67h0ZM321.48,706.91l-1.42-.43-1.85,6.11h-.04c-.16-1.7-1.27-3.17-3.05-3.72-2.81-.85-5.42.85-6.49,4.36h0c-1.06,3.51.15,6.4,2.99,7.26,1.8.55,3.5-.09,4.58-1.42h.04s-.72,2.38-.72,2.38l1.42.43,4.54-14.98h0ZM314.99,710.22c2.1.64,3.05,2.91,2.23,5.62h0c-.82,2.73-2.86,4.1-4.98,3.46-2.15-.65-3.01-2.84-2.17-5.61h0c.83-2.76,2.76-4.11,4.92-3.46h0ZM307.23,706.64l-1.41-.47-5.09,15.43,1.41.46,5.09-15.43h0ZM298.43,703.41c-1.78-.64-3.33-.2-4.31.79h-.03s.67-1.89.67-1.89l-1.41-.5-3.94,11.03,1.41.5,2.33-6.53c.73-2.06,2.5-2.98,4.43-2.29,1.87.67,2.49,2.12,1.77,4.17l-2.44,6.83,1.41.5,2.52-7.06c.92-2.59.03-4.68-2.41-5.55h0ZM289.83,700.58l-1.37-.58-2.83,6.62c-.79,1.84-2.47,2.63-4.05,1.95-1.47-.63-2.03-2.07-1.37-3.61l3.06-7.18-1.38-.59-2.9,6.78c-.74,1.73-2.36,2.48-3.95,1.8-1.56-.67-2.07-2.07-1.35-3.75l3.01-7.05-1.37-.58-3.14,7.36c-.93,2.19-.16,4.18,1.96,5.08,1.64.7,3.27.28,4.36-.83h.03c-.18,1.55.57,2.95,2.14,3.62,1.51.65,2.97.27,3.93-.73l.04.02-.79,1.85,1.37.58,4.6-10.77h0ZM268.49,690.93c-2.31-1.12-4.6-.67-5.47,1.12h0c-.72,1.49-.32,2.7,1.53,4.22l1.41,1.15c1.22,1.01,1.53,1.82,1.12,2.66h0c-.52,1.08-1.83,1.36-3.26.67-1.47-.71-2.01-1.97-1.59-3.28l.02-.07-1.29-.63-.04.12c-.71,1.9.09,3.9,2.34,4.99,2.2,1.07,4.35.58,5.21-1.18h0c.71-1.47.18-2.8-1.57-4.24l-1.4-1.16c-1.24-1.02-1.51-1.76-1.07-2.67h0c.54-1.11,1.9-1.35,3.49-.58,1.59.77,2.19,2.04,1.81,3.36l-.02.1,1.34.65.03-.1c.7-1.96-.21-3.98-2.6-5.14h0ZM258.62,686c-1.53-.82-3.34-.69-4.56.24l-.04-.02,1.01-1.89-1.31-.7-3.77,7.08c-1.13,2.12-.36,4.24,2.01,5.5,2.34,1.24,4.48.76,5.63-.92l.07-.11-1.27-.68-.07.09c-.84,1.06-2.21,1.26-3.71.46-1.61-.86-2.07-2.26-1.28-3.75l.48-.89,3.33,1.52c2.46,1.11,4.36.75,5.3-1.01v-.02c.98-1.83.24-3.79-1.79-4.88h0ZM259.08,690.17v.02c-.61,1.13-1.89,1.36-3.57.59l-3.17-1.42.61-1.14c.88-1.65,2.98-2.16,4.79-1.2,1.4.75,1.95,2.02,1.35,3.15h0ZM250.42,681.81l-1.29-.73-7.99,14.15,1.29.73,7.99-14.15h0ZM240.54,676.11l-1.29-.82-3.56,5.63-3.38-2.14c-.09-.05-.2-.13-.28-.17l.4-7.62-1.52-.96-.36,7.94c-2.13-.68-4.16.07-5.38,2.01v.02c-1.56,2.45-.84,5.1,1.85,6.8l4.85,3.06,8.68-13.74h0ZM234.96,682.07l-3.66,5.8-3.4-2.15c-1.99-1.26-2.53-3.1-1.39-4.91v-.02c1.17-1.83,3.01-2.15,5-.9l3.45,2.18h0ZM224.85,665.62c-2.09-1.43-4.45-1.29-5.92.13l-.08.08,1.22.83.08-.07c1.04-.83,2.51-.87,3.93.1,1.9,1.3,2.24,3.46.7,5.79l-7.25-4.97-.33.48c-1.98,2.89-1.68,5.93.9,7.7,2.58,1.77,5.66.95,7.74-2.08h0c2.09-3.06,1.73-6.14-.98-8h0ZM218.85,674.61c-1.65-1.13-2.07-3.07-.77-5.28l6,4.11c-1.55,1.95-3.59,2.29-5.23,1.16h0ZM217.61,660.73l-1.19-.89-6.23,8.4-2.02-1.5-.74,1,2.02,1.5-.97,1.31c-.77,1.04-1.61,1.13-2.52.45-.24-.18-.47-.37-.64-.56l-.73.99c.18.19.49.48.82.72,1.57,1.17,2.98.99,4.24-.71l.99-1.33,1.31.97.74-1-1.31-.97,6.23-8.4h0ZM209.98,654.68c-1.37-1.07-3.17-1.26-4.54-.56l-.04-.03,1.32-1.69-1.17-.91-4.94,6.32c-1.48,1.89-1.08,4.11,1.03,5.76,2.09,1.63,4.28,1.52,5.7.07l.09-.1-1.14-.89-.09.08c-1.01.89-2.4.86-3.74-.19-1.44-1.12-1.65-2.59-.61-3.92l.62-.8,3.01,2.07c2.23,1.52,4.16,1.5,5.39-.08v-.02c1.29-1.63.9-3.69-.92-5.12h0ZM209.71,658.86v.02c-.81,1.01-2.1,1.01-3.62-.03l-2.88-1.95.8-1.02c1.15-1.47,3.31-1.62,4.92-.35,1.25.98,1.57,2.33.78,3.34h0ZM202.63,649.13l-1.13-.98-4.52,5.22c-1.42,1.64-3.43,1.9-4.96.57-1.51-1.31-1.57-3.09-.06-4.83l4.56-5.27-1.13-.98-4.72,5.45c-1.88,2.17-1.81,4.66.11,6.32,1.41,1.22,3.04,1.43,4.43.74l.03.02-4.37,5.05,1.13.98,10.64-12.28h0ZM190.24,637.94c-1.27-1.18-3.05-1.54-4.47-.96l-.03-.03,1.46-1.56-1.09-1.02-5.47,5.86c-1.64,1.75-1.44,4,.52,5.83,1.93,1.81,4.13,1.89,5.68.57l.1-.09-1.05-.98-.09.07c-1.09.8-2.46.64-3.71-.52-1.33-1.25-1.41-2.72-.26-3.96l.69-.74,2.82,2.33c2.09,1.71,4.01,1.85,5.38.4l.02-.02c1.41-1.51,1.21-3.6-.48-5.18h0ZM189.61,642.08v.02c-.89.94-2.19.82-3.6-.35l-2.7-2.2.89-.95c1.28-1.37,3.44-1.32,4.93.08,1.16,1.08,1.36,2.46.48,3.39h0ZM179.1,627.59l-1.05-1.11-4.22,3.98-2.95.04,1.53-10-1.35-1.43-1.71,11.4-9.65.23,1.33,1.41,11.31-.33.05.05-6.15,5.8,1.05,1.11,11.82-11.15h0ZM167.41,614.67c-1.14-1.31-2.88-1.84-4.35-1.4l-.03-.03,1.61-1.41-.98-1.12-6.04,5.27c-1.81,1.58-1.84,3.83-.08,5.85,1.74,1.99,3.92,2.3,5.59,1.14l.11-.08-.95-1.09-.1.06c-1.16.69-2.52.39-3.63-.89-1.2-1.37-1.13-2.85.14-3.96l.76-.67,2.57,2.6c1.91,1.91,3.81,2.25,5.31.94h.02c1.56-1.38,1.57-3.48.05-5.21h0ZM166.36,618.73h-.02c-.97.86-2.24.61-3.53-.7l-2.46-2.46.97-.85c1.41-1.23,3.55-.97,4.9.58,1.04,1.2,1.1,2.58.14,3.42h0ZM159.24,605.09c-.23-.28-.51-.54-.7-.7l-.94.78c.12.11.3.28.48.48.7.84.71,1.54-.29,2.37l-5.92,4.91-1.48-1.79-.96.8,1.48,1.78-2.44,2.02.98,1.18,2.43-2.02,1.1,1.33.96-.8-1.1-1.33,5.94-4.93c1.58-1.31,1.67-2.62.45-4.1h0ZM156.29,601.87l-.9-1.18-3.6,2.76-1.76-.3,1.71-7.22-1.07-1.39-2.02,8.32-7.2-1.1,1.12,1.46,7.87,1.2.03.04-7.98,6.12.91,1.18,12.89-9.89h0ZM149.08,592.41l-.88-1.21-9.47,6.89.88,1.21,9.47-6.89h0ZM109.93,522.56l-.57-1.43-13.8,5.5-1.99-4.99-1.3.52,4.55,11.4,1.3-.52-1.99-4.98,13.79-5.5h0ZM105.96,511.61c-.85-2.39-2.85-3.66-4.87-3.37l-.11.02.49,1.39h.1c1.33-.08,2.55.75,3.12,2.38.78,2.17-.22,4.12-2.83,5.1l-2.95-8.28-.55.2c-3.3,1.18-4.84,3.82-3.79,6.77,1.05,2.95,4.03,4.09,7.48,2.85h.01c3.49-1.25,5-3.95,3.89-7.05h0ZM95.82,515.37c-.67-1.89.13-3.7,2.48-4.72l2.44,6.85c-2.4.67-4.25-.25-4.92-2.13h0ZM103.09,504.01l-.46-1.41-6.89,2.27c-1.88.62-3.41,0-3.93-1.57-.16-.48-.21-.9-.2-1.11l-1.38.45c0,.19.04.54.16.92.44,1.35,1.61,2.05,3.1,2v.04s-1.99.66-1.99.66l.46,1.41,11.12-3.66h0ZM99.66,492.36c-.71-2.45-2.78-3.82-4.97-3.54l-.09.02.41,1.42h.09c1.5-.07,2.8.8,3.29,2.48.63,2.18-.66,4.14-3.49,4.96h-.01c-2.79.81-4.97-.12-5.6-2.31-.51-1.75.22-3.17,1.45-3.87l.08-.05-.41-1.41-.09.04c-1.85.84-3.06,3.03-2.31,5.65.89,3.08,3.75,4.45,7.28,3.43h.01c3.58-1.04,5.27-3.68,4.36-6.81h0ZM83.77,487.57c-.14-.52-.67-.83-1.21-.69-.53.14-.84.67-.7,1.2.14.53.67.85,1.2.71.53-.14.85-.68.71-1.21h0ZM97.33,484.79l-.38-1.45-11.33,2.98.38,1.45,11.32-2.98h0ZM95.91,479.54l-.33-1.46-6.74,1.51c-2.12.48-3.89-.51-4.33-2.49-.44-1.95.57-3.42,2.83-3.92l6.8-1.52-.33-1.46-7.03,1.58c-2.8.63-4.22,2.68-3.67,5.15.41,1.82,1.6,2.95,3.12,3.22v.03s-6.51,1.46-6.51,1.46l.33,1.46,15.85-3.56h0ZM91.85,460.63l-1.57-9.68-1.38.22,1.32,8.17-6.16,1-1.25-7.76-1.36.22,1.25,7.76-5.77.93-1.32-8.17-1.38.22,1.56,9.68,16.04-2.59h0ZM89.42,443.19c-.23-1.83-1.44-3.16-3.12-3.63v-.04s2.41-.3,2.41-.3l-.18-1.49-16.12,2.01.19,1.49,6.93-.86v.03c-1.52.86-2.36,2.48-2.14,4.31.36,2.9,2.99,4.61,6.62,4.15h.01c3.63-.45,5.77-2.74,5.41-5.67h0ZM88.07,443.07c.28,2.23-1.37,3.9-4.25,4.26h-.01c-2.85.36-4.87-.85-5.15-3.09-.27-2.17,1.43-3.97,4.23-4.32h.01c2.8-.35,4.9.95,5.17,3.14h0ZM74.3,434.28c-.05-.54-.52-.94-1.07-.89-.55.05-.94.52-.89,1.06.05.55.51.95,1.06.9.55-.05.95-.53.9-1.07h0ZM88.14,433.81l-.13-1.49-11.66,1.03.13,1.49,11.67-1.03h0ZM87.67,428.4l-.11-1.48-16.2,1.24.11,1.48,16.2-1.24h0ZM87.24,418.36c-.13-2.53-1.68-4.32-3.7-4.62l-.11-.02.08,1.47.1.02c1.29.32,2.22,1.46,2.31,3.18.12,2.3-1.39,3.88-4.17,4.08l-.46-8.78-.58.03c-3.5.18-5.73,2.27-5.57,5.4.16,3.13,2.69,5.07,6.35,4.88h.01c3.7-.19,5.92-2.35,5.75-5.63h0ZM76.45,419.06c-.11-2,1.18-3.51,3.72-3.81l.38,7.26c-2.49-.05-4-1.46-4.1-3.45h0ZM86.67,410.26v-1.49s-6.94.03-6.94.03c-2.18.01-3.65-1.35-3.66-3.38,0-1.99,1.15-3.08,3.32-3.09l7.25-.03v-1.49s-7.51.03-7.51.03c-2.75.01-4.41,1.55-4.39,4.14,0,1.89.95,3.2,2.21,3.78v.05h-1.99s0,1.5,0,1.5l11.71-.05h0ZM68.64,389.5c.02-.53-.39-.96-.9-.99-.52-.02-.95.38-.97.9-.02.51.38.95.89.97.52.02.96-.39.99-.89h0ZM86.84,391.04l.07-1.53-16.23-.7-.07,1.53,16.23.7h0ZM92.32,382.12c.08-1.19-.54-2.29-1.78-2.38h-.02c-1.19-.08-1.88.71-2.02,1.93l-.94-.65c-.03-2.29-1.26-3.98-3.11-4.1h-.01c-1.64-.11-2.61.71-3.33,3l-.53,1.74c-.47,1.52-1.11,2.1-2.04,2.04h-.01c-1.19-.08-1.94-1.19-1.83-2.78.11-1.63,1.07-2.6,2.44-2.7h.08s.1-1.43.1-1.43h-.12c-2.02.06-3.58,1.56-3.75,4.05-.16,2.44,1.1,4.25,3.05,4.38h.01c1.62.11,2.65-.88,3.33-3.05l.55-1.74c.48-1.54,1.06-2.06,2.08-1.99h.01c1.23.08,1.96,1.26,1.84,3.02-.12,1.76-1.07,2.79-2.43,2.94l-.1.02-.1,1.48h.1c1.93-.09,3.39-1.48,3.73-3.8l1.12.8.77.05.03-.44c.06-.97.4-1.49,1.04-1.44h.02c.59.04.83.64.78,1.3-.04.52-.19,1.03-.35,1.3l.98.07c.2-.31.38-.94.42-1.61h0ZM88.22,370.76l.16-1.58-11.2-5.52-.16,1.55,9.73,4.59v.03s-10.46,2.5-10.46,2.5l-.16,1.57,12.1-3.13h0ZM89.97,357.94c.35-2.51-.83-4.56-2.76-5.24l-.11-.04-.2,1.46.1.04c1.21.56,1.9,1.86,1.66,3.56-.32,2.29-2.1,3.55-4.87,3.21l1.21-8.71-.58-.08c-3.47-.48-6.06,1.14-6.49,4.24-.43,3.1,1.68,5.49,5.32,5.99h.01c3.67.51,6.26-1.18,6.71-4.44h0ZM79.25,356.58c.28-1.98,1.83-3.22,4.38-3.04l-1.01,7.2c-2.44-.52-3.65-2.19-3.38-4.17h0ZM90.98,349.88l.26-1.46-7.14-1.26c-1.95-.34-3.01-1.61-2.72-3.25.09-.5.24-.9.35-1.07l-1.43-.25c-.09.17-.23.5-.29.89-.25,1.4.45,2.57,1.79,3.23v.04s-2.08-.37-2.08-.37l-.26,1.46,11.53,2.03h0ZM93.42,337.97c.5-2.48-.56-4.6-2.44-5.4l-.11-.05-.29,1.45.1.04c1.17.63,1.79,1.97,1.45,3.66-.45,2.26-2.31,3.42-5.05,2.91l1.73-8.62-.57-.11c-3.43-.69-6.12.78-6.73,3.85-.62,3.07,1.35,5.58,4.95,6.3h.01c3.63.73,6.32-.81,6.97-4.03h0ZM82.79,335.97c.4-1.97,2.02-3.11,4.55-2.77l-1.43,7.13c-2.41-.67-3.51-2.41-3.12-4.36h0ZM94.89,329.98l.36-1.44-6.73-1.69c-2.12-.53-3.21-2.21-2.71-4.19.49-1.93,1.87-2.7,3.98-2.17l7.03,1.77.36-1.44-7.27-1.83c-2.66-.67-4.65.41-5.29,2.92-.46,1.83.12,3.34,1.2,4.21v.04s-1.94-.49-1.94-.49l-.36,1.44,11.36,2.86h0ZM127.01,247.3c1.76-3.11,1.3-5.97-1.12-7.34h-.01c-2.09-1.18-3.88-.64-6.17,1.89l-1.23,1.35c-1.61,1.79-2.93,2.26-4.25,1.52h-.02c-1.52-.87-1.77-2.83-.62-4.87,1.13-2,2.92-2.79,4.69-2.06l.13.06.76-1.34-.14-.07c-2.42-1.15-5.13-.06-6.66,2.66-1.58,2.8-1.13,5.71,1.11,6.99h0c2.01,1.14,3.89.58,6.06-1.82l1.22-1.36c1.72-1.9,2.99-2.34,4.38-1.56h.01c1.64.93,1.88,2.95.63,5.17-1.26,2.24-3.15,3.16-4.89,2.44l-.14-.07-.76,1.34.14.07c2.49,1.17,5.16,0,6.86-3.01h0ZM133.91,235.42c1.67-2.71.8-5.77-2.38-7.72h-.02c-3.17-1.96-6.28-1.34-7.95,1.37-1.67,2.71-.81,5.77,2.36,7.71h.02c3.17,1.96,6.28,1.36,7.96-1.36h0ZM132.78,234.71c-1.22,1.96-3.51,2.33-6.04.77h-.02c-2.51-1.56-3.22-3.78-2.03-5.72,1.2-1.95,3.5-2.33,6.02-.78h.02c2.52,1.56,3.24,3.79,2.04,5.74h0ZM138.23,228.13l.82-1.24-6.03-4.02c-1.65-1.1-2.11-2.68-1.18-4.07.28-.42.58-.72.75-.84l-1.21-.81c-.15.12-.41.36-.62.69-.79,1.18-.62,2.54.34,3.68l-.02.04-1.75-1.17-.83,1.24,9.74,6.5h0ZM145.23,218.21c1.09-1.55,1.08-3.15.39-4.37l.02-.03,1.63,1.15.86-1.22-9.57-6.74-.86,1.22,5.67,3.99c1.79,1.26,2.21,3.21,1.03,4.88-1.14,1.62-2.71,1.84-4.49.59l-5.93-4.17-.86,1.22,6.13,4.32c2.25,1.58,4.5,1.28,5.99-.84h0ZM150.26,210.68l.93-1.16-5.61-4.5c-1.56-1.25-1.87-3.09-.79-4.43,1-1.25,2.54-1.4,3.85-.35l6.09,4.88.94-1.17-5.75-4.61c-1.47-1.18-1.76-2.94-.67-4.29,1.06-1.33,2.55-1.43,3.97-.29l5.98,4.8.93-1.16-6.24-5.01c-1.85-1.49-3.99-1.28-5.42.52-1.11,1.39-1.15,3.07-.37,4.42l-.02.03c-1.43-.59-2.98-.24-4.05,1.09-1.03,1.28-1.05,2.79-.35,3.98l-.03.04-1.57-1.26-.93,1.16,9.14,7.33h0ZM162.56,195.54l.97-1.12-12.28-10.64-.97,1.12,12.28,10.64h0ZM168.89,188.63c1.27-1.4,1.46-2.99.93-4.28l.02-.03,1.47,1.34,1.01-1.11-8.66-7.89-1.01,1.11,5.13,4.67c1.62,1.47,1.79,3.46.41,4.97-1.33,1.47-2.92,1.48-4.53.02l-5.36-4.88-1.01,1.11,5.54,5.05c2.03,1.85,4.3,1.83,6.04-.08h0ZM181.29,175.36l1.13-1.12-5.16-11.38-1.1,1.09,4.61,9.72-.02.02-9.67-4.7-1.12,1.11,11.34,5.25h0ZM190.81,166.6c1.87-1.71,2.26-4.05,1.2-5.8l-.06-.1-1.09,1,.05.09c.58,1.2.29,2.64-.98,3.81-1.7,1.56-3.88,1.41-5.8-.62l6.47-5.95-.4-.43c-2.37-2.58-5.41-2.97-7.71-.85-2.31,2.12-2.19,5.3.29,8.01h0c2.51,2.74,5.59,3.07,8,.85h0ZM183.4,158.73c1.47-1.36,3.46-1.33,5.31.44l-5.36,4.92c-1.55-1.95-1.42-4.01.04-5.36h0ZM201.35,157.04l1.19-.96-3.65-4.51.18-2.94,9.85,2.28,1.53-1.24-11.23-2.57.5-9.64-1.51,1.22-.53,11.3-.05.04-5.32-6.58-1.19.96,10.22,12.63h0ZM215.17,146.43c1.39-1.04,2.05-2.73,1.73-4.23l.04-.03,1.28,1.71,1.19-.89-4.8-6.42c-1.44-1.92-3.68-2.13-5.83-.52-2.12,1.58-2.59,3.74-1.56,5.49l.07.11,1.15-.86-.05-.1c-.6-1.21-.2-2.54,1.16-3.56,1.46-1.09,2.93-.91,3.94.44l.61.81-2.79,2.36c-2.05,1.76-2.53,3.62-1.34,5.22v.02c1.26,1.66,3.35,1.82,5.2.44h0ZM211.2,145.08v-.02c-.78-1.03-.44-2.28.96-3.47l2.63-2.27.78,1.04c1.12,1.5.69,3.61-.95,4.84-1.27.95-2.66.9-3.43-.12h0ZM224.55,144.11l1.23-.83-3.56-5.3.04-.02c1.41.94,3.25,1.02,4.8-.02,2.44-1.64,2.77-4.74.73-7.79h0c-2.04-3.05-5.04-3.93-7.51-2.28-1.56,1.05-2.14,2.77-1.8,4.45l-.04.02-1.38-2.06-1.23.83,8.73,12.99h0ZM226.09,136.98c-1.82,1.22-4.18.52-5.76-1.83h0c-1.58-2.36-1.35-4.81.48-6.04,1.87-1.26,4.1-.53,5.72,1.87h0c1.6,2.39,1.43,4.74-.44,6h0ZM237.19,131.32c2.18-1.35,3.02-3.53,1.97-5.22h0c-.86-1.41-2.1-1.72-4.38-.97l-1.72.58c-1.51.49-2.36.32-2.85-.48h0c-.63-1.03-.16-2.28,1.19-3.11,1.39-.86,2.74-.65,3.62.41l.05.06,1.22-.75-.07-.1c-1.22-1.61-3.35-2.01-5.47-.69-2.08,1.28-2.81,3.37-1.79,5.03h0c.85,1.39,2.26,1.66,4.42.94l1.73-.57c1.53-.51,2.3-.33,2.83.53h0c.65,1.05.11,2.33-1.39,3.27-1.5.93-2.89.76-3.81-.27l-.07-.07-1.26.78.06.08c1.28,1.64,3.47,1.96,5.73.56h0ZM246.64,125.62c1.51-.86,2.38-2.45,2.25-3.98l.04-.02,1.06,1.86,1.29-.73-3.96-6.97c-1.18-2.09-3.39-2.57-5.72-1.25-2.3,1.31-3.04,3.38-2.24,5.25l.06.12,1.25-.71-.04-.11c-.44-1.28.12-2.54,1.6-3.38,1.59-.9,3.02-.54,3.86.93l.5.88-3.06,2c-2.25,1.49-2.97,3.28-1.99,5.01v.02c1.03,1.8,3.09,2.23,5.1,1.09h0ZM242.88,123.78v-.02c-.64-1.12-.15-2.32,1.39-3.32l2.9-1.92.64,1.13c.92,1.62.23,3.67-1.55,4.68-1.38.78-2.75.56-3.38-.55h0ZM256.99,124.08c1.78-.92,2.2-2.18,1.93-4.39l-1.66-13.39-1.4.73,1.55,10.71-.04.02-7.86-7.44-1.42.74,9.34,8.44.1.8c.2,1.51-.21,2.2-1.38,2.81-.17.09-.35.16-.49.2l.57,1.09c.21-.07.5-.18.76-.32h0ZM265.12,115.49l1.35-.66-5.13-10.53-1.35.66,5.13,10.52h0ZM274.31,111.38c2.32-1.06,3.36-3.31,2.77-5.44l-.03-.09-1.34.61.02.09c.29,1.48-.39,2.89-1.97,3.61-2.07.95-4.19-.04-5.42-2.72h0c-1.21-2.65-.61-4.94,1.47-5.89,1.66-.76,3.17-.25,4.04.87l.06.07,1.33-.61-.05-.09c-1.1-1.71-3.45-2.58-5.92-1.45-2.92,1.33-3.85,4.36-2.32,7.71h0c1.55,3.4,4.41,4.68,7.37,3.32h0ZM281.46,107.98l1.38-.57-4.47-10.82-1.38.57,4.47,10.82h0ZM292.05,103.64l5.44-1.94c3.39-1.21,4.7-3.47,3.78-6.07v-.02c-.76-2.11-2.79-3.01-5.05-2.49v-.03c1.59-.88,2.24-2.8,1.64-4.49v-.02c-.81-2.26-3.13-3.14-5.82-2.18l-5.45,1.94,5.46,15.3h0ZM292.19,87.78c2.08-.74,3.66-.19,4.25,1.45v.02c.65,1.81-.36,3.36-2.68,4.19l-3.3,1.18-1.97-5.52,3.7-1.32h0ZM294.57,94.56c2.6-.93,4.5-.4,5.18,1.52v.02c.68,1.88-.28,3.44-2.93,4.38l-3.8,1.35-2.13-5.97,3.67-1.31h0ZM309.08,97.98c1.65-.52,2.84-1.9,3.03-3.42h.04s.64,2.03.64,2.03l1.42-.45-2.41-7.65c-.72-2.29-2.78-3.22-5.33-2.41-2.52.8-3.68,2.67-3.29,4.66l.03.13,1.37-.43v-.11c-.18-1.34.64-2.46,2.26-2.97,1.74-.55,3.07.11,3.58,1.72l.3.97-3.41,1.31c-2.51.98-3.59,2.59-2.99,4.49v.02c.63,1.98,2.55,2.82,4.75,2.13h0ZM305.78,95.39v-.02c-.39-1.22.34-2.3,2.06-2.96l3.24-1.27.39,1.24c.56,1.78-.54,3.64-2.49,4.26-1.51.48-2.81-.02-3.19-1.25h0ZM317.72,95.11l1.43-.4-1.85-6.69c-.58-2.1.34-3.88,2.31-4.42,1.92-.53,3.27.3,3.85,2.4l1.93,6.99,1.43-.4-2-7.23c-.73-2.65-2.65-3.85-5.15-3.16-1.82.5-2.84,1.76-3.07,3.13h-.04s-.53-1.91-.53-1.91l-1.43.39,3.12,11.29h0ZM330.52,91.67l1.45-.33-.99-4.43,1.01-1.47,5.83,4.59,1.71-.38-6.7-5.33,4.03-6.07-1.8.4-4.4,6.64h-.04s-2.2-9.8-2.2-9.8l-1.45.33,3.56,15.85h0ZM345.34,88.7c1.7-.32,3.05-1.54,3.42-3.03h.04s.39,2.09.39,2.09l1.46-.27-1.47-7.88c-.44-2.36-2.37-3.53-5-3.04-2.6.49-3.98,2.21-3.83,4.23v.13s1.43-.26,1.43-.26v-.11c0-1.35.95-2.36,2.62-2.68,1.79-.33,3.03.48,3.34,2.14l.19,1-3.54.89c-2.61.67-3.87,2.13-3.51,4.09v.02c.38,2.04,2.19,3.11,4.46,2.69h0ZM342.38,85.73v-.02c-.24-1.26.62-2.24,2.4-2.68l3.37-.87.24,1.27c.34,1.84-.98,3.55-2.99,3.93-1.56.29-2.78-.36-3.02-1.62h0ZM358.98,86.37c2.53-.38,4.15-2.25,4.17-4.46v-.09s-1.46.22-1.46.22v.09c-.14,1.5-1.18,2.67-2.91,2.93-2.25.34-4.01-1.2-4.45-4.12h0c-.43-2.88.78-4.92,3.04-5.26,1.8-.27,3.11.64,3.64,1.95l.04.09,1.45-.22-.03-.1c-.59-1.95-2.6-3.44-5.29-3.04-3.17.47-4.91,3.12-4.36,6.77h0c.55,3.7,2.95,5.72,6.17,5.24h0ZM366.79,85.08l1.49-.18-1.45-11.62-1.49.19,1.45,11.62h0ZM372.19,84.45l1.48-.15-1.62-16.17-1.48.15,1.62,16.17h0ZM377.58,83.93l1.49-.13-1.03-11.67-1.49.13,1.03,11.66h0ZM383.04,83.47l1.48-.1-.29-4.53,1.22-1.3,5.04,5.44,1.75-.11-5.79-6.31,4.92-5.37-1.84.12-5.38,5.87h-.05s-.65-10.03-.65-10.03l-1.48.1,1.04,16.22h0Z"/>
</svg>