<svg xmlns="http://www.w3.org/2000/svg" xmlns:xlink="http://www.w3.org/1999/xlink" width="142.003" height="60.95" viewBox="0 0 142.003 60.95">
  <defs>
    <clipPath id="clip-path">
      <rect id="Rectangle_4" data-name="Rectangle 4" width="142.003" height="60.95" fill="none"/>
    </clipPath>
  </defs>
  <g id="Group_9" data-name="Group 9" transform="translate(0 0)">
    <g id="Group_8" data-name="Group 8" transform="translate(0 0)" clip-path="url(#clip-path)">
      <path id="Path_2" data-name="Path 2" d="M85.326,26.469c-.256.023-.515.034-.778.04.263-.025.523-.034.778-.04a8.859,8.859,0,0,0,7.993-5.706,33.262,33.262,0,0,0,1.655-8.273,8.16,8.16,0,0,0-7.621-8.3L61.62,4.239,51.84,48.384l1.772,8.367H80.98c4.833-.626,8.769-3.452,10.175-7.856A79.519,79.519,0,0,0,94.076,35.78c.132-5.432-3.563-9.391-8.75-9.311M79.46,44.795a6.218,6.218,0,0,1-1.52,2.315c-1.84,1.6-4.257,1.274-5.27,1.274H66.893l3.933-18.029h7.3c2.6-.069,3.5,2.666,3.683,3.709-.183,1.968-1.84,9.849-2.348,10.73m2.6-24.242a3.7,3.7,0,0,1-3.038,1.924H72.348l2.163-9.988h7.114a1.82,1.82,0,0,1,1.84,1.667,23.29,23.29,0,0,1-1.4,6.4" transform="translate(47.028 3.804)"/>
      <path id="Path_3" data-name="Path 3" d="M64.652,60.555H49.713L40.505,28.017,68.472,0H79.845L54.685,25.331Z" transform="translate(36.746 0.001)" fill="#db052c"/>
      <path id="Path_4" data-name="Path 4" d="M0,16.826H4.051c.322-2.826,1.795-4.032,4.512-4.1h5.546L5.2,52.191c-.114,3.2,1.726,5.006,5.456,4.8l13.741.069v-.395c-1.978-.3-3.82-.879-3.935-3.708l8.815-40.346h3.753L30.36,25.193c.069,3.477,1.726,5.075,4.329,6.28l10.543,6.212c5.155,4.148,2.231,10.938-3.568,10.938l-8.2.116c-2.279-.511-3.177-2.109-3.292-4.219H25.85l-1.7,7.995c-.069,2.758,1.957,4.358,4.51,4.289l16.758.113a11.961,11.961,0,0,0,12.017-7.345l-.441,2.55c-.067,2.687.877,4.032,3.614,4.541H75.8v-.256c-2.487-.114-3.936-1.644-3.891-3.961L81.326,8.39c-.208-2.388-1.337-3.778-3.82-4.1l-14.043.069c.069,0,.252.3.252.3a4.183,4.183,0,0,1,2.741,4.356l-5.6,25.331A8.094,8.094,0,0,0,57.938,28.2L44.908,20.4c-2.025-1.02-2.716-2.157-2.784-4.009.254-2.18,1.013-3.523,3.292-3.849L59.2,12.47c2.6-.58,3.246-1.854,3.566-4.034l.83-4.078H6.214C3.683,4.29,2.163,5.633,1.7,8.322Z" transform="translate(0 3.892)"/>
    </g>
  </g>
</svg>
