<svg version="1.2" xmlns="http://www.w3.org/2000/svg" viewBox="0 0 675 1585" width="675" height="1585">
	<title>ISCTR</title>
	<style>
		.s0 { fill: #fff } 
	</style>
	<g id="layer1">
		<path id="path671" fill-rule="evenodd" class="s0" d="m131.3 1313.4c-41.6-9.4-58.5 0-70.2 6.8c-2.3 1.6-3.9 2.9-6.5 4.9c-9.1 7.8-19.9 23.4-19.9 23.4h-17.8v-268.1h20.8c0 0 4.5 17.9 8.4 28.6c24.7 70.8 74.8 123.2 74.8 123.2c145.2 136.1 305.5 86.4 305.5 86.4c134.5-48.4 156.6-158.9 122.8-235.9c-33.8-77-121.2-119.6-121.2-119.6l-28.9-16.2v187.1c1.3 11.4-3.9 49.7 37.3 60.1l20.8 5.6v21.1h-265.2v-21.1l21.8-5.9c40.3-10.7 35.1-48.4 36.1-59.8v-270.3l-24.7-13.7c-44.9-24.7-70.2-36.7-107.6-65c-71.8-53.9-117-113.1-117-207.9c0-127.7 97.2-233 230.8-251.9c5.8-1 12.3-1.6 18.5-1.9v-28.6c-1-11.1 4.2-49.4-37.1-59.8l-20.8-5.5v-21.2h265.2v21.2l-21.7 5.8c-40.3 10.7-35.1 48.4-36.4 59.5v427.6l-149.2-82.2v-276.5c-7.5 0.3-12.7 0.9-12.7 0.9c-75.7 12.7-141 63.4-141 135.5c0 46.5 20.1 83.2 51.7 109.9c0 0 19.5 20.5 60.4 46.1c41.3 25.7 204.4 114.1 204.4 114.1c0 0 97.2 52 127.4 75.4c14.7 11 32.5 27.9 32.5 27.9c57.9 52 102.1 127.4 102.1 210.9c0 25-3.6 49.7-9.4 72.8c0 0-35.8 137.8-191.5 190.4c0 0-45.5 18.9-94.5 21.8c0 0-1.3 0.3-6.5 0.3c22.7 15.3 37.7 41.3 37.7 70.5c0 21.5-8.8 36.4-19.5 52c-7.8 10.7-21.5 35.1-29.9 47.1c-20.2 27.3-34.5 44.9-34.5 44.9h-21.8c0 0 9.8-38 6.9-47.5c-3.6-11-5.2-15.6-17.6-21.7c-31.2-11.1-53.6-39-53.6-74.8c0-33.4 19.2-62 47.1-76c-32.5-5.9-61.4-16.3-96.5-31.2c0 0-47.5-16.3-56.9-18.5zm456-724h-23.1l-2.6-16.3c-1.9-12.3-6.5-33.4-9.7-43.5c-4.6-14-18.6-46.2-37.4-71.8c-19.2-25.4-35.1-41-45.5-48.8c-8.1-5.8-15.9-13.6-32.8-23v-39.4l39 15.6c0 0 26.6 11.1 47.1 8.8c17.9-1.9 26.3-6.2 35.4-17.9l10.1-15.6h19.5zm-262.5-415.2c-47.9 0-86.6-38.7-86.6-86.6c0-47.9 38.7-86.6 86.6-86.6c47.9 0 86.7 38.7 86.7 86.6c0 47.9-38.8 86.6-86.7 86.6z" />
	</g>
</svg>