<?xml version="1.0" encoding="UTF-8"?>
<svg id="Capa_1" data-name="Capa 1" xmlns="http://www.w3.org/2000/svg" xmlns:xlink="http://www.w3.org/1999/xlink" viewBox="0 0 1812.71 606.83">
  <defs>
    <style>
      .cls-1 {
        fill: url(#Degradado_sin_nombre_18);
      }

      .cls-1, .cls-2, .cls-3, .cls-4, .cls-5, .cls-6, .cls-7 {
        stroke-width: 0px;
      }

      .cls-2 {
        fill: #153f8f;
      }

      .cls-3 {
        fill: #95c11f;
      }

      .cls-4 {
        fill: #793282;
      }

      .cls-5 {
        fill: #d8e7bb;
      }

      .cls-6 {
        fill: #0c331f;
      }

      .cls-7 {
        fill: #f59c00;
      }
    </style>
    <radialGradient id="Degradado_sin_nombre_18" data-name="Degradado sin nombre 18" cx="255.49" cy="172.76" fx="255.49" fy="172.76" r="378.59" gradientUnits="userSpaceOnUse">
      <stop offset="0" stop-color="#d8e7bb"/>
      <stop offset=".7" stop-color="#006634"/>
      <stop offset="1" stop-color="#004b24"/>
    </radialGradient>
  </defs>
  <g>
    <circle class="cls-1" cx="303.41" cy="303.41" r="303.34"/>
    <polygon class="cls-3" points="236.75 348.01 227.08 327.45 209.56 314.4 226.2 278.72 236.58 270.77 228.12 255.48 253.84 237.7 250.35 223.8 290.63 210.27 329.41 219.86 337.05 231.92 362.87 230.68 386.39 274.43 374.87 281.62 384.53 291.91 361.4 341.51 346.65 330.6 346.51 330.77 346.94 351.13 302.79 365.56 293.72 350.21 303.1 344.66 307.73 352.48 335.86 343.28 335.52 326.91 344.87 315.72 357.15 324.81 371.52 293.99 357.82 279.4 371.95 270.59 356.52 241.9 331.23 243.12 322.54 229.39 291.09 221.62 263.38 230.93 266.26 242.37 242.44 258.84 250.68 273.71 234.96 285.75 223.2 310.96 235.79 320.34 242.97 335.61 259.64 332.21 261.82 342.9 236.75 348.01"/>
    <polygon class="cls-3" points="247.45 375.24 278.66 389.79 290.89 335.6 325.8 301.18 318.05 292.81 290.63 309.42 283.77 297.35 271.33 302.63 276.38 331.05 247.45 375.24"/>
    <g>
      <path class="cls-3" d="M493.43,89.62l5.96,7.12-2.64,1.14-.13,11.57,10.36,9.54,9.31,12.35,10.15,2.66-3.87-5.96-6.59-1.76-6.8-8.86-7.43-6.77-.17-8.36,3.91-1.84-6.01-7.08,5.95-1.7-3.13-4.4,8.28,1.55,12.87,7.91,6.25,6.44,2.63,1.13c-3.02-3.48-6.12-6.89-9.31-10.24l-14.7-9-11.93-2.31,3.61,5.18-6.57,1.69Z"/>
      <path class="cls-3" d="M559.73,141.11l-4.69-4.02-.41,3.86,5.77,8.98-9.79-.8-4.74-5.4-2.54,1.08,9.5,10.99,15.57,1.04-7.6-11.59v-.06s3.07,2.64,3.07,2.64c-1.35-2.26-2.72-4.51-4.13-6.74Z"/>
    </g>
    <polygon class="cls-3" points="529.05 149.16 549.67 165.78 537.51 136.28 542.53 126.3 537 121 530.03 123.27 524.07 116.45 520.19 116.39 529.71 130.92 529.05 149.16"/>
    <g>
      <path class="cls-3" d="M17.17,218.94l7.73-4.35.33-6.03-5.16,3.11-.54-7.69-1.74-2.69c-.69,1.92-1.35,3.84-2,5.76l.79,1.34.59,10.55Z"/>
      <path class="cls-3" d="M54.81,142.54l2.7,5.02,11.34-7.5,6.58,12.91-7.79,9.24,6.55,6.37-9.41,24.5-5.63-4.45-5.17,8.98-1.03,11.43-12.89,8.66-1.13-4.9-4.01,4.28,2.03,9.86,20.83-13.1,1.18-14.96.08-.14,7.03,6.26,15.77-41.07-5.25-4.54,6.95-8.03-11.12-19.54-11.84,8.23-2.49-4.18-10.05,3.81c-1.37,2.15-2.72,4.31-4.04,6.5l10.82-3.65Z"/>
      <path class="cls-3" d="M27.67,178.62l-.2-1.12c-.67,1.46-1.34,2.92-1.98,4.39l2.18-3.26Z"/>
    </g>
    <polygon class="cls-3" points="17.43 234.56 25.75 244.01 35.19 208.02 51.51 182.3 48.9 178.51 37.31 192.31 35.94 186.36 31.44 190.87 30.61 206.51 17.43 234.56"/>
    <g>
      <path class="cls-7" d="M333.52,484.51c-4.28,1.1-10.39,6.93-6.63,10.76,3.75,3.83,5.69,13.04,4.17,15.8-1.52,2.76,7.65,5.87,8.73,1.07,1.09-4.8-2.97-9.46-2.14-13.23s3.21-16.28-4.14-14.39Z"/>
      <path class="cls-7" d="M370.41,468.25c-6.68,1.03-11.09,8.44-9.63,14.21,1.47,5.76-2.06,10.35-3.64,14.23s7,9.73,8.67,5.66-.75-10.27,1.97-13.62c2.72-3.35,6.62-7.76,7.53-12.18.91-4.42-1.93-8.75-4.91-8.29Z"/>
      <path class="cls-7" d="M398.28,463.42c-5.8-1.28-10.39,8.42-10.79,12.24s-1.42,14.43-4.45,16.48c-3.03,2.05-5.99,10.36-1.64,11.93,4.35,1.57,9.05-4.55,8.55-7.44-.5-2.89,2.68-13.4,6.32-15.64,3.63-2.23,7.87-16.28,2.02-17.58Z"/>
      <path class="cls-7" d="M419.59,476.64c-4.38-2.26-11.03,7.32-11.98,13.8-.95,6.48-4.08,8.25-7.62,8.91s-5.42,7.17-2.01,8.76,6.38-2.79,7.91-5.08c1.53-2.29,8.34-9.96,11.57-11.45,3.23-1.49,6.77-12.54,2.12-14.94Z"/>
      <path class="cls-7" d="M427.39,529.2c-4.09-2.46-8,1.81-10.93,4.14-2.93,2.33-9.34.73-7.7,6.11,1.65,5.38,6.17,3.1,7.33,1.11s11.1-1.52,12.71-4c1.62-2.48,2.01-5.3-1.42-7.35Z"/>
      <path class="cls-7" d="M392.41,517.6c-5.4-3.76-8.18,1.94-16.12-3.79-3.15-2.28-29.81,10.22-30.73,7.25-.92-2.97-11.36-1.37-13.79,5.8-2.42,7.18,1.11,26.83,7.12,27.79,6.02.96,15.22-2.6,14.29-6.95s-.51-12.7,1.56-15.66c2.07-2.96,12.82-6.71,15.38-2.29,2.55,4.42-.51,9.95-3.34,11.34-2.83,1.39-10.3-3.75-11.88-2.22-1.59,1.53-.75,13.97,4.44,17.43s17.89.75,20.25-2.43c2.36-3.18,12.09-2.06,15.89-5.26,3.8-3.19,4.53-7.24-.25-9.12-4.78-1.88-10.48-1.54-9.57-4.46.9-2.93,9.38-10.46,6.74-17.43Z"/>
    </g>
    <g>
      <path class="cls-7" d="M376.1,23.76c-3.13-.03-6.99,2.17-3.56,4.73,3.43,2.56,6.24,7.7,5.47,8.94-.77,1.24,6.72,4.2,6.86,1.82.15-2.38-3.64-5.42-3.54-7.29s.13-8.14-5.24-8.19Z"/>
      <path class="cls-7" d="M397.63,22.3c-5.09.64-6.34,3.75-3.36,5.99,2.98,2.24,1.56,4.19,1.5,5.79-.07,1.6,8.7,3.63,8.78,1.95.08-1.68-3.81-4.06-2.66-5.49s2.94-3.32,2.29-5.11c-.64-1.79-4.29-3.41-6.55-3.13Z"/>
      <path class="cls-7" d="M415.26,26.35c-3.98.33-4.12,4.04-3.3,5.32s3.15,4.82,1.84,5.87-.83,4.1,2.32,4.05,4.37-2.62,3.25-3.49c-1.12-.86-2.08-4.65-.44-5.84s.35-6.24-3.66-5.91Z"/>
      <path class="cls-7" d="M435.52,34.96c-3.94-.92-6.42,2.86-5.39,5.44,1.03,2.57-.87,3.27-3.39,3.51-2.52.25-2.19,2.83.84,3.48,3.03.65,4.1-1.08,4.65-1.99.55-.9,3.66-3.93,5.72-4.51s1.76-4.96-2.43-5.93Z"/>
      <path class="cls-7" d="M466.19,75.5c-3.95-2.09-6.5-.48-8.58.26s-7.85-1.31-5.46,1.93,5.84,2.83,6.47,1.95,9.2,1.2,10.13.14.74-2.53-2.56-4.28Z"/>
      <path class="cls-7" d="M416.43,49.13s16.64-2.6,11.95,13.57c6.38,4.19,18.63,10.74,16.22,16.27-2.41,5.53-24.68,5.13-27.66,2.24-2.98-2.89-13.62-8.52-10.47-13.36,4.34-3.46,10.11-4.6,10.2-7.55.09-2.95-13.05-8.66-15.41-5.39-.55,2.61,7.15,5.36,6.44,6.87s-6.43,6.65-4.4,9.09c.07,2.7-13.27,2.43-17.71-4.11-4.43-6.54-7.35-18.12-3.73-20.89,3.62-2.77,32.2-7.71,34.56,3.28Z"/>
    </g>
    <g>
      <path class="cls-7" d="M134.95,518.84c-2.1-2.93-12.41-3.18-7.91,3.47,4.49,6.65,8.46,22.83,12.69,23.06s.18-7.83-1.34-12.94c-1.52-5.11-3.43-13.59-3.43-13.59Z"/>
      <path class="cls-7" d="M151.2,511.44c-4.84.02-4.74,9.23-2.17,13.5,2.57,4.27-1.09,12.11,2.25,15.19,3.34,3.08,7.37,2.35,6.45-2.2s-1.81-11.48-.57-14.59c1.23-3.11,1.43-11.92-5.96-11.89Z"/>
      <path class="cls-7" d="M171.12,515.73c-5.46.22-4.88,11.4-2.89,16.45,1.99,5.05-3.02,16.72,2.24,15.21,5.26-1.51,1.37-11.79,3.92-15.38,2.54-3.59,3.16-16.54-3.26-16.28Z"/>
      <path class="cls-7" d="M196.85,531.94c-5.13-1.97-10.21,6.82-9.14,11.04s-6.98,7.19-4.03,11.28c2.95,4.09,7.27,1.33,8.73-3.2,1.46-4.53,5.96-3.95,6.58-7.13s2.16-10.34-2.14-11.99Z"/>
      <path class="cls-7" d="M214.24,583.37c-6.29-1.41-8.68,7.45-2.24,8.07,6.44.62,14.34,3.65,15.4.24,1.06-3.41,1.08-8.11-3.94-7.12s-9.21-1.19-9.21-1.19Z"/>
      <path class="cls-7" d="M184.49,575.26c-4.01-3.27,3.12-10.17-.01-14.45-3.13-4.28-5.95.48-13.76-5.12-7.81-5.59-24.86-8.12-28.25-3.17-3.12,4.55.84,8.37,1.51,8.96,7.31,4.5,14.85,8.73,22.65,12.66-3.69-3.7-6.73-9.18-4.22-10.39,2.52-1.21,10.27,5.44,10.77,9.95.33,2.93-1.25,2.88-2.4,2.49,1.48.72,2.95,1.45,4.45,2.14,7.91,3.69,15.89,6.98,23.93,9.93,2.01-5.31-10.65-9.74-14.66-13.01Z"/>
    </g>
    <path class="cls-4" d="M264.58,132.57l8.66-3.38-8.84-15.82-.68-5.4c4.84-1.31,8.22-4.67,7.9-8.33-.38-4.34-5.8-7.41-12.11-6.86s-11.11,4.52-10.73,8.86c.14,1.56.94,2.95,2.19,4.07l-3.32.14-12.02-12.17-12.68-23.6-.17-4.15c7.48-1.22,13-5.34,12.61-9.76-.42-4.81-7.64-8.1-16.12-7.36-8.48.74-15.02,5.24-14.6,10.05.12,1.43.91,2.7,2.08,3.79l-43.23,17.38,3.13,8.59,23.57-9.55-44.51,47.72,9.07,6.86,26.79-28.08-10.1,31.45,12.91,2.3,13.69-39.75,14.9-17.88,7.3,17.39,8.11.36,14.14,13.73-31.04,35.97,6.93,4.72,18.26-17.74-5.5,22.2,10.18.81,6.33-26.43,9.84-12.53,7.05,12.42Z"/>
    <path class="cls-4" d="M131.57,437.47l-13.99-21.93-.5-4.06c1.83-2.06,3.07-5.14,3.17-8.65.2-6.38-3.33-11.67-7.88-11.81-4.55-.14-8.4,4.92-8.6,11.3,0,.02,0,.04,0,.07l-13.68-19.22-12.05-31.79-2.6-10.82c4.3-2.3,7.46-8.02,7.67-14.82.28-8.98-4.69-16.43-11.09-16.63-6.4-.2-11.82,6.92-12.1,15.91-.07,2.14.17,4.18.65,6.07l-17.47,9.62-.92,14.62,12.92-4.3-3.78,24.08-12.27,26.32,8.75,7.99,10.49-22.5,1.94,30.98,10.44,9.27-2.3-48.76,4.07-14.49,7.29,21.08,20.94,24.85,1.28,17.71-11.69,15.09,6.59,5.27,8.61-11.64.94,20,7.83,3.65.71-35.62,10.28,16.77,6.35-3.64Z"/>
    <path class="cls-4" d="M579.41,271.8l11.84-4.75-.35,13.69-16.86,41.22,6.58,8.45,11.43-24.51-2.59,28.63,5.99,1.32,6.1-52.42,5.26,20.48c.02-24.03-2.82-47.85-8.35-70.96-.37-.11-.74-.17-1.12-.15-3.17.13-5.55,4.81-5.32,10.45.1,2.43.69,4.61,1.55,6.33l-17.02,11.27,2.86,10.95Z"/>
    <path class="cls-5" d="M432.95,577.7c-8.41-.51-16.92-1.23-25.55-2.18,25.59-27.58,49.86-59.32,71.88-94.57,17.56,4.52,34.5,8.33,50.58,11.29,3.28.6,6.49,1.15,9.67,1.68.98-1.22,1.97-2.43,2.93-3.66-3.88-.63-7.83-1.3-11.87-2.04-15.61-2.87-32.04-6.54-49.06-10.9,14.09-22.87,27.23-47.19,39.17-72.78,11.88-25.47,22.01-51.05,30.46-76.43,14.27,10.23,27.63,20.45,39.85,30.55,3.16,2.61,6.21,5.21,9.19,7.78.33-1.53.62-3.07.92-4.6-2.45-2.1-4.94-4.2-7.51-6.33-12.59-10.41-26.38-20.93-41.12-31.47,12.87-39.49,21.6-78.46,26.31-115.78,6.24,5.96,12.22,11.99,17.99,18.07-.71-2.71-1.47-5.41-2.26-8.1-4.89-5.01-9.91-10-15.12-14.93.83-7.12,1.49-14.17,2.03-21.15-1.12-2.57-2.27-5.12-3.46-7.66-.53,8.36-1.26,16.83-2.22,25.4-29.05-27.02-62.75-52.6-100.35-75.64,3.66-14.6,6.79-28.72,9.33-42.23,1.25-6.67,2.34-13.12,3.28-19.36-1.24-.95-2.47-1.9-3.72-2.83-1,6.89-2.19,14.03-3.58,21.43-2.45,13.05-5.47,26.68-8.97,40.76-21.57-13.04-44.37-25.25-68.3-36.41-24.81-11.57-49.7-21.48-74.41-29.81,8.59-11.82,17.15-22.99,25.63-33.32,4.48-5.45,8.89-10.63,13.23-15.53-1.53-.33-3.07-.65-4.6-.96-3.88,4.42-7.81,9.04-11.8,13.9-8.78,10.7-17.65,22.26-26.54,34.54-42.03-13.87-83.48-23.09-122.97-27.76,4.4-4.64,8.85-9.12,13.33-13.51-2.8.85-5.58,1.73-8.35,2.66-3.34,3.37-6.67,6.8-9.97,10.31-4.56-.5-9.08-.92-13.58-1.29-2.57,1.1-5.11,2.24-7.65,3.42,5.9.41,11.83.9,17.83,1.52-25.71,27.86-50.08,59.91-72.13,95.51-13.88-3.39-27.35-6.32-40.25-8.69-5.08-.93-10.03-1.77-14.86-2.53-.98,1.23-1.95,2.46-2.91,3.7,5.52.83,11.19,1.77,17.04,2.85,12.43,2.28,25.4,5.1,38.75,8.34-13.61,22.27-26.33,45.89-37.91,70.71-11.63,24.95-21.59,49.99-29.92,74.85-11.07-8.15-21.58-16.29-31.33-24.35-4.58-3.79-8.94-7.52-13.13-11.22-.34,1.54-.65,3.07-.96,4.61,3.69,3.22,7.51,6.47,11.49,9.76,10.12,8.37,21.04,16.81,32.57,25.27-13.07,39.81-21.94,79.09-26.73,116.71-4.37-4.23-8.59-8.5-12.73-12.78.73,2.7,1.5,5.38,2.3,8.06,3.21,3.24,6.48,6.47,9.82,9.67-.57,4.84-1.05,9.64-1.49,14.41,1.07,2.72,2.19,5.42,3.34,8.11.48-6.3,1.06-12.64,1.78-19.05,28.74,27.02,62.15,52.65,99.44,75.78-4.21,16.37-7.77,32.16-10.59,47.2-.82,4.38-1.57,8.67-2.26,12.87,1.22.98,2.44,1.97,3.67,2.94.78-4.89,1.64-9.9,2.6-15.05,2.74-14.58,6.17-29.87,10.21-45.72,22.49,13.76,46.36,26.62,71.45,38.32,24.22,11.3,48.53,21.01,72.67,29.22-9.48,13.19-18.93,25.56-28.28,36.96-3.62,4.41-7.19,8.61-10.72,12.66,1.51.35,3.03.7,4.55,1.03,3.08-3.56,6.19-7.26,9.34-11.09,9.64-11.75,19.39-24.54,29.16-38.19,41.47,13.81,82.39,23.08,121.45,27.94-5.99,6.28-12.05,12.31-18.16,18.12,2.71-.72,5.42-1.48,8.11-2.27,5.05-4.93,10.06-10,15.02-15.24,7.17.83,14.26,1.48,21.29,2,2.57-1.13,5.12-2.28,7.66-3.48ZM517,402.81c-12.05,25.84-25.33,50.38-39.58,73.44-39.77-10.38-82.87-24.59-127.48-42.05,15-27.43,29.61-56.33,43.55-86.23,14.64-31.39,27.93-62.63,39.72-93.13,42.17,23.01,80.87,46.95,114.47,70.81-8.48,25.61-18.7,51.44-30.7,77.16ZM575.2,204.82c-4.56,37.56-13.26,76.87-26.18,116.75-33.62-23.79-72.26-47.65-114.32-70.58,16.48-42.99,29.92-84.43,39.68-122.6,37.87,23.29,71.76,49.15,100.82,76.44ZM389.79,346.24c-13.98,29.98-28.64,58.95-43.68,86.44-27.48-10.84-55.48-22.86-83.6-35.97-31.38-14.63-61.63-30.02-90.27-45.82,11.33-28.99,24.02-58.64,37.91-88.41,14.58-31.27,29.9-61.41,45.62-89.94,30.41,11.76,61.54,25,92.82,39.58,28.02,13.07,55.12,26.74,81.01,40.76-11.81,30.57-25.13,61.89-39.8,93.36ZM326.52,59.26c24.96,8.37,50.12,18.37,75.2,30.06,24.2,11.28,47.24,23.65,69.01,36.85-9.71,38.2-23.16,79.75-39.67,122.86-25.81-13.97-52.83-27.6-80.75-40.62-31.17-14.53-62.21-27.75-92.54-39.49,22.45-40.47,45.68-77.58,68.75-109.66ZM198.58,30.32c39.71,4.51,81.48,13.66,123.89,27.59-23.01,32.12-46.17,69.16-68.55,109.54-45.02-17.27-88.42-31.23-128.25-41.17,22.3-35.86,46.94-68.07,72.91-95.96ZM85.04,201.38c11.71-25.11,24.58-48.97,38.36-71.44,39.85,9.88,83.34,23.82,128.5,41.12-15.67,28.46-30.94,58.52-45.47,89.68-13.84,29.67-26.49,59.22-37.8,88.14-42.15-23.42-80.68-47.71-113.78-71.82,8.38-25.12,18.43-50.44,30.19-75.67ZM26.93,398.74c4.64-37.84,13.46-77.44,26.58-117.6,33.13,24.05,71.61,48.26,113.65,71.59-16.64,42.92-30.25,84.34-40.29,122.63-37.59-23.39-71.17-49.31-99.94-76.62ZM276,545.79c-24.37-8.24-48.93-18.04-73.4-29.45-25.35-11.82-49.43-24.81-72.1-38.73,9.98-38.31,23.59-79.83,40.26-122.87,28.58,15.75,58.74,31.08,90.02,45.67,28.02,13.07,55.93,25.05,83.33,35.87-22.22,40.32-45.23,77.33-68.11,109.51ZM402.45,574.97c-39.29-4.7-80.55-13.93-122.41-27.81,22.83-32.2,45.76-69.14,67.9-109.36,44.47,17.42,87.47,31.64,127.2,42.07-22.27,35.54-46.83,67.47-72.7,95.1Z"/>
    <path class="cls-6" d="M427.34,580.3c-6.28-.45-12.6-.99-18.99-1.68,26.93-28.87,52.42-62.33,75.4-99.64,14.89,3.76,29.28,6.98,43.04,9.58,5.11.97,10.09,1.83,14.94,2.62.96-1.22,1.9-2.46,2.85-3.7-5.52-.86-11.19-1.83-17.03-2.94-13.3-2.51-27.21-5.62-41.57-9.22,13.31-21.91,25.76-45.1,37.12-69.46,11.36-24.35,21.12-48.8,29.35-73.08,11.99,8.69,23.31,17.34,33.79,25.92,4.6,3.77,8.99,7.49,13.2,11.16.34-1.52.69-3.04,1-4.56-3.72-3.22-7.59-6.47-11.61-9.77-10.84-8.87-22.56-17.83-35-26.82,13.81-41.58,23.05-82.62,27.86-121.81,4.64,4.45,9.11,8.95,13.49,13.47-.79-2.77-1.63-5.52-2.5-8.27-3.4-3.41-6.85-6.81-10.4-10.18.55-4.86,1.01-9.67,1.43-14.46-1.1-2.66-2.22-5.31-3.4-7.93-.45,6.27-.99,12.58-1.69,18.96-28.88-26.96-62.35-52.48-99.68-75.48,3.62-14.49,6.74-28.51,9.25-41.93,1.04-5.54,1.96-10.91,2.78-16.15-1.22-.96-2.46-1.9-3.7-2.84-.9,5.9-1.92,11.97-3.1,18.24-2.43,12.95-5.43,26.49-8.9,40.45-21.89-13.3-45.06-25.74-69.4-37.09-24.34-11.35-48.76-21.1-73.02-29.32,8.47-11.63,16.9-22.63,25.26-32.82,4.05-4.93,8.04-9.62,11.98-14.1-1.52-.34-3.04-.69-4.56-1.01-3.48,4-7.01,8.16-10.58,12.51-8.66,10.55-17.4,21.95-26.17,34.04-41.61-13.81-82.68-23.05-121.89-27.84,4.44-4.63,8.93-9.1,13.44-13.48-2.77.79-5.52,1.63-8.26,2.5-3.41,3.4-6.8,6.85-10.16,10.39-4.86-.55-9.68-1.01-14.48-1.42-2.66,1.1-5.31,2.23-7.94,3.4,6.28.45,12.6.99,18.99,1.68-26.93,28.87-52.42,62.33-75.4,99.64-14.89-3.76-29.28-6.98-43.04-9.58-5.11-.97-10.09-1.83-14.95-2.62-.96,1.22-1.9,2.46-2.85,3.7,5.52.86,11.19,1.83,17.04,2.94,13.3,2.51,27.21,5.62,41.57,9.22-13.31,21.91-25.76,45.1-37.12,69.45-11.36,24.36-21.12,48.8-29.35,73.08-11.99-8.69-23.31-17.34-33.79-25.92-4.6-3.77-8.99-7.49-13.2-11.16-.34,1.52-.69,3.04-1,4.56,3.73,3.22,7.59,6.47,11.62,9.77,10.84,8.87,22.55,17.83,35,26.82-13.81,41.58-23.05,82.62-27.86,121.81-4.64-4.45-9.11-8.95-13.49-13.47.79,2.77,1.63,5.52,2.5,8.27,3.4,3.41,6.85,6.81,10.4,10.18-.55,4.86-1.01,9.67-1.43,14.46,1.1,2.66,2.22,5.31,3.4,7.93.45-6.27.99-12.58,1.69-18.96,28.88,26.96,62.35,52.48,99.68,75.48-3.62,14.49-6.74,28.51-9.25,41.93-1.04,5.54-1.96,10.91-2.78,16.15,1.22.96,2.46,1.9,3.7,2.84.9-5.9,1.92-11.97,3.1-18.23,2.43-12.95,5.43-26.49,8.9-40.45,21.89,13.3,45.06,25.74,69.4,37.09,24.34,11.35,48.76,21.1,73.02,29.32-8.47,11.63-16.9,22.63-25.26,32.82-4.05,4.93-8.04,9.62-11.98,14.1,1.52.34,3.04.69,4.56,1.01,3.48-4,7.01-8.16,10.58-12.51,8.66-10.55,17.4-21.95,26.17-34.04,41.61,13.82,82.68,23.05,121.89,27.84-4.44,4.63-8.93,9.1-13.44,13.48,2.77-.79,5.52-1.63,8.26-2.5,3.41-3.4,6.8-6.85,10.16-10.39,4.86.55,9.68,1.01,14.48,1.42,2.66-1.1,5.31-2.23,7.94-3.4ZM519.39,404.13c-11.48,24.62-24.08,48.04-37.55,70.15-39.74-10.18-83.07-24.35-128.03-41.79,14.85-27.2,29.32-55.84,43.13-85.45,13.81-29.61,26.44-59.11,37.73-87.97,42.26,23.22,80.96,47.31,114.31,71.21-8.27,24.53-18.12,49.23-29.6,73.85ZM578.08,203.45c-4.65,39.42-13.85,80.81-27.72,122.78-33.38-23.85-72.02-47.87-114.19-71.02,17.43-44.94,31.57-88.28,41.74-128.06,37.62,23.25,71.28,49.07,100.18,76.3ZM393.24,345.3c-13.85,29.71-28.37,58.43-43.27,85.7-28.98-11.34-58.61-24.04-88.36-37.92-29.76-13.88-58.53-28.41-85.84-43.32,11.31-28.94,23.98-58.52,37.84-88.23,13.85-29.71,28.37-58.43,43.27-85.7,28.98,11.34,58.61,24.04,88.36,37.92,29.76,13.88,58.53,28.41,85.84,43.32-11.31,28.94-23.98,58.52-37.83,88.23ZM330.33,57.82c24.52,8.27,49.21,18.1,73.82,29.58,24.61,11.48,48.02,24.07,70.11,37.54-10.1,39.8-24.25,83.23-41.71,128.29-27.25-14.86-55.93-29.35-85.59-43.18-29.66-13.83-59.19-26.49-88.09-37.81,23.3-42.34,47.47-81.09,71.46-114.41ZM203.44,28.76c39.44,4.63,80.85,13.82,122.84,27.69-23.94,33.36-48.05,72.04-71.27,114.29-44.84-17.42-88.08-31.58-127.81-41.82,23.24-37.6,49.03-71.26,76.24-100.16ZM87.44,202.7c11.48-24.62,24.08-48.04,37.55-70.14,39.74,10.18,83.07,24.35,128.03,41.79-14.85,27.2-29.32,55.84-43.13,85.45-13.81,29.62-26.44,59.11-37.74,87.97-42.26-23.22-80.96-47.31-114.31-71.21,8.27-24.53,18.12-49.24,29.6-73.86ZM28.75,403.38c4.65-39.42,13.85-80.81,27.72-122.78,33.38,23.85,72.02,47.87,114.19,71.02-17.43,44.94-31.57,88.28-41.74,128.06-37.62-23.25-71.28-49.07-100.17-76.3ZM276.5,549.02c-24.52-8.27-49.21-18.1-73.82-29.58-24.61-11.47-48.02-24.07-70.11-37.54,10.1-39.8,24.25-83.23,41.71-128.29,27.25,14.86,55.93,29.35,85.59,43.18,29.66,13.83,59.19,26.49,88.09,37.81-23.3,42.34-47.47,81.09-71.46,114.41ZM403.39,578.08c-39.44-4.63-80.85-13.82-122.84-27.69,23.94-33.36,48.05-72.04,71.27-114.29,44.84,17.42,88.08,31.58,127.81,41.82-23.24,37.6-49.03,71.26-76.24,100.16Z"/>
  </g>
  <g>
    <path class="cls-2" d="M684.4,225.1h79.03v14.28h-62.6v59.27h59.74v14.28h-59.74v78.31h-16.42v-166.14Z"/>
    <path class="cls-2" d="M823.17,239.39h-49.03v-14.28h114.49v14.28h-49.03v151.86h-16.42v-151.86Z"/>
    <path class="cls-2" d="M906.73,370.06c9.76,6.19,21.18,9.76,36.66,9.76,20.47,0,37.37-10.47,37.37-34.04,0-32.61-76.17-36.66-76.17-80.22,0-26.66,23.33-43.32,52.6-43.32,8.09,0,21.18,1.19,32.61,5.47l-2.62,15c-7.38-4.05-19.04-6.19-30.23-6.19-17.14,0-35.94,7.14-35.94,28.56,0,33.32,76.17,33.56,76.17,82.12,0,33.56-28.8,46.89-54.51,46.89-16.19,0-28.8-3.33-37.61-7.14l1.67-16.9Z"/>
    <path class="cls-2" d="M1030.27,225.1h81.4v14.28h-64.98v59.27h61.65v14.28h-61.65v64.03h67.84v14.28h-84.26v-166.14Z"/>
    <path class="cls-2" d="M1134.3,336.74l74.74-111.63h20.95v113.54h24.52v14.28h-24.52v38.32h-16.42v-38.32h-79.26v-16.19ZM1213.56,241.53h-.48l-63.79,97.11h64.27v-97.11Z"/>
    <path class="cls-2" d="M1395.42,315.56h-38.56v-14.28h54.98v82.6c-16.9,7.38-33.32,10.23-51.65,10.23-52.36,0-83.78-34.51-83.78-85.93s32.37-85.93,83.78-85.93c12.62,0,33.32,2.14,44.51,7.86l-1.91,15.23c-12.85-7.14-28.09-8.81-42.61-8.81-43.08,0-67.36,30.47-67.36,71.65s23.57,71.65,67.36,71.65c10.24,0,27.37-1.19,35.23-5.95v-58.32Z"/>
    <path class="cls-2" d="M1499.21,267c39.27,0,56.65,30.47,56.65,63.55s-17.38,63.55-56.65,63.55-56.65-30.47-56.65-63.55,17.37-63.55,56.65-63.55ZM1499.21,381.25c26.18,0,40.23-22.61,40.23-50.7s-14.04-50.7-40.23-50.7-40.23,22.61-40.23,50.7,14.04,50.7,40.23,50.7Z"/>
    <path class="cls-2" d="M1631.56,267c39.27,0,56.65,30.47,56.65,63.55s-17.38,63.55-56.65,63.55-56.65-30.47-56.65-63.55,17.37-63.55,56.65-63.55ZM1631.56,381.25c26.18,0,40.23-22.61,40.23-50.7s-14.04-50.7-40.23-50.7-40.23,22.61-40.23,50.7,14.04,50.7,40.23,50.7Z"/>
    <path class="cls-2" d="M1812.71,391.25h-15v-19.28h-.48c-8.09,15.47-20.47,22.14-37.85,22.14-33.32,0-49.99-27.61-49.99-63.55s14.28-63.55,49.99-63.55c23.8,0,35.71,17.38,37.85,23.33h.48v-77.6h15v178.52ZM1761.77,381.25c26.66,0,35.94-28.56,35.94-50.7s-9.28-50.7-35.94-50.7c-28.56,0-35.94,27.13-35.94,50.7s7.38,50.7,35.94,50.7Z"/>
  </g>
</svg>